<?xml version="1.0" encoding="UTF-8" standalone="no"?>
<!DOCTYPE svg PUBLIC "-//W3C//DTD SVG 1.1//EN" "http://www.w3.org/Graphics/SVG/1.1/DTD/svg11.dtd">
<svg width="100%" height="100%" viewBox="0 0 612 792" version="1.1" xmlns="http://www.w3.org/2000/svg" xmlns:xlink="http://www.w3.org/1999/xlink" xml:space="preserve" xmlns:serif="http://www.serif.com/" style="fill-rule:evenodd;clip-rule:evenodd;stroke-linejoin:round;stroke-miterlimit:2;">
    <path d="M479.8,507.2C481.5,506.9 483.3,506.4 484.9,505.6C486.6,504.8 487.9,503.7 489.1,502.3C490.2,500.8 491,499.1 491.5,497C492,494.9 492,492.4 491.6,489.6C491.2,487.5 490.9,485.5 490.4,483.6C489.9,481.6 489.3,479.3 488.6,476.6C487.9,473.9 487,470.6 485.9,466.6C485.5,465.3 485.2,463.8 484.8,462.2C484.1,465.8 483.4,469.3 482.5,472.8C481.3,477.7 479.7,482.6 478.1,487.7C478.3,488.2 478.5,488.8 478.6,489.5C478.6,489.6 478.6,489.8 478.7,489.9C479.4,490.3 480.1,490.7 480.7,491.2C481.6,492 482.2,493.2 482.4,494.5C482.7,496.5 482.4,498.4 481.3,500.3C480.3,502.2 478.7,503.3 476.4,503.7C475.5,503.8 474.7,503.8 473.8,503.7C472.9,503.6 472.2,503.1 471.6,502.3C471.8,503.7 472.2,505 472.5,506.1C474.3,507.4 476.8,507.7 479.8,507.2Z" style="fill:none;fill-rule:nonzero;"/>
    <path d="M393.6,355.2C391.5,355.6 389.7,356.9 388,359.2C386.3,361.5 385,364.4 383.7,367.9C382.5,371.4 381.5,375.2 380.7,379.3C380.3,381.3 380,383.1 379.8,385C381.3,384.3 382.8,383.5 384.2,382.4C386.8,380.4 389.1,378 390.9,375.3C392.7,372.5 394,369.5 394.8,366.2C395.6,362.9 395.7,359.5 395.2,356.2C395.1,355.8 395.1,355.5 395,355.3C394.5,355.2 394.1,355.2 393.6,355.2Z" style="fill:none;fill-rule:nonzero;"/>
    <path d="M105.3,404.6L107,367.4C104,370.7 101.1,375.1 98.4,380.6C95.1,387.2 92.2,394.4 89.5,402.4C91.3,402.5 93.1,402.7 94.9,402.8C98.5,403.2 102,403.8 105.3,404.6Z" style="fill:none;fill-rule:nonzero;"/>
    <path d="M440.2,455.7C438.1,456.1 436.3,457.4 434.6,459.6C432.9,461.8 431.5,464.7 430.2,468.1C429,471.5 428,475.3 427.3,479.4C426.9,481.4 426.6,483.4 426.4,485.3C428,484.6 429.4,483.7 430.9,482.6C433.5,480.6 435.8,478.2 437.6,475.5C439.4,472.7 440.6,469.7 441.4,466.4C442.1,463.1 442.3,459.8 441.7,456.5C441.6,456.1 441.6,455.8 441.5,455.6C441.2,455.6 440.7,455.6 440.2,455.7Z" style="fill:none;fill-rule:nonzero;"/>
    <path d="M138.3,327.2L143.9,326.3C175.4,272 234.2,235.3 301.3,235.3C368.4,235.3 404,259 437.3,296.6C403.9,256.4 353.6,230.6 297.6,230.6C241.6,230.6 172.9,265.4 140.5,321.4L140.4,321.4C140.4,321.5 128.4,323.4 128.4,323.4L128.3,323.4L132.7,328L138.3,327.2Z" style="fill:rgb(241,196,17);fill-rule:nonzero;"/>
    <path d="M146.5,512.6C142.5,506.1 139,499.5 135.8,492.6L132.3,487.2L132.3,487.4C136.5,496.2 141.3,504.7 146.5,512.6Z" style="fill:rgb(241,196,17);fill-rule:nonzero;"/>
    <path d="M436.7,542.7C435.1,544.4 433.7,545.8 432.4,547.1C396.4,583.1 348.4,603 297.5,603C246.6,603 198.6,583.1 162.6,547C158.8,543.2 155.1,539.2 151.7,535.1C156.3,540.9 161.3,546.5 166.6,551.8C202.6,587.8 250.4,607.6 301.3,607.6C352.2,607.6 400,587.9 436,551.8C437.5,550.3 438.8,548.9 440.2,547.4L437.5,541.8L436.7,542.7Z" style="fill:rgb(241,196,17);fill-rule:nonzero;"/>
    <path d="M459.6,311.1C477.8,340.2 487.9,373.8 488.4,408.9L488.4,409.2L478.9,410.7L483,415.3L491.7,414C491.1,376.8 480,341.3 459.6,311.1Z" style="fill:rgb(241,196,17);fill-rule:nonzero;"/>
    <path d="M55.2,491.9C55.2,491.967 55.2,491.967 55.2,491.9Z" style="fill:rgb(241,196,17);fill-rule:nonzero;"/>
    <path d="M107,367.4L107.4,358.6C102.9,362 98.7,367.7 94.8,375.6C90.9,383.5 87.4,392.4 84.3,402.3C86,402.4 87.8,402.4 89.5,402.5C92.2,394.5 95.2,387.2 98.4,380.7C101.2,375 104.1,370.7 107,367.4Z" style="fill:rgb(241,196,17);fill-rule:nonzero;"/>
    <path d="M52.9,417.1C49.9,418.9 48,421.3 47.3,424.3C47.7,424.2 48.3,424.7 49,425.7C49.7,426.7 50.1,427.8 50.3,429C50.6,431 50,432.6 48.3,434.1C46.7,435.6 44.6,436.5 42.1,436.9C40,437.3 38,437.1 36.2,436.5L36,439C36.6,439.7 37.3,440.3 38.1,440.7C40.3,441.9 42.9,442.4 45.7,441.9C48.2,441.5 50.3,440.5 51.9,439.1C53.5,437.6 54.1,436 53.9,434C53.7,432.8 53.2,431.7 52.6,430.7C51.9,429.7 51.4,429.2 50.9,429.3C51.6,426.3 53.4,423.9 56.5,422.1C58.2,421.1 60.3,420.2 62.7,419.3C63.5,417.1 64.3,414.8 65.2,412.5C60.1,413.8 56.1,415.3 52.9,417.1Z" style="fill:rgb(241,196,17);fill-rule:nonzero;"/>
    <path d="M135.3,350C135.3,350 135.2,350 135.3,350L131.7,344.9L125.9,469.8L102.3,473.7L105.9,478.8L129.5,474.9L135.3,350Z" style="fill:rgb(241,196,17);fill-rule:nonzero;"/>
    <path d="M93,409.9C89.4,409.6 85.8,409.6 82.1,409.8C80.1,417 78.4,424.3 77,431.8C75.5,439.3 74.4,446.4 73.7,453.3C72.9,460.2 72.5,466.6 72.3,472.5C72.3,478.4 72.3,483.4 73.1,487.6C73.6,490.8 74.3,493 75,494.2C75.7,495.4 76.4,496.4 77.1,497C74.9,497.4 72.5,497.7 69.9,497.9C67.3,498.1 64.8,497.8 62.4,497.1C60,496.4 57.9,494.9 56,492.8C55.8,492.5 55.6,492.3 55.3,492L58.8,496.9C58.8,497 59,497.2 59.1,497.3L59.1,497.5C59.3,497.6 59.4,497.9 59.6,498C61.5,500.1 63.6,501.6 66,502.3C68.4,503 70.9,503.3 73.5,503.1C76.1,502.9 78.5,502.6 80.7,502.2C80,501.5 79.3,500.6 78.6,499.4C77.9,498.2 77.3,496 76.7,492.8C76,488.7 75.8,483.6 75.9,477.7C76,471.8 76.5,465.4 77.3,458.5C78.1,451.6 79.2,444.4 80.6,437C82.1,429.5 83.8,422.2 85.7,415C89.4,414.7 93,414.8 96.6,415.1C99.1,415.3 101.9,415.8 104.9,416.4L105.1,412.3C100.6,410.9 96.6,410.2 93,409.9Z" style="fill:rgb(241,196,17);fill-rule:nonzero;"/>
    <path d="M164.8,388.3C162.3,388.7 160.2,389.2 158.5,389.8C156.8,390.4 156,391.3 156.3,392.5C156.4,392.7 156.4,392.9 156.6,392.9C156.8,392.9 157,393 157.3,393.1C157.6,393.2 157.9,393.5 158.1,393.8C158.3,394.2 158.5,394.8 158.7,395.8C159.2,398.8 158.6,401.2 157,402.9C155.3,404.6 153.4,405.6 151.3,405.9C149.4,406.2 147.6,405.9 145.9,405C145.2,404.6 144.6,404.1 144.1,403.5L147.6,408.4C148.1,409.1 148.8,409.6 149.5,410C151.3,410.9 153.1,411.2 154.9,410.9C157.1,410.5 159,409.5 160.6,407.9C162.2,406.3 162.8,403.8 162.3,400.8C162.2,399.8 161.9,399.1 161.7,398.8C161.5,398.5 161.2,398.2 160.9,398.1C160.6,398 160.4,397.9 160.2,397.9C160,397.9 159.9,397.8 159.9,397.5C159.7,396.3 160.5,395.4 162.1,394.8C163.8,394.2 165.9,393.7 168.4,393.3L171.7,392.7L173.9,386.7L164.8,388.3Z" style="fill:rgb(241,196,17);fill-rule:nonzero;"/>
    <path d="M204.5,444.9C204,447.1 203,449.3 201.5,451.3C200,453.3 198.2,455.1 195.9,456.6C193.7,458.1 190.9,459.1 187.7,459.6L144.3,466.8L147.9,471.9L191.3,464.7C194.5,464.2 197.2,463.2 199.5,461.7C201.7,460.2 203.6,458.4 205.1,456.4C206.6,454.4 207.6,452.3 208.1,450C208.6,447.8 208.8,445.7 208.5,443.9C208.3,442.4 207.7,441.1 207,439.9L207,439.7C206.9,439.7 206.8,439.6 206.8,439.6L203.3,434.7C204.1,435.9 204.6,437.2 204.9,438.8C205.1,440.7 205,442.7 204.5,444.9Z" style="fill:rgb(241,196,17);fill-rule:nonzero;"/>
    <path d="M177.9,448.9L204.6,378.3L201,373.2L172.3,449.2C173.6,449.2 175.5,449 177.9,448.9Z" style="fill:rgb(241,196,17);fill-rule:nonzero;"/>
    <path d="M203,434.4C203,434.4 203,434.5 203,434.4Z" style="fill:rgb(241,196,17);fill-rule:nonzero;"/>
    <path d="M201.4,432.9C201.4,432.9 201.5,432.9 201.4,432.9Z" style="fill:rgb(241,196,17);fill-rule:nonzero;"/>
    <path d="M321.1,379.2C323,376.9 324.7,374.9 326.4,373.5C328.1,372 330,371 332,370.7C332.2,370.7 332.4,370.6 332.5,370.6C332.4,370.5 332.4,370.4 332.3,370.2C331.8,369 331.3,367.9 330.8,366.8C330.4,365.8 329.5,365.3 328.3,365.5C326.2,365.9 324.4,366.8 322.7,368.3C321,369.8 319.3,371.7 317.4,374L314.6,438.5L291,442.4L291.4,432.9C289.9,435.2 288.4,437.2 286.8,438.8C284.1,441.4 281.4,443.3 278.8,444.5C276,445.7 273.6,446.4 271.4,446.7C266.7,447.5 262.8,446.8 259.5,444.6C258.9,444.2 258.3,443.7 257.8,443.2C259.2,446 260.9,448.1 263.1,449.7C266.3,451.9 270.3,452.5 275,451.8C277.2,451.4 279.6,450.7 282.4,449.6C285.2,448.4 287.8,446.6 290.4,443.9C290.7,443.6 291.1,443.2 291.3,442.9L294.6,447.5L316.2,443.9C316.8,442.2 317.5,440.6 318.4,438.9L321.1,379.2Z" style="fill:rgb(241,196,17);fill-rule:nonzero;"/>
    <path d="M233.3,429.9C233.6,431.8 234.2,433.3 235.2,434.5C235.7,435.2 236.4,435.6 237.2,435.8C237.1,435.5 237.1,435.3 237.1,435C236.9,433.5 236.8,432 236.8,430.4L239.4,372.7L235.8,367.6L233.2,425.3C233,426.9 233.2,428.4 233.3,429.9Z" style="fill:rgb(241,196,17);fill-rule:nonzero;"/>
    <path d="M273.8,423.8C274.2,426.1 275,427.6 276.2,428.3C276.6,428.5 276.9,428.7 277.4,428.7C277.2,427.1 277.1,425.4 277.2,423.5L279.8,365.8L276.2,360.7L273.6,418.4C273.4,420.4 273.6,422.2 273.8,423.8Z" style="fill:rgb(241,196,17);fill-rule:nonzero;"/>
    <path d="M349.4,364.8C349.1,366.3 348.6,367.7 347.8,369C347,370.3 345.9,371.5 344.5,372.4C343.1,373.3 341.5,374 339.5,374.3C337.7,374.6 336.3,374.4 335.3,373.9C335.5,374.3 335.7,374.8 335.9,375.2C336.4,376.4 337.2,377.5 338.2,378.5C339.2,379.5 340.9,379.7 343.1,379.4C345.1,379.1 346.7,378.5 348.1,377.5C349.5,376.6 350.6,375.4 351.4,374.1C352.2,372.8 352.7,371.4 353,369.9C353.3,368.4 353.3,366.9 353,365.5C352.5,362.3 351,359.6 348.7,357.5L348.5,357.3C348.9,358.3 349.2,359.3 349.4,360.5C349.7,361.8 349.6,363.3 349.4,364.8Z" style="fill:rgb(241,196,17);fill-rule:nonzero;"/>
    <path d="M322,359.4L322,358.9L318.4,353.8L317.8,364.5C319.2,362.6 320.6,361 322,359.4Z" style="fill:rgb(241,196,17);fill-rule:nonzero;"/>
    <path d="M247.6,443.1C245.8,445.5 244,447.4 242.1,448.8C240.2,450.3 238.3,451.3 236.4,452C234.5,452.7 232.7,453.2 230.9,453.5C226,454.3 221.5,453.4 217.6,450.9C217,450.5 216.4,450.1 215.9,449.6C217.2,452.4 218.9,454.5 221.2,456C225.1,458.5 229.5,459.4 234.5,458.6C236.2,458.3 238.1,457.8 240,457.1C241.9,456.4 243.8,455.3 245.7,453.9C247.6,452.4 249.5,450.6 251.2,448.2C252.7,446.2 254.2,443.7 255.5,440.7C254.3,438.9 253.3,436.6 252.6,434C251,437.6 249.4,440.7 247.6,443.1Z" style="fill:rgb(241,196,17);fill-rule:nonzero;"/>
    <path d="M338.2,432.2C335.7,433.7 333.8,435.9 332.3,438.7C330.8,441.5 329.8,445 329.4,449.3C329,453.6 329.3,458.9 330.3,465C330.7,467.2 331,469 331.5,470.4C331.9,471.8 332.3,472.9 332.7,473.8C333.1,474.7 333.4,475.4 333.8,475.9C334.2,476.4 334.5,476.8 334.8,477.3C328.9,478.2 324.4,477.8 321.1,475.8C319.6,474.9 318.3,473.6 317.3,471.8C317.3,471.9 321.6,477.9 321.6,477.9C322.5,479.1 323.5,480.1 324.7,480.8C328,482.8 332.5,483.2 338.4,482.3C338.1,481.9 337.7,481.4 337.4,480.9C337,480.4 336.7,479.7 336.3,478.8C335.9,477.9 335.6,476.8 335.1,475.4C334.7,474 334.3,472.2 333.9,470C332.9,463.8 332.6,458.5 333,454.3C333.4,450 334.4,446.5 335.9,443.7C337.4,440.9 339.4,438.8 341.8,437.2C343.1,436.4 344.5,435.7 345.9,435.2L346.2,429C343.3,429.6 340.7,430.7 338.2,432.2Z" style="fill:rgb(241,196,17);fill-rule:nonzero;"/>
    <path d="M404,384.8C407,381.2 409.1,377.3 410.6,372.9C412,368.5 412.3,364.1 411.5,359.3C411.1,357.2 410.6,355.3 409.8,353.5C409.6,353 409.3,352.5 408.9,352L408.2,356.1L408.1,356.1C408.5,360.2 408.1,364 406.9,367.8C405.5,372.2 403.3,376.1 400.3,379.7C397.3,383.3 393.7,386.4 389.5,388.9C385.3,391.4 380.7,393.3 375.9,394.4C376,395.3 376,396.1 376,397C376.1,397.8 376.2,398.7 376.4,399.5C376.7,401.2 377.1,402.8 377.6,404.3C378.1,405.8 378.9,407.2 379.8,408.4C380.2,409 380.8,409.4 381.3,409.9C381.2,409.8 381.2,409.6 381.1,409.4C380.6,407.9 380.2,406.3 379.9,404.6C379.8,403.7 379.6,402.9 379.5,402.1C379.4,401.3 379.4,400.4 379.4,399.5C384.3,398.3 388.8,396.5 393,394C397.4,391.4 400.9,388.4 404,384.8Z" style="fill:rgb(241,196,17);fill-rule:nonzero;"/>
    <path d="M380.8,379.4C381.6,375.3 382.5,371.4 383.8,368C385,364.6 386.5,361.7 388.1,359.3C389.8,357 391.6,355.6 393.7,355.3C394.2,355.2 394.6,355.2 395.1,355.3C394.7,353.7 394.2,352.4 393.6,351.5C392.8,350.4 391.6,350 390.1,350.3C388,350.7 386.2,352 384.5,354.3C382.8,356.6 381.5,359.5 380.2,363C379,366.5 378,370.3 377.2,374.4C376.4,378.5 375.9,382.6 375.7,386.6C377.2,386.3 378.6,385.9 380,385.3C380.1,383.2 380.4,381.3 380.8,379.4Z" style="fill:rgb(241,196,17);fill-rule:nonzero;"/>
    <path d="M367.5,474.7L364.4,538.6L340.8,542.5L344.4,547.6L368,543.7L371.1,479.8L395,475.9L395.7,463.3L392.1,458.2L391.4,470.8L367.5,474.7Z" style="fill:rgb(241,196,17);fill-rule:nonzero;"/>
    <path d="M399.3,420.4C397.1,422.6 394.5,424.5 391.6,425.7C388.7,427 385.6,427.9 382.2,428.5C377.9,429.2 374.1,429.2 370.5,428.5C370.2,428.5 369.9,428.6 369.6,428.5L368.1,462.1L372,461.4L373.2,433.5L374.1,433.5C377.7,434.2 381.5,434.2 385.8,433.5C389.1,433 392.2,432 395.2,430.7C398.1,429.4 400.7,427.7 402.9,425.4C405.1,423.2 406.9,420.3 408.1,416.8C409.4,413.4 410.1,409.3 410.2,404.4L408.4,402L406.6,399.3C406.5,404.2 405.8,408.3 404.5,411.7C403.2,415.3 401.4,418.2 399.3,420.4Z" style="fill:rgb(241,196,17);fill-rule:nonzero;"/>
    <path d="M461.2,506.9C459.3,509.7 457.2,512.4 454.9,514.9C451.6,518.4 447.9,521.4 443.7,523.8C439.5,526.3 434.7,528 429.2,528.9C421.4,530.2 414.8,529.2 409.5,525.9C408.3,525.2 407.3,524.3 406.3,523.4C408,526.8 410.4,529.3 413.1,531C418.5,534.3 425,535.3 432.8,534C438.2,533.1 443.1,531.4 447.3,528.9C451.5,526.4 455.2,523.5 458.5,520C460.7,517.6 462.7,515.1 464.5,512.5C463.8,511.6 463,510.7 462.5,509.7C462,508.7 461.5,507.7 461.2,506.9Z" style="fill:rgb(241,196,17);fill-rule:nonzero;"/>
    <path d="M427.4,479.5C428.1,475.4 429.1,471.6 430.3,468.2C431.5,464.8 433,462 434.7,459.7C436.4,457.5 438.2,456.1 440.3,455.8C440.8,455.7 441.2,455.7 441.7,455.8C441.3,454.2 440.8,452.9 440.2,452C439.4,450.9 438.2,450.5 436.7,450.8C434.6,451.2 432.8,452.5 431.1,454.7C429.4,456.9 428,459.8 426.7,463.2C425.5,466.6 424.5,470.4 423.8,474.5C423.1,478.6 422.6,482.8 422.4,487C423.9,486.6 425.2,486.2 426.5,485.5C426.8,483.4 427.1,481.4 427.4,479.5Z" style="fill:rgb(241,196,17);fill-rule:nonzero;"/>
    <path d="M555.2,505.2C553.8,506.6 552.4,507.6 551,508.2C549.5,508.8 548.1,509.2 546.6,509.4C540.8,510.3 536.3,509.3 533.2,506.1C534.2,508 535.4,509.7 536.9,511.1C540.1,514.2 544.5,515.3 550.3,514.4C551.8,514.2 553.2,513.7 554.7,513.2C556.2,512.6 557.6,511.6 558.9,510.2C560.2,508.8 561.4,506.9 562.5,504.5C563.6,502.1 564.4,499.1 565,495.4L561.4,490.3C560.7,494 559.9,497 558.9,499.4C557.8,501.9 556.6,503.8 555.3,505.2L555.2,505.2Z" style="fill:rgb(241,196,17);fill-rule:nonzero;"/>
    <path d="M484.7,462.2C483.9,459 483,455.4 482,451.2C481.3,456.9 480.2,462.4 478.7,467.7C477.3,473.1 475.7,478.6 473.8,484.4C475,484.8 476,485.3 476.8,486.1C477.2,486.5 477.6,487 477.9,487.7C479.5,482.6 481,477.6 482.3,472.8C483.4,469.3 484.1,465.8 484.7,462.2Z" style="fill:rgb(241,196,17);fill-rule:nonzero;"/>
    <path d="M526.7,489.7C525.2,491.6 523.7,493.3 522.2,494.9C518.4,498.9 514.8,502.3 511.3,505.1C509.8,507.3 508.2,509.1 506.3,510.6C504.4,512.1 502.4,513.5 500.2,514.7C498,515.9 495.8,516.9 493.6,517.5C491.4,518.2 489.2,518.7 487.1,519.1C483,519.8 479.3,519.8 476.1,519.1C472.9,518.4 470.2,517.1 467.8,515.5C466.9,514.8 466.1,514.2 465.4,513.5C465.6,513.9 465.8,514.2 466,514.6C467.4,517 469.2,519 471.4,520.6C473.7,522.3 476.5,523.4 479.7,524.2C482.9,524.9 486.6,525 490.7,524.2C492.8,523.8 494.9,523.3 497.2,522.6C499.4,521.9 501.6,520.9 503.8,519.8C506,518.6 508,517.3 509.9,515.7C511.8,514.2 513.5,512.3 514.9,510.2C518.4,507.4 522,504 525.8,500C526.5,499.2 527.3,498.4 528,497.5C527.6,496.3 527.3,495 527.1,493.6C526.9,492.3 526.8,491 526.7,489.7Z" style="fill:rgb(241,196,17);fill-rule:nonzero;"/>
    <path d="M473.7,503.8C474.6,503.9 475.4,503.9 476.3,503.8C478.5,503.4 480.1,502.3 481.2,500.4C482.2,498.5 482.6,496.6 482.3,494.6C482.1,493.1 481.5,492.1 480.6,491.3C480,490.8 479.4,490.4 478.6,490C478.8,491.8 478.5,493.6 477.5,495.4C476.5,497.3 474.9,498.4 472.6,498.8C471.7,498.9 470.9,498.9 470,498.8C469.1,498.7 468.4,498.2 467.8,497.4C468.5,501.2 469.7,504 471.5,505.6C471.8,505.8 472.1,506 472.4,506.3C472,505.2 471.7,503.9 471.5,502.5C472.1,503.2 472.8,503.7 473.7,503.8Z" style="fill:rgb(241,196,17);fill-rule:nonzero;"/>
    <path d="M553.3,412.5C553.3,415.8 553,419.3 552.9,423.2L556.7,422.5C556.7,420.8 556.7,419.1 556.9,417.5C556.9,414.2 557.2,411.4 557.3,409C557.3,406.2 557.5,403.6 557.7,401.3L554.1,396.2C553.9,398.4 553.8,401.1 553.7,403.9C553.6,406.4 553.4,409.2 553.3,412.5Z" style="fill:rgb(241,196,17);fill-rule:nonzero;"/>
    <path d="M511.2,467.7C512.2,471.8 513,475 513.7,477.6C514.4,480.1 514.9,482.7 515.4,485.5C515.8,487.9 515.9,490 515.8,491.8C516.8,490.9 517.8,490.1 518.8,489.2C518.4,487 517.9,484.7 517.4,482.6C516.7,480.1 515.9,476.8 514.9,472.7C513.9,468.6 512.7,463.4 511.1,456.9C509.6,450.4 507.7,441.9 505.5,431.4L501.9,426.3C504.1,436.8 506,445.4 507.5,451.8C509,458.4 510.2,463.7 511.2,467.7Z" style="fill:rgb(241,196,17);fill-rule:nonzero;"/>
    <path d="M453.6,468.2C452.2,472.6 450,476.5 447,480.2C444,483.8 440.4,486.9 436.2,489.4C432,491.9 427.4,493.8 422.6,494.9C422.7,496.1 422.8,497.3 422.9,498.4C423,499.5 423.2,500.6 423.3,501.5C424.2,507.1 425.8,510.6 428.1,512.1L428.4,512.1C427.8,510.5 427.4,508.7 427,506.4C426.9,505.4 426.7,504.4 426.6,503.3C426.5,502.2 426.4,501.1 426.3,499.8C431.2,498.6 435.7,496.8 439.9,494.3C444.1,491.8 447.7,488.7 450.7,485.1C453.7,481.5 455.8,477.6 457.3,473.1C458.7,468.7 459,464.3 458.2,459.6C457.8,457.5 457.3,455.6 456.5,453.8C455.8,452.1 454.6,450.8 453.2,449.5C453.9,451 454.3,452.7 454.6,454.4C455.2,459.2 454.9,463.7 453.6,468.1L453.6,468.2Z" style="fill:rgb(241,196,17);fill-rule:nonzero;"/>
    <path d="M523.6,434.7L527.2,439.8L528.7,439.5L529,433.8L523.6,434.7Z" style="fill:rgb(241,196,17);fill-rule:nonzero;"/>
    <path d="M556.3,435L566.2,433.4L566.4,426.7L562.8,421.6L562.6,428.3L552.7,429.9L550.3,480.8C550.1,483 550.3,485 550.3,486.7C550.6,488.4 551.2,489.8 552.3,490.8C552.7,491.2 553.3,491.5 554,491.7C553.8,490.1 553.7,488.1 554,486L556.3,435Z" style="fill:rgb(241,196,17);fill-rule:nonzero;"/>
    <path d="M406.4,349.4C407.3,350.2 408.2,351.1 408.9,352.1L404.7,346.2C405.3,346.9 405.8,347.7 406.2,348.6C406.3,348.8 406.4,349.1 406.4,349.4Z" style="fill:rgb(241,196,17);fill-rule:nonzero;"/>
    <path d="M406.4,349.4C407.1,350.9 407.5,352.6 407.8,354.3C407.9,355 408,355.5 408,356.2L408.1,356.2L408.8,352.1C408.2,351 407.4,350.2 406.4,349.4Z" style="fill:rgb(241,196,17);fill-rule:nonzero;"/>
    <path d="M488.4,408.9C487.8,373.8 477.8,340.2 459.6,311.1C452,298.9 442.9,287.5 432.6,277.1C396.6,241.1 348.6,221.2 297.7,221.2C246.8,221.2 198.8,241.1 162.8,277.1C126.8,313.1 137.9,306 128.9,322.8L128.6,323.4C128.6,323.5 140.6,321.6 140.6,321.6L140.7,321.6C173.1,265.5 233.4,230.7 297.8,230.7C362.2,230.7 404.1,256.4 437.5,296.7C463.2,327.7 478.8,367.3 479.3,410.4L479.3,410.8L488.8,409.3L488.4,408.9Z" style="fill:rgb(236,240,241);fill-rule:nonzero;"/>
    <path d="M437.5,541.9L421.6,544.4L421.5,544.4C387.7,576.1 343.7,593.6 297.6,593.6C251.5,593.6 180,562.6 146.6,512.7C141.3,504.7 136.5,496.3 132.5,487.5L132.5,487.3C132.4,487.3 132.4,487.2 132.4,487.2L122.7,488.7L122.9,489.1C130.3,505.8 139.9,521.2 151.8,535.2C155.3,539.3 158.9,543.2 162.7,547.1C198.7,583.1 246.7,603 297.6,603C348.5,603 396.5,583.1 432.5,547.1C468.5,511.1 435.1,544.4 436.8,542.7L437.5,541.9Z" style="fill:rgb(236,240,241);fill-rule:nonzero;"/>
    <path d="M32.2,433.4L35.8,438.4C35.2,437.6 34.9,436.7 34.5,435.6C33.6,435 32.8,434.3 32.2,433.4Z" style="fill:rgb(241,196,17);fill-rule:nonzero;"/>
    <path d="M36.2,439C36.2,438.9 36.1,438.9 36.2,439Z" style="fill:rgb(236,240,241);fill-rule:nonzero;"/>
    <path d="M34.7,435.7L34.7,435.6C35,436.7 35.4,437.6 36,438.4L36.4,439L36.6,436.5C35.9,436.2 35.3,436 34.8,435.7L34.7,435.7Z" style="fill:rgb(241,196,17);fill-rule:nonzero;"/>
    <path d="M450.4,454.5L455.6,452.5L451.6,446.9L450.4,446.9L450.4,454.5Z" style="fill:rgb(241,196,17);fill-rule:nonzero;"/>
    <path d="M481.3,492L477.2,492.8L477.2,488.3L478.1,487.7L481.3,492Z" style="fill:rgb(241,196,17);fill-rule:nonzero;"/>
    <path d="M407.9,526.1L403.9,520.4L401.6,515.8L413.6,515.8L407.9,526.1Z" style="fill:rgb(241,196,17);fill-rule:nonzero;"/>
    <path d="M344.3,358L347.9,359.1L351,360.3L347.1,354.8L344.3,358Z" style="fill:rgb(241,196,17);fill-rule:nonzero;"/>
    <path d="M538.8,509.6L535,509.2L530.6,503.1L535.6,504.8L538.8,509.6Z" style="fill:rgb(241,196,17);fill-rule:nonzero;"/>
    <path d="M124.8,344.2L131.7,344.9C129.6,344.4 127.3,344.1 124.8,344.2Z" style="fill:rgb(236,240,241);fill-rule:nonzero;"/>
    <path d="M202.2,433.5C202,433.3 201.8,433.1 201.5,433L203,434.5C202.7,434.1 202.5,433.8 202.2,433.5Z" style="fill:rgb(236,240,241);fill-rule:nonzero;"/>
    <path d="M295.1,438.1C294.7,438.6 294.4,439.1 294.1,439.6L295,439.6L295,438.1L295.1,438.1Z" style="fill:rgb(236,240,241);fill-rule:nonzero;"/>
    <path d="M332.5,370.6C333,371.6 333.7,372.6 334.6,373.4C334.8,373.6 335,373.8 335.3,373.9C335,373.2 334.6,372.5 334.4,371.9C334.1,371.1 333.4,370.6 332.5,370.6Z" style="fill:rgb(236,240,241);fill-rule:nonzero;"/>
    <g>
        <path d="M124.7,344.2C122.3,344.3 120.3,344.4 118.8,344.7C113.9,345.5 109.1,347.6 104.5,351C99.9,354.4 95.5,358.7 91.3,363.9C87.1,369.1 83.2,375.1 79.5,381.7C75.8,388.3 72.5,395.2 69.3,402.4C65.7,402.6 62.8,403 60.4,403.3C55.7,404.1 51.4,405.3 47.6,407C43.8,408.7 40.5,410.8 37.8,413.1C35.2,415.4 33.2,418 31.9,420.7C30.6,423.5 30.2,426.2 30.7,428.9C31,430.6 31.6,432.1 32.4,433.3C33,434.2 33.8,434.9 34.7,435.5L34.7,435.6C35.3,435.9 35.9,436.2 36.4,436.4C38.2,437 40.1,437.1 42.3,436.8C44.8,436.4 46.9,435.4 48.5,434C50.1,432.5 50.7,430.9 50.5,428.9C50.3,427.7 49.8,426.6 49.2,425.6C48.5,424.6 48,424.1 47.5,424.2C48.2,421.2 50,418.8 53.1,417C56.1,415.2 60.3,413.7 65.4,412.6C64.5,414.8 63.7,417.1 62.9,419.4C61.3,424 59.9,428.6 58.6,433.2C56.7,440.1 55.2,446.6 54,452.9C52.8,459.2 52.1,464.8 51.8,470C51.5,475.2 51.8,479.7 52.2,483.4C52.8,487 53.8,489.9 55.2,492L55.2,492.1C55.4,492.5 55.6,492.8 55.9,493C57.8,495.1 59.9,496.6 62.3,497.3C64.7,498 67.2,498.3 69.8,498.1C72.4,497.9 74.8,497.6 77,497.2C76.3,496.5 75.6,495.6 74.9,494.4C74.2,493.2 73.6,491 73,487.8C72.3,483.7 72.1,478.6 72.2,472.7C72.3,466.8 72.8,460.4 73.6,453.5C74.4,446.6 75.5,439.4 76.9,432C78.4,424.5 80.1,417.2 82,410C85.7,409.7 89.3,409.8 92.9,410.1C96.5,410.4 100.5,411.1 105,412.3L104.8,416.4L102.2,473.8L125.8,469.9L131.6,345L124.6,344.2L124.7,344.2ZM84.3,402.2C87.3,392.3 90.9,383.4 94.8,375.5C98.7,367.6 102.9,362 107.4,358.5L107,367.3L105.3,404.5C101.9,403.7 98.4,403.1 94.9,402.8C93.1,402.6 91.3,402.4 89.5,402.4C87.8,402.2 86.1,402.2 84.3,402.2Z" style="fill:rgb(236,240,241);fill-rule:nonzero;"/>
        <path d="M203.3,434.7L203.3,434.5C203.2,434.4 203.1,434.4 203.1,434.4L201.6,432.9C200.3,432 198.6,431.7 196.5,432.1C193.5,432.6 191.3,433.8 190,435.7C188.7,437.5 188.3,439.3 188.5,440.8C188.6,441.7 189,442.4 189.6,443C190.2,443.6 191.1,443.8 192.1,443.7L192.1,444.3C191.9,445.4 191.2,446.2 190.1,446.8C188.7,447.5 187,448 185,448.3C182.8,448.7 180.5,448.9 178.1,449L178,449C175.6,449.1 173.7,449.2 172.3,449.4L200.9,373.3L158.8,380.3C155.8,380.8 153.3,381.8 151.1,383.3C148.9,384.8 147.2,386.5 145.8,388.4C144.4,390.3 143.5,392.3 142.9,394.4C142.3,396.5 142.2,398.4 142.5,400.1C142.7,401.6 143.2,402.7 144,403.7C144.5,404.3 145.1,404.8 145.8,405.2C147.6,406.1 149.4,406.4 151.2,406.1C153.4,405.7 155.3,404.7 156.9,403.1C158.5,401.5 159.1,399 158.6,396C158.5,395 158.2,394.3 158,394C157.8,393.6 157.5,393.4 157.2,393.3C156.9,393.2 156.7,393.1 156.5,393.1C156.3,393.1 156.2,393 156.2,392.7C156,391.5 156.8,390.6 158.4,390C160.1,389.4 162.2,388.9 164.7,388.5L173.9,387L171.7,393L144.2,467L187.6,459.8C190.8,459.3 193.5,458.3 195.8,456.8C198,455.3 199.9,453.5 201.4,451.5C202.9,449.5 203.9,447.4 204.4,445.1C204.9,442.9 205.1,440.8 204.8,439C204.6,437.2 204,435.9 203.3,434.7Z" style="fill:rgb(236,240,241);fill-rule:nonzero;"/>
        <path d="M349.4,360.5C349.2,359.3 348.9,358.3 348.5,357.3C347.8,355.5 346.6,353.8 345.1,352.4C342.8,350.2 339.7,349.4 336,350C332.7,350.5 329.5,352.2 326.4,354.9C324.9,356.3 323.4,357.7 322,359.3C320.5,360.9 319.2,362.6 317.8,364.4L318.4,353.7L294.8,357.6L292.3,412.2C291.8,416.5 290.6,420.2 288.9,423.3C287.1,426.4 284.6,428.2 281.4,428.7C279.7,429 278.4,429 277.3,428.7C276.9,428.6 276.5,428.4 276.1,428.3C274.9,427.6 274.1,426.1 273.7,423.8C273.4,422.1 273.3,420.4 273.5,418.4L276.1,360.7L252.5,364.6L250,419.1C249.5,423.5 248.3,427.1 246.6,430.3C244.9,433.5 242.4,435.2 239.3,435.7C238.4,435.8 237.7,435.8 237.1,435.6C236.3,435.4 235.6,434.9 235.1,434.3C234.2,433.1 233.6,431.5 233.2,429.7C233,428.2 232.9,426.7 232.9,425.1L235.5,367.4L211.9,371.3L209.4,425.8C209.2,430.1 209.3,433.7 209.8,436.7C210.7,442.6 212.8,446.9 215.7,449.5C216.2,450 216.8,450.4 217.4,450.8C221.3,453.3 225.7,454.2 230.7,453.4C232.4,453.1 234.3,452.6 236.2,451.9C238.1,451.2 240,450.1 241.9,448.7C243.8,447.2 245.7,445.4 247.4,443C249.2,440.6 250.9,437.6 252.4,433.9C253.1,436.5 254.1,438.8 255.3,440.6C256,441.6 256.8,442.6 257.6,443.4C258.4,444.2 258.7,444.3 259.3,444.8C262.5,447 266.5,447.6 271.2,446.9C273.4,446.5 275.8,445.8 278.6,444.7C281.4,443.6 284,441.7 286.6,439C288.2,437.4 289.8,435.4 291.2,433.1L290.8,442.6L314.4,438.7L317.2,374.2C319.1,371.9 320.8,369.9 322.5,368.5C324.2,367 326.1,366 328.1,365.7C329.3,365.5 330.1,365.9 330.6,367C331,368 331.5,369.2 332.1,370.4C332.2,370.5 332.2,370.7 332.3,370.8C333.2,370.8 333.9,371.2 334.3,372.1C334.6,372.8 334.9,373.5 335.2,374.1C336.2,374.6 337.6,374.8 339.4,374.5C341.4,374.2 343,373.6 344.4,372.6C345.8,371.7 346.9,370.5 347.7,369.2C348.5,367.9 349,366.5 349.3,365C349.6,363.3 349.7,361.8 349.4,360.5Z" style="fill:rgb(236,240,241);fill-rule:nonzero;"/>
    </g>
    <path d="M400.3,379.8C403.3,376.2 405.4,372.3 406.9,367.9C408.1,364.1 408.5,360.3 408.1,356.2C408,355.5 408,355 407.9,354.3C407.6,352.6 407.2,350.9 406.5,349.4C406.4,349.1 406.3,348.8 406.1,348.6C405.7,347.7 405.2,346.9 404.6,346.2C404,345.4 403.3,344.7 402.4,344C400.8,342.8 398.7,341.9 396.2,341.4C393.7,340.9 390.7,341 387.1,341.5C381.5,342.4 376.7,344.3 372.7,346.9C368.6,349.6 365.2,352.8 362.5,356.7C359.7,360.5 357.6,364.7 356,369.2C354.4,373.7 353.2,378.2 352.6,382.7C351.9,387.2 351.6,391.5 351.7,395.7C351.7,399.8 352,403.5 352.5,406.7C352.9,409.5 353.6,412 354.4,414.2C348.1,415.7 342.6,417.8 337.9,420.4C331.6,424 326.5,428 322.8,432.7C321.1,434.8 319.7,437 318.5,439.2C317.6,440.8 316.9,442.5 316.3,444.2C315.9,445.4 315.5,446.6 315.2,447.8C313.9,453.2 313.7,458.5 314.6,463.8C315.2,467.2 316.1,469.9 317.3,472.1C318.3,473.9 319.5,475.2 321.1,476.1C324.4,478.1 328.9,478.5 334.8,477.6C334.5,477.2 334.1,476.7 333.8,476.2C333.5,475.7 333.1,475 332.7,474.1C332.3,473.2 332,472.1 331.5,470.7C331.1,469.3 330.7,467.5 330.3,465.3C329.3,459.1 329,453.8 329.4,449.6C329.8,445.3 330.8,441.8 332.3,439C333.8,436.2 335.8,434.1 338.2,432.5C340.7,431 343.3,429.9 346.2,429.3L345.9,435.5L340.5,542.7L364.1,538.8L367.2,474.9L391.1,470.9L391.8,458.4L371.7,461.7L367.8,462.4L369.3,428.8L370.2,428.8C373.8,429.5 377.6,429.5 381.9,428.8C385.2,428.3 388.3,427.3 391.3,426C394.2,424.7 396.8,423 399,420.7C401.2,418.5 403,415.6 404.2,412.1C405.5,408.7 406.2,404.6 406.3,399.7C404.1,402.5 401.4,405 398.1,407.3C394.8,409.6 391.6,411.1 388.5,411.6C386.5,412 384.7,411.8 383.3,411.3C382.6,411 381.8,410.6 381.2,410.1C380.6,409.7 380.1,409.2 379.7,408.6C378.8,407.4 378,406.1 377.5,404.5C377,403 376.6,401.4 376.3,399.7C376.2,398.8 376,398 375.9,397.2C375.8,396.4 375.8,395.5 375.8,394.6C380.7,393.4 385.2,391.6 389.4,389.1C393.7,386.4 397.3,383.3 400.3,379.8ZM384.3,382.5C382.9,383.6 381.4,384.5 379.9,385.1C378.5,385.7 377.1,386.1 375.6,386.4C375.8,382.4 376.3,378.4 377.1,374.2C377.9,370.1 378.8,366.2 380.1,362.8C381.3,359.4 382.8,356.5 384.4,354.1C386.1,351.8 387.9,350.4 390,350.1C391.5,349.9 392.7,350.2 393.5,351.3C394.2,352.2 394.7,353.5 395,355.1C395.1,355.4 395.1,355.8 395.2,356C395.8,359.4 395.6,362.7 394.8,366C394,369.3 392.7,372.4 390.9,375.1C389.2,378.1 386.9,380.5 384.3,382.5Z" style="fill:rgb(236,240,241);fill-rule:nonzero;"/>
    <path d="M552.7,429.9L562.6,428.3L562.8,421.6L556.8,422.6L553,423.3C553,419.5 553.3,415.9 553.4,412.6C553.5,409.3 553.7,406.5 553.8,404.1C553.8,401.3 554,398.7 554.2,396.4L530.5,403.7L529.3,427.1L523.9,428L523.7,434.7L529.1,433.8L528.8,439.5L526.8,481.5L526.1,481.5C524.1,484.1 521.6,486.6 518.6,489.1C517.7,490 516.6,490.8 515.6,491.7C515.6,489.9 515.6,487.8 515.2,485.4C514.8,482.6 514.2,480 513.5,477.5C512.8,475 512,471.7 511,467.6C510,463.5 508.8,458.3 507.2,451.8C505.7,445.3 503.8,436.8 501.6,426.3L477.9,433.6C476.7,442.1 475.2,450.6 473.4,459.2C471.6,467.8 469,476.5 465.8,485.4C463.7,486.9 462,489.1 460.7,492C459.9,493.8 459.5,495.8 459.4,498C459,498.4 458.7,498.9 458.4,499.4C456.7,501.8 454.8,503.9 452.7,505.7C450.7,507.6 448.3,509.1 445.9,510.4C443.4,511.7 440.5,512.6 437.3,513.2C433.5,513.9 430.5,513.5 428.2,512.1L427.9,512.1C425.7,510.6 424.1,507.1 423.1,501.5C423,500.5 422.8,499.5 422.7,498.4C422.6,497.3 422.5,496.2 422.4,494.9C427.3,493.7 431.8,491.9 436,489.4C440.2,486.9 443.8,483.8 446.8,480.2C449.8,476.6 451.9,472.7 453.4,468.2C454.8,463.8 455.1,459.4 454.3,454.7C454,453 453.6,451.3 452.9,449.8C452.8,449.5 452.7,449.2 452.5,449C451.7,447.3 450.5,445.7 448.9,444.4C447.3,443.2 445.2,442.3 442.7,441.8C440.2,441.3 437.2,441.4 433.6,441.9C428,442.8 423.2,444.7 419.2,447.3C415.1,450 411.7,453.2 409,457.1C406.2,460.9 404.1,465.1 402.5,469.6C400.9,474.1 399.7,478.6 399.1,483.1C398.4,487.6 398.1,491.9 398.2,496.1C398.2,500.2 398.5,503.9 399,507.1C400.2,514.4 402.6,519.8 406.1,523.3C409.6,526.8 408.1,525.2 409.3,525.8C414.7,529.1 421.2,530.1 429,528.8C434.4,527.9 439.3,526.2 443.5,523.7C447.7,521.2 451.4,518.3 454.7,514.8C457,512.3 459.1,509.7 461,506.8C461.4,507.7 461.8,508.6 462.3,509.5C462.9,510.5 463.5,511.5 464.3,512.3C464.7,512.7 465,513 465.3,513.4C466,514.1 466.8,514.9 467.7,515.4C470,517.1 472.8,518.2 476,519C479.2,519.7 482.9,519.8 487,519C489.1,518.6 491.2,518.1 493.5,517.4C495.7,516.7 497.9,515.7 500.1,514.6C502.3,513.4 504.3,512.1 506.2,510.5C508.1,509 509.8,507.1 511.2,505C514.7,502.2 518.3,498.8 522.1,494.8C523.6,493.2 525.1,491.5 526.6,489.6C526.6,490.9 526.8,492.2 527,493.5C527.2,494.9 527.5,496.2 527.9,497.4C529,500.8 530.7,503.6 532.9,506C536.1,509.2 540.5,510.3 546.3,509.4C547.8,509.2 549.2,508.7 550.7,508.2C552.2,507.6 553.6,506.6 554.9,505.2C556.2,503.8 557.4,501.9 558.5,499.5C559.6,497.1 560.4,494.1 561,490.4C560.3,490.8 559.7,491 558.8,491.2C558,491.4 557.3,491.6 556.8,491.6C555.6,491.8 554.6,491.8 553.7,491.6C553,491.5 552.5,491.2 552,490.7C551,489.8 550.3,488.4 550,486.6C549.7,484.9 549.7,483 550,480.7L552.7,429.9ZM423.8,474.4C424.5,470.3 425.5,466.5 426.7,463.1C427.9,459.7 429.4,456.9 431.1,454.6C432.8,452.4 434.6,451 436.7,450.7C438.2,450.5 439.4,450.8 440.2,451.9C440.9,452.8 441.4,454.1 441.7,455.7C441.8,456 441.8,456.4 441.9,456.6C442.4,459.9 442.3,463.1 441.6,466.5C440.9,469.8 439.6,472.8 437.8,475.6C436,478.4 433.8,480.7 431.1,482.7C429.6,483.8 428.2,484.7 426.6,485.4C425.3,486 423.8,486.5 422.5,486.9C422.6,482.7 423.1,478.5 423.8,474.4ZM491.6,496.9C491.1,499 490.3,500.7 489.2,502.2C488.1,503.7 486.7,504.7 485,505.5C483.3,506.3 481.6,506.8 479.9,507.1C476.8,507.6 474.4,507.3 472.6,506.2C472.3,506 472,505.8 471.7,505.5C469.9,503.8 468.6,501.1 468,497.3C468.6,498.1 469.3,498.6 470.2,498.7C471.1,498.8 471.9,498.8 472.8,498.7C475,498.3 476.6,497.2 477.7,495.3C478.6,493.6 479,491.7 478.8,489.9C478.8,489.8 478.8,489.6 478.7,489.5C478.6,488.8 478.4,488.3 478.2,487.7C477.9,487.1 477.5,486.5 477.1,486.1C476.2,485.3 475.2,484.7 474.1,484.4C476,478.7 477.6,473.2 479,467.7C480.4,462.3 481.5,456.8 482.3,451.2C483.3,455.4 484.2,459 485,462.2C485.4,463.8 485.8,465.2 486.1,466.6C487.1,470.6 488.1,473.9 488.8,476.6C489.5,479.3 490.1,481.6 490.6,483.6C491.1,485.6 491.5,487.5 491.8,489.6C492.1,492.4 492.1,494.8 491.6,496.9Z" style="fill:rgb(236,240,241);fill-rule:nonzero;"/>
    <g transform="matrix(0.523782,0,0,0.523782,39.1008,546.019)">
        <g>
            <path d="M363.7,203.7C364.5,203.7 365.3,203.3 365.7,202.5C366.2,201.4 365.8,200.1 364.7,199.6L267.7,150.4L360.7,92.6C361.7,92 362,90.6 361.4,89.6C360.8,88.6 359.4,88.3 358.4,88.9L262.1,148.7C261.4,149.1 261,149.9 261.1,150.6C261.1,151.4 261.6,152.1 262.3,152.5L362.7,203.5C363,203.7 363.3,203.7 363.7,203.7Z" style="fill:white;fill-rule:nonzero;"/>
            <path d="M354.9,85.8L354.9,209.8C354.9,209.8 502.1,164.5 669.6,226.9C837.1,289.3 970.3,210.4 970.3,210.4L920.8,177.3L965.5,99C965.5,99 837.5,144 733.1,112.4C656.6,89.1 469.8,17.1 354.9,85.8Z" style="fill:rgb(52,152,219);fill-rule:nonzero;"/>
            <path d="M669.6,217.1C684.971,222.825 700.052,227.361 714.767,230.877C837.05,260.095 934.073,218.914 962.1,204.9L970.3,210.4C970.3,210.4 837.1,289.3 669.6,226.9C502.1,164.5 354.9,209.8 354.9,209.8L354.9,200C354.9,199.923 443.058,172.835 560.559,189.51C594.89,194.382 631.726,202.991 669.6,217.1Z" style="fill:rgb(41,128,185);fill-rule:nonzero;"/>
            <g transform="matrix(1.90919,0,0,1.90919,-322.672,-201.369)">
                <g transform="matrix(0.991841,-0.127479,0.127479,0.991841,-20.8298,49.572)">
                    <text x="376.862px" y="187.517px" style="font-family:'LobsterTwo', 'Lobster Two';font-size:34px;fill:white;">S</text>
                </g>
                <g transform="matrix(0.997537,-0.0701439,0.0701439,0.997537,-12.0338,28.0595)">
                    <text x="393.518px" y="185.377px" style="font-family:'LobsterTwo', 'Lobster Two';font-size:34px;fill:white;">e</text>
                </g>
                <g transform="matrix(0.999598,-0.0283453,0.0283453,0.999598,-5.06451,11.5817)">
                    <text x="405.979px" y="184.427px" style="font-family:'LobsterTwo', 'Lobster Two';font-size:34px;fill:white;">p</text>
                </g>
                <g transform="matrix(0.999912,0.0132848,-0.0132848,0.999912,2.48197,-5.56784)">
                    <text x="420.337px" y="184.036px" style="font-family:'LobsterTwo', 'Lobster Two';font-size:34px;fill:white;">t</text>
                </g>
                <g transform="matrix(0.998771,0.049567,-0.049567,0.998771,9.64877,-21.008)">
                    <text x="428.394px" y="184.038px" style="font-family:'LobsterTwo', 'Lobster Two';font-size:34px;fill:white;">e</text>
                </g>
                <g transform="matrix(0.993613,0.112839,-0.112839,0.993613,23.6183,-48.5761)">
                    <text x="440.924px" y="184.352px" style="font-family:'LobsterTwo', 'Lobster Two';font-size:34px;fill:white;">m</text>
                </g>
                <g transform="matrix(0.98479,0.173751,-0.173751,0.98479,39.566,-77.8332)">
                    <text x="464.334px" y="187.068px" style="font-family:'LobsterTwo', 'Lobster Two';font-size:34px;fill:white;">b</text>
                </g>
                <g transform="matrix(0.974225,0.225578,-0.225578,0.974225,55.0727,-103.014)">
                    <text x="478.317px" y="189.487px" style="font-family:'LobsterTwo', 'Lobster Two';font-size:34px;fill:white;">e</text>
                </g>
                <g transform="matrix(0.964652,0.263527,-0.263527,0.964652,68.0057,-122.465)">
                    <text x="490.503px" y="192.266px" style="font-family:'LobsterTwo', 'Lobster Two';font-size:34px;fill:white;">r</text>
                </g>
                <g transform="matrix(0.946776,0.321894,-0.321894,0.946776,90.6264,-153.187)">
                    <text x="508.542px" y="197.455px" style="font-family:'LobsterTwo', 'Lobster Two';font-size:34px;fill:white;">1</text>
                </g>
                <g transform="matrix(0.94742,0.319992,-0.319992,0.94742,91.5777,-155.299)">
                    <text x="518.351px" y="201.015px" style="font-family:'LobsterTwo', 'Lobster Two';font-size:34px;fill:white;">7</text>
                </g>
                <g transform="matrix(0.966163,0.257933,-0.257933,0.966163,71.1229,-130.467)">
                    <text x="532.821px" y="205.843px" style="font-family:'LobsterTwo', 'Lobster Two';font-size:34px;fill:white;">t</text>
                </g>
                <g transform="matrix(0.979294,0.202445,-0.202445,0.979294,53.3213,-105.12)">
                    <g transform="matrix(34,0,0,34,540.537,208.099)">
                        <path d="M0.146,-0.7L0.146,-0.424C0.156,-0.442 0.166,-0.456 0.177,-0.468C0.187,-0.478 0.197,-0.487 0.208,-0.492C0.219,-0.497 0.229,-0.501 0.239,-0.503C0.248,-0.504 0.257,-0.505 0.266,-0.505C0.296,-0.505 0.32,-0.499 0.339,-0.488C0.357,-0.477 0.371,-0.462 0.38,-0.445C0.389,-0.427 0.396,-0.407 0.399,-0.386C0.402,-0.365 0.403,-0.344 0.403,-0.324C0.403,-0.302 0.402,-0.275 0.401,-0.244C0.399,-0.213 0.398,-0.182 0.398,-0.153C0.398,-0.146 0.398,-0.138 0.399,-0.129C0.4,-0.12 0.402,-0.111 0.405,-0.102C0.408,-0.093 0.413,-0.086 0.42,-0.08C0.427,-0.073 0.436,-0.07 0.449,-0.07C0.454,-0.07 0.459,-0.071 0.466,-0.072C0.473,-0.073 0.478,-0.075 0.481,-0.078L0.481,-0.071C0.481,-0.053 0.479,-0.039 0.474,-0.029C0.469,-0.019 0.464,-0.011 0.457,-0.006C0.45,-0.001 0.443,0.003 0.435,0.004C0.427,0.005 0.42,0.006 0.414,0.006C0.393,0.006 0.376,0.002 0.361,-0.007C0.346,-0.015 0.334,-0.026 0.325,-0.04C0.315,-0.054 0.308,-0.07 0.304,-0.089C0.299,-0.107 0.297,-0.126 0.297,-0.147C0.297,-0.153 0.297,-0.164 0.298,-0.181C0.298,-0.197 0.299,-0.269 0.3,-0.286C0.3,-0.303 0.3,-0.314 0.3,-0.321C0.3,-0.342 0.298,-0.36 0.295,-0.374C0.292,-0.388 0.287,-0.399 0.281,-0.407C0.275,-0.415 0.268,-0.421 0.261,-0.424C0.253,-0.427 0.245,-0.429 0.236,-0.429C0.215,-0.429 0.198,-0.421 0.183,-0.404C0.167,-0.387 0.155,-0.359 0.146,-0.32L0.146,-0L0.046,-0L0.046,-0.686L0.146,-0.7Z" style="fill:white;fill-rule:nonzero;"/>
                    </g>
                </g>
                <g transform="matrix(0.989144,0.14695,-0.14695,0.989144,37.0941,-79.496)">
                    <text x="556.585px" y="211.309px" style="font-family:'LobsterTwo', 'Lobster Two';font-size:34px;fill:white;">,</text>
                </g>
                <g transform="matrix(0.998941,0.0460123,-0.0460123,0.998941,10.4216,-26.0525)">
                    <text x="571.119px" y="213.349px" style="font-family:'LobsterTwo', 'Lobster Two';font-size:34px;fill:white;">2</text>
                </g>
                <g transform="matrix(0.998841,-0.0481281,0.0481281,0.998841,-9.6278,28.5604)">
                    <text x="588.267px" y="214.21px" style="font-family:'LobsterTwo', 'Lobster Two';font-size:34px;fill:white;">0</text>
                </g>
                <g transform="matrix(0.989818,-0.142335,0.142335,0.989818,-24.1506,88.7458)">
                    <text x="608.249px" y="213.183px" style="font-family:'LobsterTwo', 'Lobster Two';font-size:34px;fill:white;">2</text>
                </g>
                <g transform="matrix(0.97411,-0.226076,0.226076,0.97411,-31.4541,146.815)">
                    <text x="625.274px" y="210.738px" style="font-family:'LobsterTwo', 'Lobster Two';font-size:34px;fill:white;">5</text>
                </g>
            </g>
            <g id="Laag_3">
                <path d="M28.9,136.1L27.4,160.1C27.3,161.5 28.4,162.8 29.8,162.9C54.7,165.2 252.1,182 265.8,151.7L28.9,136.1Z" style="fill:rgb(236,240,241);fill-rule:nonzero;"/>
                <path d="M28.9,136.3L30.5,112C30.6,110.7 31.7,109.8 32.9,109.8C56.5,110.8 256.1,119.9 265.7,151.9L28.9,136.3Z" style="fill:rgb(189,195,199);fill-rule:nonzero;"/>
                <g>
                    <path d="M39.1,136.8L28.9,136.1L27.3,160.8C27.2,161.9 28,162.8 29.1,162.9C30.8,163.1 33.6,163.3 37.3,163.6L39.1,136.8Z" style="fill:rgb(231,76,60);fill-rule:nonzero;"/>
                    <path d="M40.8,110.1C37.1,109.9 34.3,109.8 32.6,109.7C31.5,109.7 30.6,110.5 30.5,111.6L28.9,136.3L39.1,137L40.8,110.1Z" style="fill:rgb(192,57,43);fill-rule:nonzero;"/>
                </g>
                <g>
                    <path d="M0,134.2C0.2,138 9.7,142.8 12.3,144.3C15.4,146.1 22.2,150 24.6,145.3C25.1,144.4 26,139.6 25.7,135.9L0,134.2Z" style="fill:rgb(195,130,0);fill-rule:nonzero;"/>
                    <path d="M0,134.2C0.2,138 9.7,142.8 12.3,144.3C15.4,146.1 22.2,150 24.6,145.3C25.1,144.4 26,139.6 25.7,135.9L0,134.2Z" style="fill:rgb(231,76,60);fill-rule:nonzero;"/>
                    <path d="M0,134.4C0.7,130.6 10.8,127.1 13.5,126C16.8,124.6 24.1,121.7 25.8,126.6C26.1,127.6 26.5,132.4 25.7,136.1L0,134.4Z" style="fill:rgb(192,57,43);fill-rule:nonzero;"/>
                </g>
                <path d="M133.7,123.9C144.3,124.6 152.3,133.7 151.6,144.3C150.9,154.9 141.8,162.9 131.2,162.2C120.6,161.5 112.6,152.4 113.3,141.8C114,131.2 123.1,123.2 133.7,123.9Z" style="fill:rgb(44,62,80);fill-rule:nonzero;"/>
                <g>
                    <path d="M18.7,144.4L18.4,215C18.4,216.7 17,218 15.3,217.9L11.1,217.6C7,217.3 4,213.7 4.5,209.6L12.9,143.9C13.1,142.4 14.4,141.3 16,141.4C17.5,141.5 18.7,142.8 18.7,144.4Z" style="fill:rgb(231,76,60);fill-rule:nonzero;"/>
                    <path d="M19.5,130.7L28.7,57.9C29,55.6 27.3,53.5 24.9,53.3L19.4,53C16.7,52.8 14.4,54.9 14.4,57.6L14,130.3L19.5,130.7Z" style="fill:rgb(192,57,43);fill-rule:nonzero;"/>
                </g>
                <path d="M122.5,1.9C129,2.3 133.9,7.9 133.5,14.4L116.6,270.7C116.2,277.2 110.6,282.1 104.1,281.7L76,279.8C69.5,279.4 64.6,273.8 65,267.3L81.9,11C82.3,4.5 87.9,-0.4 94.4,0L122.5,1.9Z" style="fill:rgb(231,76,60);fill-rule:nonzero;"/>
                <g>
                    <g transform="matrix(0.0657007,-0.9978,0.9978,0.0657007,70.2819,162.788)">
                        <rect x="99.4" y="34.5" width="45.4" height="18.8" style="fill:rgb(231,76,60);"/>
                    </g>
                    <g transform="matrix(0.0657007,-0.9978,0.9978,0.0657007,-137.489,333.193)">
                        <rect x="86.5" y="230.6" width="45.4" height="18.8" style="fill:rgb(231,76,60);"/>
                    </g>
                </g>
                <g>
                    <path d="M237.6,92.1C243.1,92.5 247.3,97.2 246.9,102.8L240.6,198.1C240.2,203.6 235.5,207.8 229.9,207.4L209.2,206C203.7,205.6 199.5,200.9 199.9,195.3L206.2,100C206.6,94.5 211.3,90.3 216.9,90.7L237.6,92.1Z" style="fill:rgb(192,57,43);fill-rule:nonzero;"/>
                    <path d="M207.5,147.8C207.4,149.5 212.5,151.2 218.9,151.6L262.6,154.5C269,154.9 274.3,153.9 274.4,152.2C274.5,150.5 269.4,148.8 263,148.4L219.3,145.5C212.9,145.1 207.6,146.1 207.5,147.8Z" style="fill:rgb(231,76,60);fill-rule:nonzero;"/>
                </g>
            </g>
        </g>
    </g>
</svg>
