<svg id="Calque_1" data-name="Calque 1" xmlns="http://www.w3.org/2000/svg" viewBox="0 0 989.95 125.86"><defs><style>.cls-1{fill:#ef7d00;}.cls-2{fill:#1d1d1b;}.cls-3{fill:#d5121e;}</style></defs><path class="cls-1" d="M609.79,110.43c-.82.54-1.81,1.16-2.71,1.68l-.27.15.27,0c17.67,4.85,35.17,4.67,38.53-6.36,4.34-14.23-23.77-29.5-37-36.78-2.84-1.56-4.08-.59-2.26,1.5,8.37,9.64,20.31,28.62,3.48,39.77" transform="translate(-71.48 -7.93)"/><path class="cls-2" d="M762.14,48H747.25V35.53h14.89V17h14.44V35.53h23.74V48H776.58V85.55c0,9.4,2.61,14.32,14.64,14.32A46.3,46.3,0,0,0,801,98.55v13a94.67,94.67,0,0,1-14.35,1.09c-22.74,0-24.5-16.39-24.5-25.38V48" transform="translate(-71.48 -7.93)"/><rect class="cls-2" x="882.42" y="27.53" width="14.79" height="77.35"/><path class="cls-2" d="M994.8,73.56c0,21.07,17.35,26.32,25.58,26.32,15.7,0,26.78-8.87,26.78-26.62s-12.59-25.88-26.93-25.88c-8.13,0-25.43,4.78-25.43,26.18m-15-.15c0-29.09,23.51-39,39.85-39,18.55,0,27.54,10.64,27.54,10.64l.77-9.62h13.5V113H1047.9l-.74-10.24S1037.91,113,1019.45,113,979.77,102.21,979.77,73.41Z" transform="translate(-71.48 -7.93)"/><path class="cls-2" d="M971,17.61a9.67,9.67,0,1,0-9.66,9.67A9.67,9.67,0,0,0,971,17.61" transform="translate(-71.48 -7.93)"/><path class="cls-2" d="M943.1,48.76V35.66c-14.6-1.33-24.85,2.17-32.83,10.51L909.5,35.5h-14v77.4h14.79V72.8c0-11.19,9-25.37,32.83-24" transform="translate(-71.48 -7.93)"/><path class="cls-2" d="M803.88,73.7c0-24.19,17.88-39.73,41.76-39.73,23.72,0,40,17.34,40,38.4,0,0,0,3.29-.31,6.27l-66.1.28c.63,12,14.43,21,28.66,21a35.75,35.75,0,0,0,24.42-9.49l10.57,9.3c-10.73,10.3-22.44,13.44-35,13.44-26.07,0-44-15.23-44-38.83v-.6m65.55-6.63c0-10.52-10.59-19.29-23.59-19.29-13.92,0-25.43,8.59-26.36,19.29Z" transform="translate(-71.48 -7.93)"/><path class="cls-2" d="M715.59,66.74c-14.88-2.66-29.52-4.52-29.52-11.46,0-4.52,4.49-8.5,17.52-8.5,9.68,0,20.85,2.24,23.88,9.1l13.72-5.76c-5.25-10.54-20.78-15.62-38.63-15.62-15.6,0-32.35,5.91-32.35,21.7,0,13.68,12.46,17.93,33,21.8,13.71,2.58,26.36,3.89,26.36,11.28,0,4.66-6.22,10.65-21.78,10.65-11.06,0-22.21-2.32-25.62-10.19l-13.3,5.58c5.45,12.16,19.93,18.45,36.7,18.45,33.5,0,40-15.94,40-25,0-15.07-15-19.38-29.94-22.05" transform="translate(-71.48 -7.93)"/><path class="cls-2" d="M289.55,47.38c-14.34,0-26.93,8.13-26.93,25.88s11.07,26.62,26.78,26.62c8.22,0,25.58-3.34,25.58-26.31s-17.3-26.19-25.43-26.19m.78,65.59c-18.53,0-27.71-11.77-27.71-11.77v32.6H248.34V35.47h13.51l.77,9.61s9-10.63,27.55-10.63c16.33,0,39.83,8.32,39.83,39S308.85,113,290.33,113Z" transform="translate(-71.48 -7.93)"/><path class="cls-2" d="M400.66,73.56c0,21.07,17.35,26.32,25.58,26.32C441.94,99.88,453,91,453,73.26s-12.6-25.88-26.93-25.88c-8.13,0-25.43,4.78-25.43,26.18m-15-.15c0-29.09,23.51-39,39.85-39C444,34.44,453,45.08,453,45.08l.76-9.62h13.51V113H453.81L453,102.72S443.77,113,425.31,113,385.63,102.21,385.63,73.41Z" transform="translate(-71.48 -7.93)"/><path class="cls-2" d="M386.71,48.76V35.66c-14.6-1.33-24.85,2.17-32.84,10.51l-.76-10.67h-14v77.4h14.79V72.8c0-11.19,9-25.37,32.84-24" transform="translate(-71.48 -7.93)"/><path class="cls-2" d="M118.21,66.74C103.33,64.08,88.7,62.22,88.7,55.28c0-4.52,4.48-8.5,17.51-8.5,9.67,0,20.85,2.24,23.87,9.1l13.73-5.76C138.56,39.58,123,34.5,105.18,34.5c-15.6,0-32.35,5.91-32.35,21.7,0,13.68,12.45,17.93,33,21.8,13.71,2.58,26.37,3.89,26.37,11.28,0,4.66-6.23,10.65-21.78,10.65-11.05,0-22.21-2.32-25.62-10.19l-13.3,5.58c5.45,12.16,19.93,18.45,36.7,18.45,33.49,0,40-15.94,40-25,0-15.07-15-19.38-29.94-22.05" transform="translate(-71.48 -7.93)"/><path class="cls-2" d="M197.26,34.44c-19.78,0-43.19,9.88-43.19,39,0,28.8,21.06,40,43.19,40s43.18-11.2,43.18-40c0-29.09-23.41-39-43.18-39m0,65.44c-12.16,0-28.17-5.25-28.17-26.32,0-21.4,17.76-25.75,28.17-25.75s28.16,4.35,28.16,25.75C225.42,94.63,209.41,99.88,197.26,99.88Z" transform="translate(-71.48 -7.93)"/><path class="cls-3" d="M606.82,112.26s-22.25,14-61.52,14c-15.21,0-28-2.33-33.44-7.65-5.7-5.62-8.79-15.06-8.79-23.76,0-7.45,3.09-13.71,9.54-13.71,16.55,0,68.13,26.23,94.21,31.14" transform="translate(-71.48 -7.93)"/><path class="cls-1" d="M532.67,31.17c.82-.54,1.8-1.16,2.71-1.68l.27-.16-.27,0c-17.68-4.85-35.17-4.67-38.53,6.36-4.35,14.23,23.77,29.5,37,36.78,2.84,1.56,4.07.58,2.25-1.5-8.37-9.65-20.3-28.63-3.47-39.77" transform="translate(-71.48 -7.93)"/><path class="cls-3" d="M535.63,29.34s22.25-14,61.52-14c15.21,0,28,2.33,33.44,7.66,5.7,5.61,8.8,15.07,8.8,23.76,0,7.44-3.1,13.71-9.54,13.71-16.56,0-68.14-26.23-94.22-31.14" transform="translate(-71.48 -7.93)"/></svg>