<?xml version="1.0" encoding="UTF-8" standalone="no"?>
<!DOCTYPE svg PUBLIC "-//W3C//DTD SVG 1.1//EN" "http://www.w3.org/Graphics/SVG/1.1/DTD/svg11.dtd">
<svg width="100%" height="100%" viewBox="0 0 612 792" version="1.1" xmlns="http://www.w3.org/2000/svg" xmlns:xlink="http://www.w3.org/1999/xlink" xml:space="preserve" xmlns:serif="http://www.serif.com/" style="fill-rule:evenodd;clip-rule:evenodd;stroke-linejoin:round;stroke-miterlimit:2;">
    <path d="M479.8,507.2C481.5,506.9 483.3,506.4 484.9,505.6C486.6,504.8 487.9,503.7 489.1,502.3C490.2,500.8 491,499.1 491.5,497C492,494.9 492,492.4 491.6,489.6C491.2,487.5 490.9,485.5 490.4,483.6C489.9,481.6 489.3,479.3 488.6,476.6C487.9,473.9 487,470.6 485.9,466.6C485.5,465.3 485.2,463.8 484.8,462.2C484.1,465.8 483.4,469.3 482.5,472.8C481.3,477.7 479.7,482.6 478.1,487.7C478.3,488.2 478.5,488.8 478.6,489.5C478.6,489.6 478.6,489.8 478.7,489.9C479.4,490.3 480.1,490.7 480.7,491.2C481.6,492 482.2,493.2 482.4,494.5C482.7,496.5 482.4,498.4 481.3,500.3C480.3,502.2 478.7,503.3 476.4,503.7C475.5,503.8 474.7,503.8 473.8,503.7C472.9,503.6 472.2,503.1 471.6,502.3C471.8,503.7 472.2,505 472.5,506.1C474.3,507.4 476.8,507.7 479.8,507.2Z" style="fill:none;fill-rule:nonzero;"/>
    <path d="M393.6,355.2C391.5,355.6 389.7,356.9 388,359.2C386.3,361.5 385,364.4 383.7,367.9C382.5,371.4 381.5,375.2 380.7,379.3C380.3,381.3 380,383.1 379.8,385C381.3,384.3 382.8,383.5 384.2,382.4C386.8,380.4 389.1,378 390.9,375.3C392.7,372.5 394,369.5 394.8,366.2C395.6,362.9 395.7,359.5 395.2,356.2C395.1,355.8 395.1,355.5 395,355.3C394.5,355.2 394.1,355.2 393.6,355.2Z" style="fill:none;fill-rule:nonzero;"/>
    <path d="M105.3,404.6L107,367.4C104,370.7 101.1,375.1 98.4,380.6C95.1,387.2 92.2,394.4 89.5,402.4C91.3,402.5 93.1,402.7 94.9,402.8C98.5,403.2 102,403.8 105.3,404.6Z" style="fill:none;fill-rule:nonzero;"/>
    <path d="M440.2,455.7C438.1,456.1 436.3,457.4 434.6,459.6C432.9,461.8 431.5,464.7 430.2,468.1C429,471.5 428,475.3 427.3,479.4C426.9,481.4 426.6,483.4 426.4,485.3C428,484.6 429.4,483.7 430.9,482.6C433.5,480.6 435.8,478.2 437.6,475.5C439.4,472.7 440.6,469.7 441.4,466.4C442.1,463.1 442.3,459.8 441.7,456.5C441.6,456.1 441.6,455.8 441.5,455.6C441.2,455.6 440.7,455.6 440.2,455.7Z" style="fill:none;fill-rule:nonzero;"/>
    <path d="M138.3,327.2L143.9,326.3C175.4,272 234.2,235.3 301.3,235.3C368.4,235.3 404,259 437.3,296.6C403.9,256.4 353.6,230.6 297.6,230.6C241.6,230.6 172.9,265.4 140.5,321.4L140.4,321.4C140.4,321.5 128.4,323.4 128.4,323.4L128.3,323.4L132.7,328L138.3,327.2Z" style="fill:rgb(241,196,17);fill-rule:nonzero;"/>
    <path d="M146.5,512.6C142.5,506.1 139,499.5 135.8,492.6L132.3,487.2L132.3,487.4C136.5,496.2 141.3,504.7 146.5,512.6Z" style="fill:rgb(241,196,17);fill-rule:nonzero;"/>
    <path d="M436.7,542.7C435.1,544.4 433.7,545.8 432.4,547.1C396.4,583.1 348.4,603 297.5,603C246.6,603 198.6,583.1 162.6,547C158.8,543.2 155.1,539.2 151.7,535.1C156.3,540.9 161.3,546.5 166.6,551.8C202.6,587.8 250.4,607.6 301.3,607.6C352.2,607.6 400,587.9 436,551.8C437.5,550.3 438.8,548.9 440.2,547.4L437.5,541.8L436.7,542.7Z" style="fill:rgb(241,196,17);fill-rule:nonzero;"/>
    <path d="M459.6,311.1C477.8,340.2 487.9,373.8 488.4,408.9L488.4,409.2L478.9,410.7L483,415.3L491.7,414C491.1,376.8 480,341.3 459.6,311.1Z" style="fill:rgb(241,196,17);fill-rule:nonzero;"/>
    <path d="M55.2,491.9C55.2,491.967 55.2,491.967 55.2,491.9Z" style="fill:rgb(241,196,17);fill-rule:nonzero;"/>
    <path d="M107,367.4L107.4,358.6C102.9,362 98.7,367.7 94.8,375.6C90.9,383.5 87.4,392.4 84.3,402.3C86,402.4 87.8,402.4 89.5,402.5C92.2,394.5 95.2,387.2 98.4,380.7C101.2,375 104.1,370.7 107,367.4Z" style="fill:rgb(241,196,17);fill-rule:nonzero;"/>
    <path d="M52.9,417.1C49.9,418.9 48,421.3 47.3,424.3C47.7,424.2 48.3,424.7 49,425.7C49.7,426.7 50.1,427.8 50.3,429C50.6,431 50,432.6 48.3,434.1C46.7,435.6 44.6,436.5 42.1,436.9C40,437.3 38,437.1 36.2,436.5L36,439C36.6,439.7 37.3,440.3 38.1,440.7C40.3,441.9 42.9,442.4 45.7,441.9C48.2,441.5 50.3,440.5 51.9,439.1C53.5,437.6 54.1,436 53.9,434C53.7,432.8 53.2,431.7 52.6,430.7C51.9,429.7 51.4,429.2 50.9,429.3C51.6,426.3 53.4,423.9 56.5,422.1C58.2,421.1 60.3,420.2 62.7,419.3C63.5,417.1 64.3,414.8 65.2,412.5C60.1,413.8 56.1,415.3 52.9,417.1Z" style="fill:rgb(241,196,17);fill-rule:nonzero;"/>
    <path d="M135.3,350C135.3,350 135.2,350 135.3,350L131.7,344.9L125.9,469.8L102.3,473.7L105.9,478.8L129.5,474.9L135.3,350Z" style="fill:rgb(241,196,17);fill-rule:nonzero;"/>
    <path d="M93,409.9C89.4,409.6 85.8,409.6 82.1,409.8C80.1,417 78.4,424.3 77,431.8C75.5,439.3 74.4,446.4 73.7,453.3C72.9,460.2 72.5,466.6 72.3,472.5C72.3,478.4 72.3,483.4 73.1,487.6C73.6,490.8 74.3,493 75,494.2C75.7,495.4 76.4,496.4 77.1,497C74.9,497.4 72.5,497.7 69.9,497.9C67.3,498.1 64.8,497.8 62.4,497.1C60,496.4 57.9,494.9 56,492.8C55.8,492.5 55.6,492.3 55.3,492L58.8,496.9C58.8,497 59,497.2 59.1,497.3L59.1,497.5C59.3,497.6 59.4,497.9 59.6,498C61.5,500.1 63.6,501.6 66,502.3C68.4,503 70.9,503.3 73.5,503.1C76.1,502.9 78.5,502.6 80.7,502.2C80,501.5 79.3,500.6 78.6,499.4C77.9,498.2 77.3,496 76.7,492.8C76,488.7 75.8,483.6 75.9,477.7C76,471.8 76.5,465.4 77.3,458.5C78.1,451.6 79.2,444.4 80.6,437C82.1,429.5 83.8,422.2 85.7,415C89.4,414.7 93,414.8 96.6,415.1C99.1,415.3 101.9,415.8 104.9,416.4L105.1,412.3C100.6,410.9 96.6,410.2 93,409.9Z" style="fill:rgb(241,196,17);fill-rule:nonzero;"/>
    <path d="M164.8,388.3C162.3,388.7 160.2,389.2 158.5,389.8C156.8,390.4 156,391.3 156.3,392.5C156.4,392.7 156.4,392.9 156.6,392.9C156.8,392.9 157,393 157.3,393.1C157.6,393.2 157.9,393.5 158.1,393.8C158.3,394.2 158.5,394.8 158.7,395.8C159.2,398.8 158.6,401.2 157,402.9C155.3,404.6 153.4,405.6 151.3,405.9C149.4,406.2 147.6,405.9 145.9,405C145.2,404.6 144.6,404.1 144.1,403.5L147.6,408.4C148.1,409.1 148.8,409.6 149.5,410C151.3,410.9 153.1,411.2 154.9,410.9C157.1,410.5 159,409.5 160.6,407.9C162.2,406.3 162.8,403.8 162.3,400.8C162.2,399.8 161.9,399.1 161.7,398.8C161.5,398.5 161.2,398.2 160.9,398.1C160.6,398 160.4,397.9 160.2,397.9C160,397.9 159.9,397.8 159.9,397.5C159.7,396.3 160.5,395.4 162.1,394.8C163.8,394.2 165.9,393.7 168.4,393.3L171.7,392.7L173.9,386.7L164.8,388.3Z" style="fill:rgb(241,196,17);fill-rule:nonzero;"/>
    <path d="M204.5,444.9C204,447.1 203,449.3 201.5,451.3C200,453.3 198.2,455.1 195.9,456.6C193.7,458.1 190.9,459.1 187.7,459.6L144.3,466.8L147.9,471.9L191.3,464.7C194.5,464.2 197.2,463.2 199.5,461.7C201.7,460.2 203.6,458.4 205.1,456.4C206.6,454.4 207.6,452.3 208.1,450C208.6,447.8 208.8,445.7 208.5,443.9C208.3,442.4 207.7,441.1 207,439.9L207,439.7C206.9,439.7 206.8,439.6 206.8,439.6L203.3,434.7C204.1,435.9 204.6,437.2 204.9,438.8C205.1,440.7 205,442.7 204.5,444.9Z" style="fill:rgb(241,196,17);fill-rule:nonzero;"/>
    <path d="M177.9,448.9L204.6,378.3L201,373.2L172.3,449.2C173.6,449.2 175.5,449 177.9,448.9Z" style="fill:rgb(241,196,17);fill-rule:nonzero;"/>
    <path d="M203,434.4C203,434.4 203,434.5 203,434.4Z" style="fill:rgb(241,196,17);fill-rule:nonzero;"/>
    <path d="M201.4,432.9C201.4,432.9 201.5,432.9 201.4,432.9Z" style="fill:rgb(241,196,17);fill-rule:nonzero;"/>
    <path d="M321.1,379.2C323,376.9 324.7,374.9 326.4,373.5C328.1,372 330,371 332,370.7C332.2,370.7 332.4,370.6 332.5,370.6C332.4,370.5 332.4,370.4 332.3,370.2C331.8,369 331.3,367.9 330.8,366.8C330.4,365.8 329.5,365.3 328.3,365.5C326.2,365.9 324.4,366.8 322.7,368.3C321,369.8 319.3,371.7 317.4,374L314.6,438.5L291,442.4L291.4,432.9C289.9,435.2 288.4,437.2 286.8,438.8C284.1,441.4 281.4,443.3 278.8,444.5C276,445.7 273.6,446.4 271.4,446.7C266.7,447.5 262.8,446.8 259.5,444.6C258.9,444.2 258.3,443.7 257.8,443.2C259.2,446 260.9,448.1 263.1,449.7C266.3,451.9 270.3,452.5 275,451.8C277.2,451.4 279.6,450.7 282.4,449.6C285.2,448.4 287.8,446.6 290.4,443.9C290.7,443.6 291.1,443.2 291.3,442.9L294.6,447.5L316.2,443.9C316.8,442.2 317.5,440.6 318.4,438.9L321.1,379.2Z" style="fill:rgb(241,196,17);fill-rule:nonzero;"/>
    <path d="M233.3,429.9C233.6,431.8 234.2,433.3 235.2,434.5C235.7,435.2 236.4,435.6 237.2,435.8C237.1,435.5 237.1,435.3 237.1,435C236.9,433.5 236.8,432 236.8,430.4L239.4,372.7L235.8,367.6L233.2,425.3C233,426.9 233.2,428.4 233.3,429.9Z" style="fill:rgb(241,196,17);fill-rule:nonzero;"/>
    <path d="M273.8,423.8C274.2,426.1 275,427.6 276.2,428.3C276.6,428.5 276.9,428.7 277.4,428.7C277.2,427.1 277.1,425.4 277.2,423.5L279.8,365.8L276.2,360.7L273.6,418.4C273.4,420.4 273.6,422.2 273.8,423.8Z" style="fill:rgb(241,196,17);fill-rule:nonzero;"/>
    <path d="M349.4,364.8C349.1,366.3 348.6,367.7 347.8,369C347,370.3 345.9,371.5 344.5,372.4C343.1,373.3 341.5,374 339.5,374.3C337.7,374.6 336.3,374.4 335.3,373.9C335.5,374.3 335.7,374.8 335.9,375.2C336.4,376.4 337.2,377.5 338.2,378.5C339.2,379.5 340.9,379.7 343.1,379.4C345.1,379.1 346.7,378.5 348.1,377.5C349.5,376.6 350.6,375.4 351.4,374.1C352.2,372.8 352.7,371.4 353,369.9C353.3,368.4 353.3,366.9 353,365.5C352.5,362.3 351,359.6 348.7,357.5L348.5,357.3C348.9,358.3 349.2,359.3 349.4,360.5C349.7,361.8 349.6,363.3 349.4,364.8Z" style="fill:rgb(241,196,17);fill-rule:nonzero;"/>
    <path d="M322,359.4L322,358.9L318.4,353.8L317.8,364.5C319.2,362.6 320.6,361 322,359.4Z" style="fill:rgb(241,196,17);fill-rule:nonzero;"/>
    <path d="M247.6,443.1C245.8,445.5 244,447.4 242.1,448.8C240.2,450.3 238.3,451.3 236.4,452C234.5,452.7 232.7,453.2 230.9,453.5C226,454.3 221.5,453.4 217.6,450.9C217,450.5 216.4,450.1 215.9,449.6C217.2,452.4 218.9,454.5 221.2,456C225.1,458.5 229.5,459.4 234.5,458.6C236.2,458.3 238.1,457.8 240,457.1C241.9,456.4 243.8,455.3 245.7,453.9C247.6,452.4 249.5,450.6 251.2,448.2C252.7,446.2 254.2,443.7 255.5,440.7C254.3,438.9 253.3,436.6 252.6,434C251,437.6 249.4,440.7 247.6,443.1Z" style="fill:rgb(241,196,17);fill-rule:nonzero;"/>
    <path d="M338.2,432.2C335.7,433.7 333.8,435.9 332.3,438.7C330.8,441.5 329.8,445 329.4,449.3C329,453.6 329.3,458.9 330.3,465C330.7,467.2 331,469 331.5,470.4C331.9,471.8 332.3,472.9 332.7,473.8C333.1,474.7 333.4,475.4 333.8,475.9C334.2,476.4 334.5,476.8 334.8,477.3C328.9,478.2 324.4,477.8 321.1,475.8C319.6,474.9 318.3,473.6 317.3,471.8C317.3,471.9 321.6,477.9 321.6,477.9C322.5,479.1 323.5,480.1 324.7,480.8C328,482.8 332.5,483.2 338.4,482.3C338.1,481.9 337.7,481.4 337.4,480.9C337,480.4 336.7,479.7 336.3,478.8C335.9,477.9 335.6,476.8 335.1,475.4C334.7,474 334.3,472.2 333.9,470C332.9,463.8 332.6,458.5 333,454.3C333.4,450 334.4,446.5 335.9,443.7C337.4,440.9 339.4,438.8 341.8,437.2C343.1,436.4 344.5,435.7 345.9,435.2L346.2,429C343.3,429.6 340.7,430.7 338.2,432.2Z" style="fill:rgb(241,196,17);fill-rule:nonzero;"/>
    <path d="M404,384.8C407,381.2 409.1,377.3 410.6,372.9C412,368.5 412.3,364.1 411.5,359.3C411.1,357.2 410.6,355.3 409.8,353.5C409.6,353 409.3,352.5 408.9,352L408.2,356.1L408.1,356.1C408.5,360.2 408.1,364 406.9,367.8C405.5,372.2 403.3,376.1 400.3,379.7C397.3,383.3 393.7,386.4 389.5,388.9C385.3,391.4 380.7,393.3 375.9,394.4C376,395.3 376,396.1 376,397C376.1,397.8 376.2,398.7 376.4,399.5C376.7,401.2 377.1,402.8 377.6,404.3C378.1,405.8 378.9,407.2 379.8,408.4C380.2,409 380.8,409.4 381.3,409.9C381.2,409.8 381.2,409.6 381.1,409.4C380.6,407.9 380.2,406.3 379.9,404.6C379.8,403.7 379.6,402.9 379.5,402.1C379.4,401.3 379.4,400.4 379.4,399.5C384.3,398.3 388.8,396.5 393,394C397.4,391.4 400.9,388.4 404,384.8Z" style="fill:rgb(241,196,17);fill-rule:nonzero;"/>
    <path d="M380.8,379.4C381.6,375.3 382.5,371.4 383.8,368C385,364.6 386.5,361.7 388.1,359.3C389.8,357 391.6,355.6 393.7,355.3C394.2,355.2 394.6,355.2 395.1,355.3C394.7,353.7 394.2,352.4 393.6,351.5C392.8,350.4 391.6,350 390.1,350.3C388,350.7 386.2,352 384.5,354.3C382.8,356.6 381.5,359.5 380.2,363C379,366.5 378,370.3 377.2,374.4C376.4,378.5 375.9,382.6 375.7,386.6C377.2,386.3 378.6,385.9 380,385.3C380.1,383.2 380.4,381.3 380.8,379.4Z" style="fill:rgb(241,196,17);fill-rule:nonzero;"/>
    <path d="M367.5,474.7L364.4,538.6L340.8,542.5L344.4,547.6L368,543.7L371.1,479.8L395,475.9L395.7,463.3L392.1,458.2L391.4,470.8L367.5,474.7Z" style="fill:rgb(241,196,17);fill-rule:nonzero;"/>
    <path d="M399.3,420.4C397.1,422.6 394.5,424.5 391.6,425.7C388.7,427 385.6,427.9 382.2,428.5C377.9,429.2 374.1,429.2 370.5,428.5C370.2,428.5 369.9,428.6 369.6,428.5L368.1,462.1L372,461.4L373.2,433.5L374.1,433.5C377.7,434.2 381.5,434.2 385.8,433.5C389.1,433 392.2,432 395.2,430.7C398.1,429.4 400.7,427.7 402.9,425.4C405.1,423.2 406.9,420.3 408.1,416.8C409.4,413.4 410.1,409.3 410.2,404.4L408.4,402L406.6,399.3C406.5,404.2 405.8,408.3 404.5,411.7C403.2,415.3 401.4,418.2 399.3,420.4Z" style="fill:rgb(241,196,17);fill-rule:nonzero;"/>
    <path d="M461.2,506.9C459.3,509.7 457.2,512.4 454.9,514.9C451.6,518.4 447.9,521.4 443.7,523.8C439.5,526.3 434.7,528 429.2,528.9C421.4,530.2 414.8,529.2 409.5,525.9C408.3,525.2 407.3,524.3 406.3,523.4C408,526.8 410.4,529.3 413.1,531C418.5,534.3 425,535.3 432.8,534C438.2,533.1 443.1,531.4 447.3,528.9C451.5,526.4 455.2,523.5 458.5,520C460.7,517.6 462.7,515.1 464.5,512.5C463.8,511.6 463,510.7 462.5,509.7C462,508.7 461.5,507.7 461.2,506.9Z" style="fill:rgb(241,196,17);fill-rule:nonzero;"/>
    <path d="M427.4,479.5C428.1,475.4 429.1,471.6 430.3,468.2C431.5,464.8 433,462 434.7,459.7C436.4,457.5 438.2,456.1 440.3,455.8C440.8,455.7 441.2,455.7 441.7,455.8C441.3,454.2 440.8,452.9 440.2,452C439.4,450.9 438.2,450.5 436.7,450.8C434.6,451.2 432.8,452.5 431.1,454.7C429.4,456.9 428,459.8 426.7,463.2C425.5,466.6 424.5,470.4 423.8,474.5C423.1,478.6 422.6,482.8 422.4,487C423.9,486.6 425.2,486.2 426.5,485.5C426.8,483.4 427.1,481.4 427.4,479.5Z" style="fill:rgb(241,196,17);fill-rule:nonzero;"/>
    <path d="M555.2,505.2C553.8,506.6 552.4,507.6 551,508.2C549.5,508.8 548.1,509.2 546.6,509.4C540.8,510.3 536.3,509.3 533.2,506.1C534.2,508 535.4,509.7 536.9,511.1C540.1,514.2 544.5,515.3 550.3,514.4C551.8,514.2 553.2,513.7 554.7,513.2C556.2,512.6 557.6,511.6 558.9,510.2C560.2,508.8 561.4,506.9 562.5,504.5C563.6,502.1 564.4,499.1 565,495.4L561.4,490.3C560.7,494 559.9,497 558.9,499.4C557.8,501.9 556.6,503.8 555.3,505.2L555.2,505.2Z" style="fill:rgb(241,196,17);fill-rule:nonzero;"/>
    <path d="M484.7,462.2C483.9,459 483,455.4 482,451.2C481.3,456.9 480.2,462.4 478.7,467.7C477.3,473.1 475.7,478.6 473.8,484.4C475,484.8 476,485.3 476.8,486.1C477.2,486.5 477.6,487 477.9,487.7C479.5,482.6 481,477.6 482.3,472.8C483.4,469.3 484.1,465.8 484.7,462.2Z" style="fill:rgb(241,196,17);fill-rule:nonzero;"/>
    <path d="M526.7,489.7C525.2,491.6 523.7,493.3 522.2,494.9C518.4,498.9 514.8,502.3 511.3,505.1C509.8,507.3 508.2,509.1 506.3,510.6C504.4,512.1 502.4,513.5 500.2,514.7C498,515.9 495.8,516.9 493.6,517.5C491.4,518.2 489.2,518.7 487.1,519.1C483,519.8 479.3,519.8 476.1,519.1C472.9,518.4 470.2,517.1 467.8,515.5C466.9,514.8 466.1,514.2 465.4,513.5C465.6,513.9 465.8,514.2 466,514.6C467.4,517 469.2,519 471.4,520.6C473.7,522.3 476.5,523.4 479.7,524.2C482.9,524.9 486.6,525 490.7,524.2C492.8,523.8 494.9,523.3 497.2,522.6C499.4,521.9 501.6,520.9 503.8,519.8C506,518.6 508,517.3 509.9,515.7C511.8,514.2 513.5,512.3 514.9,510.2C518.4,507.4 522,504 525.8,500C526.5,499.2 527.3,498.4 528,497.5C527.6,496.3 527.3,495 527.1,493.6C526.9,492.3 526.8,491 526.7,489.7Z" style="fill:rgb(241,196,17);fill-rule:nonzero;"/>
    <path d="M473.7,503.8C474.6,503.9 475.4,503.9 476.3,503.8C478.5,503.4 480.1,502.3 481.2,500.4C482.2,498.5 482.6,496.6 482.3,494.6C482.1,493.1 481.5,492.1 480.6,491.3C480,490.8 479.4,490.4 478.6,490C478.8,491.8 478.5,493.6 477.5,495.4C476.5,497.3 474.9,498.4 472.6,498.8C471.7,498.9 470.9,498.9 470,498.8C469.1,498.7 468.4,498.2 467.8,497.4C468.5,501.2 469.7,504 471.5,505.6C471.8,505.8 472.1,506 472.4,506.3C472,505.2 471.7,503.9 471.5,502.5C472.1,503.2 472.8,503.7 473.7,503.8Z" style="fill:rgb(241,196,17);fill-rule:nonzero;"/>
    <path d="M553.3,412.5C553.3,415.8 553,419.3 552.9,423.2L556.7,422.5C556.7,420.8 556.7,419.1 556.9,417.5C556.9,414.2 557.2,411.4 557.3,409C557.3,406.2 557.5,403.6 557.7,401.3L554.1,396.2C553.9,398.4 553.8,401.1 553.7,403.9C553.6,406.4 553.4,409.2 553.3,412.5Z" style="fill:rgb(241,196,17);fill-rule:nonzero;"/>
    <path d="M511.2,467.7C512.2,471.8 513,475 513.7,477.6C514.4,480.1 514.9,482.7 515.4,485.5C515.8,487.9 515.9,490 515.8,491.8C516.8,490.9 517.8,490.1 518.8,489.2C518.4,487 517.9,484.7 517.4,482.6C516.7,480.1 515.9,476.8 514.9,472.7C513.9,468.6 512.7,463.4 511.1,456.9C509.6,450.4 507.7,441.9 505.5,431.4L501.9,426.3C504.1,436.8 506,445.4 507.5,451.8C509,458.4 510.2,463.7 511.2,467.7Z" style="fill:rgb(241,196,17);fill-rule:nonzero;"/>
    <path d="M453.6,468.2C452.2,472.6 450,476.5 447,480.2C444,483.8 440.4,486.9 436.2,489.4C432,491.9 427.4,493.8 422.6,494.9C422.7,496.1 422.8,497.3 422.9,498.4C423,499.5 423.2,500.6 423.3,501.5C424.2,507.1 425.8,510.6 428.1,512.1L428.4,512.1C427.8,510.5 427.4,508.7 427,506.4C426.9,505.4 426.7,504.4 426.6,503.3C426.5,502.2 426.4,501.1 426.3,499.8C431.2,498.6 435.7,496.8 439.9,494.3C444.1,491.8 447.7,488.7 450.7,485.1C453.7,481.5 455.8,477.6 457.3,473.1C458.7,468.7 459,464.3 458.2,459.6C457.8,457.5 457.3,455.6 456.5,453.8C455.8,452.1 454.6,450.8 453.2,449.5C453.9,451 454.3,452.7 454.6,454.4C455.2,459.2 454.9,463.7 453.6,468.1L453.6,468.2Z" style="fill:rgb(241,196,17);fill-rule:nonzero;"/>
    <path d="M523.6,434.7L527.2,439.8L528.7,439.5L529,433.8L523.6,434.7Z" style="fill:rgb(241,196,17);fill-rule:nonzero;"/>
    <path d="M556.3,435L566.2,433.4L566.4,426.7L562.8,421.6L562.6,428.3L552.7,429.9L550.3,480.8C550.1,483 550.3,485 550.3,486.7C550.6,488.4 551.2,489.8 552.3,490.8C552.7,491.2 553.3,491.5 554,491.7C553.8,490.1 553.7,488.1 554,486L556.3,435Z" style="fill:rgb(241,196,17);fill-rule:nonzero;"/>
    <path d="M406.4,349.4C407.3,350.2 408.2,351.1 408.9,352.1L404.7,346.2C405.3,346.9 405.8,347.7 406.2,348.6C406.3,348.8 406.4,349.1 406.4,349.4Z" style="fill:rgb(241,196,17);fill-rule:nonzero;"/>
    <path d="M406.4,349.4C407.1,350.9 407.5,352.6 407.8,354.3C407.9,355 408,355.5 408,356.2L408.1,356.2L408.8,352.1C408.2,351 407.4,350.2 406.4,349.4Z" style="fill:rgb(241,196,17);fill-rule:nonzero;"/>
    <path d="M488.4,408.9C487.8,373.8 477.8,340.2 459.6,311.1C452,298.9 442.9,287.5 432.6,277.1C396.6,241.1 348.6,221.2 297.7,221.2C246.8,221.2 198.8,241.1 162.8,277.1C126.8,313.1 137.9,306 128.9,322.8L128.6,323.4C128.6,323.5 140.6,321.6 140.6,321.6L140.7,321.6C173.1,265.5 233.4,230.7 297.8,230.7C362.2,230.7 404.1,256.4 437.5,296.7C463.2,327.7 478.8,367.3 479.3,410.4L479.3,410.8L488.8,409.3L488.4,408.9Z" style="fill:rgb(236,240,241);fill-rule:nonzero;"/>
    <path d="M437.5,541.9L421.6,544.4L421.5,544.4C387.7,576.1 343.7,593.6 297.6,593.6C251.5,593.6 180,562.6 146.6,512.7C141.3,504.7 136.5,496.3 132.5,487.5L132.5,487.3C132.4,487.3 132.4,487.2 132.4,487.2L122.7,488.7L122.9,489.1C130.3,505.8 139.9,521.2 151.8,535.2C155.3,539.3 158.9,543.2 162.7,547.1C198.7,583.1 246.7,603 297.6,603C348.5,603 396.5,583.1 432.5,547.1C468.5,511.1 435.1,544.4 436.8,542.7L437.5,541.9Z" style="fill:rgb(236,240,241);fill-rule:nonzero;"/>
    <path d="M32.2,433.4L35.8,438.4C35.2,437.6 34.9,436.7 34.5,435.6C33.6,435 32.8,434.3 32.2,433.4Z" style="fill:rgb(241,196,17);fill-rule:nonzero;"/>
    <path d="M36.2,439C36.2,438.9 36.1,438.9 36.2,439Z" style="fill:rgb(236,240,241);fill-rule:nonzero;"/>
    <path d="M34.7,435.7L34.7,435.6C35,436.7 35.4,437.6 36,438.4L36.4,439L36.6,436.5C35.9,436.2 35.3,436 34.8,435.7L34.7,435.7Z" style="fill:rgb(241,196,17);fill-rule:nonzero;"/>
    <path d="M450.4,454.5L455.6,452.5L451.6,446.9L450.4,446.9L450.4,454.5Z" style="fill:rgb(241,196,17);fill-rule:nonzero;"/>
    <path d="M481.3,492L477.2,492.8L477.2,488.3L478.1,487.7L481.3,492Z" style="fill:rgb(241,196,17);fill-rule:nonzero;"/>
    <path d="M407.9,526.1L403.9,520.4L401.6,515.8L413.6,515.8L407.9,526.1Z" style="fill:rgb(241,196,17);fill-rule:nonzero;"/>
    <path d="M344.3,358L347.9,359.1L351,360.3L347.1,354.8L344.3,358Z" style="fill:rgb(241,196,17);fill-rule:nonzero;"/>
    <path d="M538.8,509.6L535,509.2L530.6,503.1L535.6,504.8L538.8,509.6Z" style="fill:rgb(241,196,17);fill-rule:nonzero;"/>
    <path d="M124.8,344.2L131.7,344.9C129.6,344.4 127.3,344.1 124.8,344.2Z" style="fill:rgb(236,240,241);fill-rule:nonzero;"/>
    <path d="M202.2,433.5C202,433.3 201.8,433.1 201.5,433L203,434.5C202.7,434.1 202.5,433.8 202.2,433.5Z" style="fill:rgb(236,240,241);fill-rule:nonzero;"/>
    <path d="M295.1,438.1C294.7,438.6 294.4,439.1 294.1,439.6L295,439.6L295,438.1L295.1,438.1Z" style="fill:rgb(236,240,241);fill-rule:nonzero;"/>
    <path d="M332.5,370.6C333,371.6 333.7,372.6 334.6,373.4C334.8,373.6 335,373.8 335.3,373.9C335,373.2 334.6,372.5 334.4,371.9C334.1,371.1 333.4,370.6 332.5,370.6Z" style="fill:rgb(236,240,241);fill-rule:nonzero;"/>
    <g>
        <path d="M124.7,344.2C122.3,344.3 120.3,344.4 118.8,344.7C113.9,345.5 109.1,347.6 104.5,351C99.9,354.4 95.5,358.7 91.3,363.9C87.1,369.1 83.2,375.1 79.5,381.7C75.8,388.3 72.5,395.2 69.3,402.4C65.7,402.6 62.8,403 60.4,403.3C55.7,404.1 51.4,405.3 47.6,407C43.8,408.7 40.5,410.8 37.8,413.1C35.2,415.4 33.2,418 31.9,420.7C30.6,423.5 30.2,426.2 30.7,428.9C31,430.6 31.6,432.1 32.4,433.3C33,434.2 33.8,434.9 34.7,435.5L34.7,435.6C35.3,435.9 35.9,436.2 36.4,436.4C38.2,437 40.1,437.1 42.3,436.8C44.8,436.4 46.9,435.4 48.5,434C50.1,432.5 50.7,430.9 50.5,428.9C50.3,427.7 49.8,426.6 49.2,425.6C48.5,424.6 48,424.1 47.5,424.2C48.2,421.2 50,418.8 53.1,417C56.1,415.2 60.3,413.7 65.4,412.6C64.5,414.8 63.7,417.1 62.9,419.4C61.3,424 59.9,428.6 58.6,433.2C56.7,440.1 55.2,446.6 54,452.9C52.8,459.2 52.1,464.8 51.8,470C51.5,475.2 51.8,479.7 52.2,483.4C52.8,487 53.8,489.9 55.2,492L55.2,492.1C55.4,492.5 55.6,492.8 55.9,493C57.8,495.1 59.9,496.6 62.3,497.3C64.7,498 67.2,498.3 69.8,498.1C72.4,497.9 74.8,497.6 77,497.2C76.3,496.5 75.6,495.6 74.9,494.4C74.2,493.2 73.6,491 73,487.8C72.3,483.7 72.1,478.6 72.2,472.7C72.3,466.8 72.8,460.4 73.6,453.5C74.4,446.6 75.5,439.4 76.9,432C78.4,424.5 80.1,417.2 82,410C85.7,409.7 89.3,409.8 92.9,410.1C96.5,410.4 100.5,411.1 105,412.3L104.8,416.4L102.2,473.8L125.8,469.9L131.6,345L124.6,344.2L124.7,344.2ZM84.3,402.2C87.3,392.3 90.9,383.4 94.8,375.5C98.7,367.6 102.9,362 107.4,358.5L107,367.3L105.3,404.5C101.9,403.7 98.4,403.1 94.9,402.8C93.1,402.6 91.3,402.4 89.5,402.4C87.8,402.2 86.1,402.2 84.3,402.2Z" style="fill:rgb(236,240,241);fill-rule:nonzero;"/>
        <path d="M203.3,434.7L203.3,434.5C203.2,434.4 203.1,434.4 203.1,434.4L201.6,432.9C200.3,432 198.6,431.7 196.5,432.1C193.5,432.6 191.3,433.8 190,435.7C188.7,437.5 188.3,439.3 188.5,440.8C188.6,441.7 189,442.4 189.6,443C190.2,443.6 191.1,443.8 192.1,443.7L192.1,444.3C191.9,445.4 191.2,446.2 190.1,446.8C188.7,447.5 187,448 185,448.3C182.8,448.7 180.5,448.9 178.1,449L178,449C175.6,449.1 173.7,449.2 172.3,449.4L200.9,373.3L158.8,380.3C155.8,380.8 153.3,381.8 151.1,383.3C148.9,384.8 147.2,386.5 145.8,388.4C144.4,390.3 143.5,392.3 142.9,394.4C142.3,396.5 142.2,398.4 142.5,400.1C142.7,401.6 143.2,402.7 144,403.7C144.5,404.3 145.1,404.8 145.8,405.2C147.6,406.1 149.4,406.4 151.2,406.1C153.4,405.7 155.3,404.7 156.9,403.1C158.5,401.5 159.1,399 158.6,396C158.5,395 158.2,394.3 158,394C157.8,393.6 157.5,393.4 157.2,393.3C156.9,393.2 156.7,393.1 156.5,393.1C156.3,393.1 156.2,393 156.2,392.7C156,391.5 156.8,390.6 158.4,390C160.1,389.4 162.2,388.9 164.7,388.5L173.9,387L171.7,393L144.2,467L187.6,459.8C190.8,459.3 193.5,458.3 195.8,456.8C198,455.3 199.9,453.5 201.4,451.5C202.9,449.5 203.9,447.4 204.4,445.1C204.9,442.9 205.1,440.8 204.8,439C204.6,437.2 204,435.9 203.3,434.7Z" style="fill:rgb(236,240,241);fill-rule:nonzero;"/>
        <path d="M349.4,360.5C349.2,359.3 348.9,358.3 348.5,357.3C347.8,355.5 346.6,353.8 345.1,352.4C342.8,350.2 339.7,349.4 336,350C332.7,350.5 329.5,352.2 326.4,354.9C324.9,356.3 323.4,357.7 322,359.3C320.5,360.9 319.2,362.6 317.8,364.4L318.4,353.7L294.8,357.6L292.3,412.2C291.8,416.5 290.6,420.2 288.9,423.3C287.1,426.4 284.6,428.2 281.4,428.7C279.7,429 278.4,429 277.3,428.7C276.9,428.6 276.5,428.4 276.1,428.3C274.9,427.6 274.1,426.1 273.7,423.8C273.4,422.1 273.3,420.4 273.5,418.4L276.1,360.7L252.5,364.6L250,419.1C249.5,423.5 248.3,427.1 246.6,430.3C244.9,433.5 242.4,435.2 239.3,435.7C238.4,435.8 237.7,435.8 237.1,435.6C236.3,435.4 235.6,434.9 235.1,434.3C234.2,433.1 233.6,431.5 233.2,429.7C233,428.2 232.9,426.7 232.9,425.1L235.5,367.4L211.9,371.3L209.4,425.8C209.2,430.1 209.3,433.7 209.8,436.7C210.7,442.6 212.8,446.9 215.7,449.5C216.2,450 216.8,450.4 217.4,450.8C221.3,453.3 225.7,454.2 230.7,453.4C232.4,453.1 234.3,452.6 236.2,451.9C238.1,451.2 240,450.1 241.9,448.7C243.8,447.2 245.7,445.4 247.4,443C249.2,440.6 250.9,437.6 252.4,433.9C253.1,436.5 254.1,438.8 255.3,440.6C256,441.6 256.8,442.6 257.6,443.4C258.4,444.2 258.7,444.3 259.3,444.8C262.5,447 266.5,447.6 271.2,446.9C273.4,446.5 275.8,445.8 278.6,444.7C281.4,443.6 284,441.7 286.6,439C288.2,437.4 289.8,435.4 291.2,433.1L290.8,442.6L314.4,438.7L317.2,374.2C319.1,371.9 320.8,369.9 322.5,368.5C324.2,367 326.1,366 328.1,365.7C329.3,365.5 330.1,365.9 330.6,367C331,368 331.5,369.2 332.1,370.4C332.2,370.5 332.2,370.7 332.3,370.8C333.2,370.8 333.9,371.2 334.3,372.1C334.6,372.8 334.9,373.5 335.2,374.1C336.2,374.6 337.6,374.8 339.4,374.5C341.4,374.2 343,373.6 344.4,372.6C345.8,371.7 346.9,370.5 347.7,369.2C348.5,367.9 349,366.5 349.3,365C349.6,363.3 349.7,361.8 349.4,360.5Z" style="fill:rgb(236,240,241);fill-rule:nonzero;"/>
    </g>
    <path d="M400.3,379.8C403.3,376.2 405.4,372.3 406.9,367.9C408.1,364.1 408.5,360.3 408.1,356.2C408,355.5 408,355 407.9,354.3C407.6,352.6 407.2,350.9 406.5,349.4C406.4,349.1 406.3,348.8 406.1,348.6C405.7,347.7 405.2,346.9 404.6,346.2C404,345.4 403.3,344.7 402.4,344C400.8,342.8 398.7,341.9 396.2,341.4C393.7,340.9 390.7,341 387.1,341.5C381.5,342.4 376.7,344.3 372.7,346.9C368.6,349.6 365.2,352.8 362.5,356.7C359.7,360.5 357.6,364.7 356,369.2C354.4,373.7 353.2,378.2 352.6,382.7C351.9,387.2 351.6,391.5 351.7,395.7C351.7,399.8 352,403.5 352.5,406.7C352.9,409.5 353.6,412 354.4,414.2C348.1,415.7 342.6,417.8 337.9,420.4C331.6,424 326.5,428 322.8,432.7C321.1,434.8 319.7,437 318.5,439.2C317.6,440.8 316.9,442.5 316.3,444.2C315.9,445.4 315.5,446.6 315.2,447.8C313.9,453.2 313.7,458.5 314.6,463.8C315.2,467.2 316.1,469.9 317.3,472.1C318.3,473.9 319.5,475.2 321.1,476.1C324.4,478.1 328.9,478.5 334.8,477.6C334.5,477.2 334.1,476.7 333.8,476.2C333.5,475.7 333.1,475 332.7,474.1C332.3,473.2 332,472.1 331.5,470.7C331.1,469.3 330.7,467.5 330.3,465.3C329.3,459.1 329,453.8 329.4,449.6C329.8,445.3 330.8,441.8 332.3,439C333.8,436.2 335.8,434.1 338.2,432.5C340.7,431 343.3,429.9 346.2,429.3L345.9,435.5L340.5,542.7L364.1,538.8L367.2,474.9L391.1,470.9L391.8,458.4L371.7,461.7L367.8,462.4L369.3,428.8L370.2,428.8C373.8,429.5 377.6,429.5 381.9,428.8C385.2,428.3 388.3,427.3 391.3,426C394.2,424.7 396.8,423 399,420.7C401.2,418.5 403,415.6 404.2,412.1C405.5,408.7 406.2,404.6 406.3,399.7C404.1,402.5 401.4,405 398.1,407.3C394.8,409.6 391.6,411.1 388.5,411.6C386.5,412 384.7,411.8 383.3,411.3C382.6,411 381.8,410.6 381.2,410.1C380.6,409.7 380.1,409.2 379.7,408.6C378.8,407.4 378,406.1 377.5,404.5C377,403 376.6,401.4 376.3,399.7C376.2,398.8 376,398 375.9,397.2C375.8,396.4 375.8,395.5 375.8,394.6C380.7,393.4 385.2,391.6 389.4,389.1C393.7,386.4 397.3,383.3 400.3,379.8ZM384.3,382.5C382.9,383.6 381.4,384.5 379.9,385.1C378.5,385.7 377.1,386.1 375.6,386.4C375.8,382.4 376.3,378.4 377.1,374.2C377.9,370.1 378.8,366.2 380.1,362.8C381.3,359.4 382.8,356.5 384.4,354.1C386.1,351.8 387.9,350.4 390,350.1C391.5,349.9 392.7,350.2 393.5,351.3C394.2,352.2 394.7,353.5 395,355.1C395.1,355.4 395.1,355.8 395.2,356C395.8,359.4 395.6,362.7 394.8,366C394,369.3 392.7,372.4 390.9,375.1C389.2,378.1 386.9,380.5 384.3,382.5Z" style="fill:rgb(236,240,241);fill-rule:nonzero;"/>
    <path d="M552.7,429.9L562.6,428.3L562.8,421.6L556.8,422.6L553,423.3C553,419.5 553.3,415.9 553.4,412.6C553.5,409.3 553.7,406.5 553.8,404.1C553.8,401.3 554,398.7 554.2,396.4L530.5,403.7L529.3,427.1L523.9,428L523.7,434.7L529.1,433.8L528.8,439.5L526.8,481.5L526.1,481.5C524.1,484.1 521.6,486.6 518.6,489.1C517.7,490 516.6,490.8 515.6,491.7C515.6,489.9 515.6,487.8 515.2,485.4C514.8,482.6 514.2,480 513.5,477.5C512.8,475 512,471.7 511,467.6C510,463.5 508.8,458.3 507.2,451.8C505.7,445.3 503.8,436.8 501.6,426.3L477.9,433.6C476.7,442.1 475.2,450.6 473.4,459.2C471.6,467.8 469,476.5 465.8,485.4C463.7,486.9 462,489.1 460.7,492C459.9,493.8 459.5,495.8 459.4,498C459,498.4 458.7,498.9 458.4,499.4C456.7,501.8 454.8,503.9 452.7,505.7C450.7,507.6 448.3,509.1 445.9,510.4C443.4,511.7 440.5,512.6 437.3,513.2C433.5,513.9 430.5,513.5 428.2,512.1L427.9,512.1C425.7,510.6 424.1,507.1 423.1,501.5C423,500.5 422.8,499.5 422.7,498.4C422.6,497.3 422.5,496.2 422.4,494.9C427.3,493.7 431.8,491.9 436,489.4C440.2,486.9 443.8,483.8 446.8,480.2C449.8,476.6 451.9,472.7 453.4,468.2C454.8,463.8 455.1,459.4 454.3,454.7C454,453 453.6,451.3 452.9,449.8C452.8,449.5 452.7,449.2 452.5,449C451.7,447.3 450.5,445.7 448.9,444.4C447.3,443.2 445.2,442.3 442.7,441.8C440.2,441.3 437.2,441.4 433.6,441.9C428,442.8 423.2,444.7 419.2,447.3C415.1,450 411.7,453.2 409,457.1C406.2,460.9 404.1,465.1 402.5,469.6C400.9,474.1 399.7,478.6 399.1,483.1C398.4,487.6 398.1,491.9 398.2,496.1C398.2,500.2 398.5,503.9 399,507.1C400.2,514.4 402.6,519.8 406.1,523.3C409.6,526.8 408.1,525.2 409.3,525.8C414.7,529.1 421.2,530.1 429,528.8C434.4,527.9 439.3,526.2 443.5,523.7C447.7,521.2 451.4,518.3 454.7,514.8C457,512.3 459.1,509.7 461,506.8C461.4,507.7 461.8,508.6 462.3,509.5C462.9,510.5 463.5,511.5 464.3,512.3C464.7,512.7 465,513 465.3,513.4C466,514.1 466.8,514.9 467.7,515.4C470,517.1 472.8,518.2 476,519C479.2,519.7 482.9,519.8 487,519C489.1,518.6 491.2,518.1 493.5,517.4C495.7,516.7 497.9,515.7 500.1,514.6C502.3,513.4 504.3,512.1 506.2,510.5C508.1,509 509.8,507.1 511.2,505C514.7,502.2 518.3,498.8 522.1,494.8C523.6,493.2 525.1,491.5 526.6,489.6C526.6,490.9 526.8,492.2 527,493.5C527.2,494.9 527.5,496.2 527.9,497.4C529,500.8 530.7,503.6 532.9,506C536.1,509.2 540.5,510.3 546.3,509.4C547.8,509.2 549.2,508.7 550.7,508.2C552.2,507.6 553.6,506.6 554.9,505.2C556.2,503.8 557.4,501.9 558.5,499.5C559.6,497.1 560.4,494.1 561,490.4C560.3,490.8 559.7,491 558.8,491.2C558,491.4 557.3,491.6 556.8,491.6C555.6,491.8 554.6,491.8 553.7,491.6C553,491.5 552.5,491.2 552,490.7C551,489.8 550.3,488.4 550,486.6C549.7,484.9 549.7,483 550,480.7L552.7,429.9ZM423.8,474.4C424.5,470.3 425.5,466.5 426.7,463.1C427.9,459.7 429.4,456.9 431.1,454.6C432.8,452.4 434.6,451 436.7,450.7C438.2,450.5 439.4,450.8 440.2,451.9C440.9,452.8 441.4,454.1 441.7,455.7C441.8,456 441.8,456.4 441.9,456.6C442.4,459.9 442.3,463.1 441.6,466.5C440.9,469.8 439.6,472.8 437.8,475.6C436,478.4 433.8,480.7 431.1,482.7C429.6,483.8 428.2,484.7 426.6,485.4C425.3,486 423.8,486.5 422.5,486.9C422.6,482.7 423.1,478.5 423.8,474.4ZM491.6,496.9C491.1,499 490.3,500.7 489.2,502.2C488.1,503.7 486.7,504.7 485,505.5C483.3,506.3 481.6,506.8 479.9,507.1C476.8,507.6 474.4,507.3 472.6,506.2C472.3,506 472,505.8 471.7,505.5C469.9,503.8 468.6,501.1 468,497.3C468.6,498.1 469.3,498.6 470.2,498.7C471.1,498.8 471.9,498.8 472.8,498.7C475,498.3 476.6,497.2 477.7,495.3C478.6,493.6 479,491.7 478.8,489.9C478.8,489.8 478.8,489.6 478.7,489.5C478.6,488.8 478.4,488.3 478.2,487.7C477.9,487.1 477.5,486.5 477.1,486.1C476.2,485.3 475.2,484.7 474.1,484.4C476,478.7 477.6,473.2 479,467.7C480.4,462.3 481.5,456.8 482.3,451.2C483.3,455.4 484.2,459 485,462.2C485.4,463.8 485.8,465.2 486.1,466.6C487.1,470.6 488.1,473.9 488.8,476.6C489.5,479.3 490.1,481.6 490.6,483.6C491.1,485.6 491.5,487.5 491.8,489.6C492.1,492.4 492.1,494.8 491.6,496.9Z" style="fill:rgb(236,240,241);fill-rule:nonzero;"/>
    <g transform="matrix(0.523782,0,0,0.523782,39.1008,546.019)">
        <g>
            <path d="M363.7,203.7C364.5,203.7 365.3,203.3 365.7,202.5C366.2,201.4 365.8,200.1 364.7,199.6L267.7,150.4L360.7,92.6C361.7,92 362,90.6 361.4,89.6C360.8,88.6 359.4,88.3 358.4,88.9L262.1,148.7C261.4,149.1 261,149.9 261.1,150.6C261.1,151.4 261.6,152.1 262.3,152.5L362.7,203.5C363,203.7 363.3,203.7 363.7,203.7Z" style="fill:white;fill-rule:nonzero;"/>
            <path d="M354.9,85.8L354.9,209.8C354.9,209.8 502.1,164.5 669.6,226.9C837.1,289.3 970.3,210.4 970.3,210.4L920.8,177.3L965.5,99C965.5,99 837.5,144 733.1,112.4C656.6,89.1 469.8,17.1 354.9,85.8Z" style="fill:rgb(52,152,219);fill-rule:nonzero;"/>
            <path d="M669.6,217.1C684.971,222.825 700.052,227.361 714.767,230.877C837.05,260.095 934.073,218.914 962.1,204.9L970.3,210.4C970.3,210.4 837.1,289.3 669.6,226.9C502.1,164.5 354.9,209.8 354.9,209.8L354.9,200C354.9,199.923 443.058,172.835 560.559,189.51C594.89,194.382 631.726,202.991 669.6,217.1Z" style="fill:rgb(41,128,185);fill-rule:nonzero;"/>
            <g transform="matrix(1,0,0,1,0,-34)">
                <path d="M420.094,147.593C420.315,149.31 420.132,150.686 419.545,151.722C418.958,152.757 418.085,153.349 416.926,153.498C416.326,153.575 415.807,153.533 415.372,153.371C414.937,153.208 414.474,152.919 413.984,152.502C414.53,151.995 414.911,151.314 415.128,150.457C415.346,149.6 415.396,148.721 415.28,147.819C415.187,147.09 414.975,146.375 414.645,145.676C414.315,144.977 413.855,144.37 413.266,143.857C412.676,143.344 411.972,142.954 411.152,142.689C410.333,142.423 409.387,142.359 408.313,142.497C407.197,142.641 406.226,142.973 405.398,143.494C404.571,144.015 403.913,144.666 403.424,145.449C402.936,146.232 402.602,147.115 402.423,148.098C402.244,149.08 402.223,150.108 402.361,151.181C402.626,153.242 403.343,154.829 404.512,155.944C405.68,157.06 407.071,157.95 408.683,158.615C410.296,159.28 412.043,159.885 413.923,160.429C415.804,160.972 417.568,161.716 419.217,162.661C420.865,163.605 422.305,164.882 423.538,166.49C424.77,168.099 425.57,170.341 425.94,173.217C426.271,175.792 426.125,178.047 425.501,179.982C424.877,181.916 423.939,183.531 422.687,184.826C421.436,186.122 419.942,187.143 418.205,187.889C416.469,188.636 414.656,189.131 412.768,189.374C411.094,189.589 409.416,189.608 407.736,189.431C406.055,189.255 404.517,188.831 403.122,188.159C401.727,187.488 400.548,186.548 399.585,185.341C398.623,184.134 398.023,182.608 397.786,180.762C397.648,179.689 397.658,178.575 397.815,177.421C397.972,176.266 398.282,175.201 398.746,174.225C399.209,173.249 399.844,172.415 400.649,171.723C401.455,171.03 402.437,170.609 403.596,170.46C404.54,170.339 405.378,170.493 406.109,170.923C406.841,171.352 407.555,172.242 408.252,173.592C407.228,173.768 406.408,174.091 405.792,174.563C405.176,175.035 404.711,175.575 404.397,176.182C404.082,176.79 403.891,177.425 403.824,178.088C403.756,178.751 403.758,179.362 403.83,179.92C403.979,181.079 404.366,182.054 404.991,182.847C405.617,183.639 406.364,184.274 407.232,184.751C408.101,185.229 409.014,185.547 409.973,185.708C410.932,185.868 411.84,185.893 412.699,185.783C414.673,185.529 416.208,184.568 417.302,182.901C418.397,181.233 418.762,178.983 418.398,176.15C418.089,173.746 417.384,171.906 416.281,170.63C415.179,169.353 413.859,168.334 412.322,167.572C410.784,166.81 409.166,166.189 407.468,165.709C405.77,165.229 404.152,164.608 402.615,163.845C401.077,163.083 399.751,162.021 398.638,160.659C397.525,159.297 396.809,157.371 396.489,154.881C396.213,152.735 396.335,150.8 396.855,149.075C397.375,147.35 398.155,145.865 399.195,144.618C400.234,143.372 401.503,142.38 403.001,141.642C404.498,140.904 406.084,140.428 407.758,140.213C408.488,140.119 409.497,140.077 410.785,140.085C412.073,140.094 413.368,140.321 414.668,140.764C415.969,141.208 417.135,141.964 418.166,143.031C419.198,144.098 419.841,145.619 420.094,147.593Z" style="fill:white;fill-rule:nonzero;"/>
                <path d="M450.168,160.634C450.381,163.656 449.317,166.269 446.978,168.472C444.638,170.675 441.284,172.169 436.914,172.954C437.208,174.668 437.619,176.049 438.149,177.097C438.678,178.144 439.288,178.958 439.98,179.538C440.671,180.119 441.446,180.498 442.305,180.676C443.163,180.855 444.046,180.912 444.952,180.848C447.024,180.702 448.929,180.026 450.666,178.82C452.403,177.613 453.744,175.697 454.687,173.071L456.759,172.925C456.31,174.562 455.64,176.138 454.749,177.654C453.858,179.17 452.782,180.525 451.521,181.72C450.26,182.915 448.875,183.891 447.367,184.648C445.858,185.405 444.284,185.841 442.643,185.956C441.132,186.062 439.657,185.906 438.218,185.486C436.779,185.067 435.477,184.302 434.315,183.19C433.152,182.079 432.169,180.597 431.367,178.745C430.564,176.893 430.066,174.585 429.871,171.822C429.744,170.009 429.811,168.031 430.072,165.887C430.334,163.742 430.886,161.73 431.73,159.848C432.574,157.967 433.741,156.367 435.232,155.047C436.722,153.727 438.633,152.986 440.964,152.822C442.043,152.746 443.099,152.791 444.13,152.957C445.161,153.123 446.109,153.49 446.973,154.059C447.837,154.627 448.555,155.433 449.128,156.478C449.7,157.522 450.047,158.907 450.168,160.634ZM436.671,170.433C439.703,169.743 442.055,168.493 443.728,166.683C445.402,164.874 446.152,162.739 445.979,160.278C445.863,158.638 445.5,157.481 444.889,156.808C444.277,156.135 443.454,155.835 442.418,155.908C441.295,155.987 440.344,156.488 439.562,157.41C438.781,158.333 438.158,159.494 437.692,160.893C437.227,162.292 436.912,163.833 436.749,165.515C436.585,167.196 436.559,168.836 436.671,170.433Z" style="fill:white;fill-rule:nonzero;"/>
                <path d="M460.969,149.622L461.111,154.618C461.908,153.73 462.85,152.999 463.938,152.427C465.026,151.855 466.305,151.548 467.776,151.507C469.29,151.464 470.705,151.748 472.021,152.36C473.337,152.972 474.501,153.924 475.511,155.216C476.522,156.508 477.337,158.152 477.957,160.147C478.576,162.143 478.925,164.525 479.003,167.293C479.157,172.7 478.259,176.925 476.311,179.968C474.362,183.01 471.701,184.579 468.327,184.675C466.899,184.715 465.67,184.48 464.638,183.968C463.606,183.456 462.687,182.713 461.88,181.741L462.371,199.065L455.863,200.873L454.415,149.808L460.969,149.622ZM465.625,155.789C464.673,155.816 463.826,156.11 463.085,156.673C462.343,157.235 461.727,158.021 461.236,159.03L461.788,178.496C462.415,179.258 463.113,179.801 463.879,180.125C464.646,180.45 465.397,180.602 466.133,180.581C467.214,180.55 468.156,180.177 468.958,179.462C469.761,178.746 470.437,177.786 470.987,176.579C471.537,175.373 471.941,173.966 472.199,172.356C472.456,170.747 472.559,169.034 472.507,167.218C472.444,164.968 472.185,163.103 471.732,161.622C471.279,160.142 470.715,158.967 470.041,158.099C469.367,157.23 468.635,156.623 467.846,156.278C467.057,155.932 466.317,155.769 465.625,155.789Z" style="fill:white;fill-rule:nonzero;"/>
                <path d="M489.936,141.799L489.805,151.665L494.803,151.731L494.773,154.003L489.775,153.936L489.512,173.733C489.505,174.252 489.519,174.847 489.553,175.519C489.587,176.19 489.698,176.83 489.885,177.438C490.071,178.047 490.367,178.559 490.773,178.976C491.179,179.392 491.749,179.605 492.485,179.615C493.653,179.631 494.775,179.061 495.851,177.907C496.926,176.753 497.783,174.99 498.42,172.618L500.822,172.65C500.05,175.366 499.232,177.508 498.367,179.076C497.502,180.645 496.61,181.834 495.69,182.644C494.771,183.454 493.866,183.972 492.976,184.198C492.086,184.424 491.273,184.533 490.537,184.523C488.979,184.502 487.707,184.193 486.719,183.596C485.732,182.998 484.963,182.242 484.412,181.325C483.862,180.409 483.486,179.398 483.284,178.292C483.082,177.186 482.989,176.091 483.003,175.01L483.284,153.85L481.077,153.821L481.107,151.549L483.314,151.578L483.433,142.621L489.936,141.799Z" style="fill:white;fill-rule:nonzero;"/>
                <path d="M519.696,160.836C519.546,163.862 518.178,166.329 515.592,168.237C513.006,170.145 509.496,171.227 505.064,171.484C505.151,173.221 505.395,174.642 505.795,175.745C506.195,176.848 506.704,177.729 507.321,178.388C507.939,179.047 508.663,179.516 509.494,179.795C510.325,180.075 511.194,180.237 512.102,180.282C514.176,180.385 516.148,179.941 518.017,178.951C519.886,177.96 521.446,176.218 522.696,173.724L524.771,173.827C524.129,175.398 523.276,176.883 522.21,178.282C521.144,179.68 519.914,180.897 518.519,181.933C517.124,182.969 515.633,183.772 514.045,184.343C512.457,184.914 510.841,185.159 509.199,185.078C507.686,185.002 506.24,184.671 504.861,184.082C503.482,183.494 502.282,182.579 501.261,181.336C500.239,180.094 499.441,178.506 498.865,176.571C498.289,174.636 498.07,172.285 498.208,169.519C498.298,167.704 498.601,165.747 499.116,163.65C499.632,161.552 500.421,159.62 501.484,157.853C502.546,156.086 503.896,154.636 505.534,153.504C507.172,152.372 509.158,151.864 511.492,151.98C512.572,152.034 513.614,152.205 514.618,152.493C515.622,152.781 516.519,153.259 517.309,153.926C518.099,154.594 518.716,155.48 519.16,156.585C519.603,157.69 519.782,159.108 519.696,160.836ZM505.125,168.952C508.217,168.629 510.702,167.669 512.579,166.073C514.457,164.476 515.457,162.446 515.579,159.982C515.66,158.34 515.438,157.148 514.911,156.407C514.385,155.666 513.603,155.27 512.566,155.218C511.442,155.162 510.437,155.546 509.551,156.368C508.666,157.191 507.908,158.269 507.279,159.603C506.649,160.936 506.153,162.428 505.789,164.078C505.426,165.728 505.204,167.353 505.125,168.952Z" style="fill:white;fill-rule:nonzero;"/>
                <path d="M532.215,153.415L531.709,157.865C533.062,155.928 534.393,154.751 535.703,154.334C537.014,153.916 538.228,153.771 539.346,153.898C540.464,154.025 541.425,154.287 542.229,154.683C543.034,155.079 543.708,155.569 544.251,156.154C544.794,156.738 545.231,157.397 545.562,158.132C545.892,158.866 546.14,159.656 546.305,160.503C547.053,159.281 547.793,158.331 548.523,157.651C549.254,156.972 549.965,156.465 550.656,156.13C551.347,155.794 552.011,155.608 552.647,155.572C553.282,155.535 553.858,155.546 554.374,155.605C556.309,155.824 557.826,156.367 558.926,157.232C560.025,158.097 560.811,159.134 561.284,160.342C561.756,161.55 562.012,162.842 562.052,164.218C562.092,165.595 562.041,166.906 561.899,168.153C561.811,168.927 561.693,169.774 561.545,170.694C561.397,171.613 561.247,172.554 561.094,173.517C560.941,174.479 560.788,175.442 560.635,176.405C560.483,177.367 560.36,178.257 560.267,179.074C560.228,179.418 560.194,179.904 560.167,180.532C560.139,181.161 560.177,181.786 560.28,182.407C560.384,183.029 560.604,183.587 560.939,184.083C561.275,184.578 561.809,184.867 562.539,184.95C563.528,185.063 564.484,184.605 565.407,183.577C566.329,182.55 567.187,180.84 567.982,178.447L570.368,178.718C569.588,181.374 568.743,183.445 567.833,184.931C566.924,186.417 566.015,187.523 565.105,188.247C564.195,188.971 563.318,189.405 562.475,189.549C561.631,189.692 560.865,189.725 560.177,189.647C558.801,189.491 557.67,189.09 556.786,188.445C555.901,187.8 555.208,186.992 554.709,186.021C554.21,185.05 553.888,183.946 553.746,182.71C553.603,181.475 553.605,180.212 553.751,178.922C553.795,178.535 553.888,177.816 554.029,176.765C554.17,175.714 554.32,174.588 554.478,173.386C554.636,172.185 554.787,171.048 554.931,169.975C555.074,168.903 555.17,168.151 555.219,167.721C555.376,166.345 555.397,165.194 555.285,164.266C555.173,163.339 554.952,162.595 554.624,162.035C554.295,161.475 553.896,161.06 553.426,160.789C552.956,160.518 552.441,160.35 551.882,160.287C550.55,160.135 549.403,160.55 548.442,161.529C547.482,162.509 546.685,164.248 546.053,166.746L543.709,187.385L537.26,186.653L539.706,165.11C539.794,164.336 539.847,163.58 539.866,162.842C539.884,162.104 539.797,161.429 539.605,160.82C539.413,160.21 539.1,159.706 538.666,159.308C538.232,158.911 537.607,158.666 536.79,158.573C535.414,158.416 534.307,158.868 533.468,159.927C532.629,160.986 531.772,162.685 530.896,165.024L528.552,185.664L522.103,184.931L525.765,152.682L532.215,153.415Z" style="fill:white;fill-rule:nonzero;"/>
                <path d="M574.571,146.456L581.122,146.689L578.449,161.839C579.301,161.242 580.259,160.796 581.322,160.5C582.384,160.204 583.598,160.177 584.961,160.417C586.112,160.62 587.27,161.033 588.434,161.656C589.599,162.279 590.623,163.196 591.508,164.407C592.393,165.618 593.019,167.178 593.385,169.088C593.751,170.999 593.69,173.339 593.201,176.109C592.772,178.538 592.071,180.831 591.097,182.988C590.123,185.145 588.898,186.984 587.422,188.503C585.945,190.022 584.243,191.139 582.315,191.853C580.388,192.568 578.252,192.718 575.908,192.305C574.587,192.072 573.397,191.653 572.339,191.049C571.281,190.445 570.428,189.613 569.78,188.554C569.132,187.495 568.707,186.168 568.505,184.572C568.304,182.977 568.398,181.071 568.789,178.855L574.571,146.456ZM587.252,176.575C587.545,174.913 587.671,173.331 587.628,171.83C587.585,170.328 587.372,168.983 586.989,167.795C586.605,166.607 586.052,165.63 585.33,164.866C584.608,164.101 583.714,163.625 582.649,163.437C581.797,163.287 580.973,163.35 580.177,163.627C579.381,163.904 578.628,164.31 577.919,164.844L574.952,181.656C574.276,185.491 575.194,187.631 577.709,188.075C578.902,188.285 580.019,188.12 581.059,187.578C582.1,187.037 583.034,186.224 583.862,185.139C584.691,184.055 585.39,182.772 585.959,181.291C586.528,179.809 586.959,178.237 587.252,176.575Z" style="fill:white;fill-rule:nonzero;"/>
                <path d="M618.72,175.939C618.037,178.891 616.254,181.076 613.371,182.497C610.488,183.917 606.842,184.361 602.435,183.829C602.213,185.554 602.201,186.995 602.4,188.152C602.599,189.308 602.943,190.265 603.434,191.023C603.925,191.781 604.555,192.371 605.323,192.793C606.091,193.215 606.918,193.529 607.804,193.734C609.827,194.202 611.847,194.115 613.861,193.471C615.876,192.827 617.72,191.388 619.392,189.154L621.415,189.623C620.506,191.056 619.403,192.366 618.106,193.554C616.81,194.742 615.383,195.722 613.827,196.495C612.272,197.267 610.662,197.794 608.997,198.075C607.333,198.356 605.7,198.311 604.098,197.94C602.622,197.598 601.258,197.016 600.005,196.192C598.752,195.369 597.733,194.256 596.947,192.853C596.162,191.449 595.657,189.744 595.433,187.738C595.209,185.732 595.409,183.379 596.034,180.681C596.444,178.91 597.089,177.038 597.967,175.065C598.846,173.092 599.965,171.33 601.324,169.779C602.682,168.228 604.268,167.041 606.08,166.216C607.892,165.392 609.936,165.244 612.213,165.771C613.267,166.015 614.262,166.368 615.2,166.829C616.137,167.29 616.935,167.919 617.594,168.716C618.254,169.513 618.704,170.494 618.945,171.661C619.186,172.827 619.111,174.253 618.72,175.939ZM602.943,181.348C606.043,181.577 608.659,181.072 610.789,179.833C612.919,178.594 614.263,176.773 614.819,174.37C615.19,172.768 615.182,171.556 614.795,170.733C614.408,169.91 613.709,169.382 612.697,169.148C611.601,168.894 610.544,169.093 609.527,169.746C608.509,170.399 607.573,171.326 606.717,172.527C605.862,173.728 605.109,175.109 604.459,176.668C603.809,178.228 603.304,179.788 602.943,181.348Z" style="fill:white;fill-rule:nonzero;"/>
                <path d="M631.486,170.892L630.05,176.152C630.756,175.537 631.44,174.962 632.103,174.425C632.765,173.888 633.457,173.449 634.178,173.108C634.9,172.767 635.658,172.536 636.453,172.417C637.248,172.298 638.084,172.358 638.961,172.598C640.38,172.985 641.324,173.636 641.792,174.549C642.261,175.462 642.352,176.44 642.067,177.484C641.896,178.11 641.649,178.603 641.327,178.964C641.004,179.324 640.662,179.59 640.301,179.76C639.941,179.931 639.579,180.023 639.217,180.036C638.854,180.049 638.548,180.021 638.297,179.953C637.922,179.85 637.642,179.684 637.458,179.454C637.274,179.225 637.093,178.985 636.914,178.734C636.736,178.483 636.524,178.235 636.277,177.988C636.031,177.741 635.678,177.555 635.218,177.43C634.258,177.167 633.249,177.25 632.19,177.679C631.13,178.107 630.143,178.6 629.228,179.158L622.933,202.201L616.672,200.49L625.225,169.182L631.486,170.892Z" style="fill:white;fill-rule:nonzero;"/>
                <path d="M662.429,214.437L655.792,212.18L668.705,174.199L661.822,171.859L663.093,168.726C663.871,168.991 664.749,169.232 665.726,169.45C666.703,169.668 667.804,169.791 669.029,169.819C670.254,169.846 671.605,169.769 673.085,169.586C674.564,169.403 676.222,169.03 678.059,168.466L662.429,214.437Z" style="fill:white;fill-rule:nonzero;"/>
                <path d="M709.469,180.611C709.482,180.707 709.475,180.796 709.447,180.878C709.42,180.96 709.392,181.042 709.364,181.124C709.032,182.108 708.299,183.162 707.166,184.287C706.032,185.411 704.672,186.631 703.087,187.945C701.501,189.259 699.785,190.689 697.938,192.235C696.091,193.781 694.278,195.498 692.498,197.387C690.718,199.275 689.071,201.345 687.557,203.597C686.043,205.849 684.836,208.308 683.936,210.972C683.077,213.514 682.651,215.62 682.658,217.29C682.665,218.959 682.729,220.294 682.848,221.293C681.355,221.52 680.035,221.44 678.887,221.052C677.657,220.636 676.753,219.966 676.175,219.04C675.597,218.114 675.239,217.079 675.099,215.936C674.96,214.793 674.982,213.612 675.165,212.395C675.348,211.178 675.605,210.077 675.937,209.093C676.657,206.961 677.726,204.981 679.143,203.153C680.56,201.325 682.13,199.617 683.854,198.03C685.577,196.442 687.366,194.968 689.218,193.607C691.071,192.246 692.804,190.97 694.417,189.779C696.03,188.588 697.406,187.488 698.546,186.48C699.685,185.472 700.415,184.496 700.733,183.553C699.832,182.975 698.679,182.3 697.272,181.528C695.866,180.756 694.445,180.127 693.01,179.643C692.395,179.435 691.694,179.244 690.908,179.07C690.122,178.896 689.356,178.831 688.61,178.876C687.864,178.921 687.192,179.117 686.596,179.463C685.999,179.81 685.569,180.373 685.306,181.152C685.251,181.316 685.195,181.48 685.14,181.644C685.085,181.808 685.063,182.006 685.076,182.239C684.379,182.003 683.789,181.621 683.305,181.092C682.821,180.564 682.437,179.943 682.153,179.23C681.868,178.517 681.71,177.768 681.679,176.981C681.648,176.194 681.764,175.411 682.027,174.632C682.304,173.812 682.697,173.19 683.205,172.768C683.713,172.346 684.292,172.085 684.942,171.985C685.593,171.885 686.314,171.912 687.108,172.065C687.901,172.219 688.707,172.434 689.527,172.711C690.757,173.127 691.99,173.635 693.226,174.235C694.462,174.835 695.705,175.449 696.955,176.076C698.205,176.704 699.458,177.321 700.714,177.929C701.971,178.536 703.235,179.054 704.506,179.483C705.203,179.719 705.972,179.944 706.812,180.159C707.653,180.375 708.539,180.526 709.469,180.611Z" style="fill:white;fill-rule:nonzero;"/>
                <path d="M714.721,187.195L712.176,196.728L717.005,198.018L716.419,200.213L711.59,198.923L706.483,218.052C706.349,218.554 706.217,219.134 706.086,219.793C705.954,220.452 705.905,221.1 705.937,221.735C705.968,222.371 706.13,222.94 706.421,223.444C706.712,223.947 707.213,224.293 707.924,224.483C709.053,224.785 710.28,224.508 711.606,223.652C712.932,222.797 714.194,221.297 715.393,219.154L717.714,219.773C716.3,222.218 714.982,224.094 713.759,225.403C712.536,226.711 711.38,227.645 710.29,228.205C709.2,228.765 708.195,229.046 707.277,229.047C706.358,229.048 705.544,228.954 704.833,228.764C703.328,228.362 702.17,227.751 701.359,226.93C700.548,226.108 699.988,225.186 699.678,224.163C699.369,223.14 699.252,222.067 699.328,220.945C699.404,219.823 699.581,218.74 699.86,217.695L705.318,197.249L703.186,196.68L703.772,194.485L705.904,195.054L708.215,186.399L714.721,187.195Z" style="fill:white;fill-rule:nonzero;"/>
                <path d="M727.797,187.352L724.17,204.897C725.042,203.885 725.879,203.096 726.681,202.533C727.482,201.969 728.257,201.588 729.005,201.389C729.753,201.191 730.445,201.102 731.082,201.123C731.718,201.144 732.312,201.211 732.863,201.325C734.77,201.72 736.232,202.397 737.248,203.359C738.265,204.32 738.953,205.424 739.315,206.669C739.676,207.915 739.812,209.236 739.722,210.631C739.632,212.027 739.456,213.36 739.193,214.632C738.904,216.03 738.501,217.714 737.983,219.684C737.465,221.654 737.014,223.571 736.628,225.436C736.541,225.86 736.457,226.373 736.376,226.975C736.296,227.577 736.305,228.175 736.403,228.77C736.501,229.365 736.72,229.907 737.061,230.397C737.401,230.888 737.974,231.216 738.779,231.382C739.076,231.444 739.443,231.486 739.88,231.51C740.317,231.534 740.663,231.462 740.919,231.294L740.827,231.739C740.59,232.884 740.258,233.743 739.83,234.317C739.402,234.892 738.941,235.304 738.447,235.556C737.953,235.807 737.443,235.923 736.917,235.902C736.391,235.882 735.937,235.832 735.556,235.754C734.242,235.482 733.174,234.985 732.351,234.263C731.528,233.54 730.901,232.67 730.471,231.653C730.04,230.636 729.808,229.517 729.773,228.294C729.739,227.072 729.857,225.804 730.129,224.49C730.208,224.109 730.365,223.401 730.601,222.367C730.837,221.333 731.088,220.225 731.354,219.043C731.621,217.861 731.874,216.742 732.114,215.687C732.355,214.632 732.519,213.892 732.606,213.469C732.887,212.113 733.013,210.968 732.985,210.034C732.957,209.1 732.805,208.339 732.529,207.752C732.252,207.165 731.892,206.715 731.449,206.402C731.005,206.089 730.508,205.876 729.957,205.762C728.643,205.491 727.4,205.786 726.228,206.648C725.055,207.511 723.914,209.131 722.804,211.508L718.598,231.85L712.242,230.536L721.256,186.928L727.797,187.352Z" style="fill:white;fill-rule:nonzero;"/>
                <path d="M743.117,232.001C743.2,231.444 743.404,230.95 743.731,230.517C744.058,230.084 744.449,229.738 744.903,229.477C745.357,229.216 745.845,229.026 746.366,228.907C746.887,228.787 747.382,228.763 747.853,228.833C749.48,229.074 750.573,229.74 751.133,230.829C751.693,231.919 751.865,233.191 751.649,234.646C751.496,235.674 751.175,236.731 750.686,237.817C750.196,238.904 749.606,239.932 748.915,240.901C748.224,241.87 747.464,242.72 746.633,243.45C745.803,244.18 744.953,244.677 744.082,244.941C743.729,244.67 743.519,244.387 743.453,244.093C743.388,243.799 743.374,243.523 743.412,243.266C743.476,242.838 743.616,242.411 743.832,241.984C744.049,241.556 744.275,241.142 744.51,240.739C744.744,240.336 744.968,239.932 745.182,239.526C745.395,239.12 745.531,238.725 745.588,238.34C745.683,237.698 745.666,237.225 745.536,236.921C745.406,236.617 745.235,236.373 745.021,236.188C744.808,236.004 744.557,235.857 744.267,235.748C743.976,235.639 743.731,235.45 743.531,235.179C743.33,234.909 743.178,234.536 743.073,234.061C742.969,233.587 742.984,232.9 743.117,232.001Z" style="fill:white;fill-rule:nonzero;"/>
                <path d="M777.522,234.169C779.38,234.255 781.371,234.541 783.493,235.029C785.615,235.517 787.756,235.81 789.918,235.91C791.085,235.964 792.083,235.923 792.913,235.788C793.742,235.653 794.457,235.415 795.057,235.074C795.658,234.734 796.187,234.292 796.645,233.75C797.104,233.208 797.588,232.559 798.1,231.803C798.368,232.552 798.571,233.319 798.708,234.105C798.845,234.891 798.897,235.652 798.863,236.387C798.813,237.468 798.588,238.356 798.188,239.052C797.788,239.749 797.275,240.299 796.65,240.704C796.025,241.108 795.287,241.377 794.436,241.511C793.585,241.645 792.684,241.691 791.733,241.647C790.479,241.589 789.166,241.42 787.792,241.14C786.419,240.861 785.09,240.561 783.805,240.242C782.52,239.923 781.321,239.629 780.207,239.361C779.093,239.093 778.146,238.942 777.368,238.906C776.288,238.856 775.212,238.926 774.142,239.115C773.072,239.304 771.983,239.676 770.874,240.231C770.754,240.009 770.6,239.601 770.411,239.008C770.221,238.414 770.155,237.512 770.21,236.302C770.308,234.183 770.862,232.26 771.873,230.53C772.884,228.8 774.12,227.135 775.58,225.535C777.04,223.934 778.607,222.36 780.281,220.813C781.955,219.265 783.525,217.626 784.991,215.896C786.457,214.166 787.702,212.306 788.725,210.317C789.748,208.328 790.317,206.08 790.433,203.573C790.542,201.195 790.134,199.238 789.208,197.701C788.283,196.163 786.718,195.344 784.513,195.242C782.481,195.149 780.92,195.662 779.829,196.781C778.737,197.901 778.157,199.217 778.087,200.73C778.055,201.421 778.168,202.261 778.426,203.247C778.684,204.234 779.231,205.05 780.068,205.695C779.521,206.276 778.951,206.672 778.356,206.883C777.761,207.094 777.205,207.187 776.686,207.163C775.908,207.128 775.246,206.913 774.701,206.52C774.156,206.126 773.714,205.608 773.376,204.964C773.037,204.32 772.789,203.605 772.63,202.818C772.471,202.031 772.41,201.248 772.446,200.47C772.575,197.66 773.768,195.516 776.023,194.039C778.279,192.562 781.352,191.913 785.243,192.092C787.923,192.215 790.1,192.684 791.774,193.498C793.448,194.311 794.755,195.324 795.695,196.537C796.636,197.75 797.267,199.09 797.589,200.556C797.912,202.022 798.04,203.468 797.974,204.895C797.853,207.532 797.237,209.864 796.125,211.893C795.014,213.921 793.662,215.765 792.069,217.424C790.476,219.084 788.75,220.596 786.889,221.962C785.028,223.327 783.267,224.654 781.604,225.942C779.942,227.23 778.517,228.551 777.328,229.904C776.139,231.257 775.422,232.729 775.175,234.321C775.832,234.178 776.614,234.127 777.522,234.169Z" style="fill:white;fill-rule:nonzero;"/>
                <path d="M817.81,192.021C820.706,191.881 823.159,192.424 825.167,193.648C827.176,194.873 828.838,196.537 830.152,198.639C831.466,200.742 832.451,203.186 833.105,205.971C833.759,208.755 834.158,211.639 834.301,214.622C834.451,217.734 834.319,220.838 833.905,223.934C833.491,227.03 832.706,229.83 831.548,232.333C830.391,234.837 828.81,236.884 826.807,238.476C824.805,240.067 822.29,240.935 819.264,241.081C816.974,241.192 814.843,240.818 812.874,239.959C810.905,239.101 809.171,237.733 807.672,235.856C806.174,233.978 804.953,231.568 804.009,228.624C803.066,225.68 802.497,222.176 802.301,218.113C802.12,214.353 802.311,210.899 802.874,207.752C803.437,204.606 804.367,201.886 805.665,199.592C806.963,197.298 808.63,195.496 810.668,194.184C812.707,192.873 815.087,192.152 817.81,192.021ZM810.396,217.528C810.506,219.819 810.757,222.092 811.147,224.348C811.537,226.604 812.111,228.623 812.869,230.406C813.626,232.19 814.572,233.617 815.707,234.689C816.842,235.761 818.209,236.258 819.808,236.181C821.408,236.104 822.74,235.444 823.807,234.201C824.874,232.958 825.704,231.315 826.299,229.272C826.894,227.229 827.279,224.892 827.456,222.262C827.633,219.633 827.652,216.892 827.515,214.039C827.331,210.235 826.942,207.102 826.347,204.639C825.752,202.177 825.041,200.24 824.215,198.828C823.389,197.417 822.486,196.453 821.508,195.937C820.53,195.42 819.588,195.184 818.68,195.228C817.167,195.301 815.857,195.981 814.749,197.27C813.641,198.558 812.747,200.236 812.067,202.305C811.387,204.374 810.905,206.726 810.62,209.361C810.335,211.996 810.261,214.718 810.396,217.528Z" style="fill:white;fill-rule:nonzero;"/>
                <path d="M847.149,232.112C848.991,231.847 851,231.755 853.176,231.835C855.352,231.916 857.51,231.802 859.652,231.494C860.809,231.328 861.781,231.1 862.571,230.812C863.36,230.524 864.017,230.156 864.543,229.709C865.069,229.261 865.506,228.729 865.855,228.11C866.203,227.492 866.557,226.763 866.917,225.924C867.322,226.609 867.665,227.325 867.948,228.071C868.23,228.818 868.423,229.555 868.528,230.283C868.682,231.354 868.628,232.269 868.365,233.028C868.103,233.787 867.703,234.424 867.164,234.939C866.626,235.453 865.952,235.856 865.141,236.148C864.331,236.439 863.454,236.653 862.512,236.788C861.27,236.967 859.948,237.048 858.546,237.031C857.145,237.014 855.783,236.969 854.461,236.897C853.139,236.825 851.906,236.761 850.761,236.707C849.617,236.653 848.659,236.682 847.888,236.793C846.817,236.947 845.774,237.217 844.758,237.603C843.743,237.99 842.743,238.56 841.758,239.314C841.599,239.118 841.371,238.746 841.073,238.199C840.776,237.651 840.541,236.778 840.369,235.579C840.067,233.48 840.25,231.486 840.918,229.597C841.587,227.709 842.488,225.841 843.621,223.995C844.755,222.149 845.999,220.309 847.353,218.474C848.706,216.64 849.941,214.736 851.056,212.761C852.171,210.786 853.044,208.726 853.676,206.58C854.307,204.435 854.444,202.12 854.087,199.635C853.748,197.279 852.98,195.433 851.782,194.097C850.585,192.761 848.893,192.25 846.709,192.564C844.696,192.854 843.258,193.651 842.397,194.955C841.535,196.26 841.212,197.661 841.427,199.161C841.526,199.846 841.794,200.649 842.233,201.57C842.671,202.49 843.362,203.189 844.305,203.665C843.877,204.339 843.391,204.835 842.847,205.154C842.302,205.473 841.773,205.669 841.259,205.743C840.488,205.854 839.798,205.767 839.189,205.483C838.579,205.199 838.048,204.773 837.595,204.204C837.141,203.635 836.763,202.979 836.459,202.236C836.156,201.493 835.948,200.735 835.837,199.964C835.437,197.18 836.206,194.851 838.144,192.976C840.083,191.102 842.979,189.887 846.834,189.333C849.49,188.951 851.716,189.003 853.513,189.487C855.31,189.972 856.784,190.722 857.935,191.737C859.087,192.752 859.959,193.949 860.55,195.329C861.142,196.708 861.54,198.105 861.743,199.518C862.119,202.131 861.951,204.538 861.24,206.739C860.529,208.939 859.547,211.004 858.295,212.933C857.042,214.862 855.63,216.672 854.058,218.363C852.487,220.053 851.006,221.687 849.615,223.264C848.224,224.841 847.072,226.406 846.159,227.958C845.245,229.511 844.817,231.092 844.873,232.701C845.491,232.437 846.25,232.241 847.149,232.112Z" style="fill:white;fill-rule:nonzero;"/>
                <path d="M886.662,181.445C887.062,182.018 887.399,182.562 887.674,183.076C887.949,183.59 888.159,184.163 888.306,184.795C888.639,186.228 888.468,187.501 887.793,188.612C887.118,189.724 885.684,190.535 883.492,191.043C882.649,191.239 881.76,191.379 880.824,191.463C879.889,191.546 878.959,191.607 878.034,191.644C877.11,191.68 876.217,191.71 875.356,191.732C874.495,191.754 873.712,191.78 873.008,191.81L873.454,205.501C874.636,204.471 875.815,203.665 876.99,203.081C878.165,202.497 879.406,202.054 880.713,201.751C882.989,201.222 885.064,201.163 886.936,201.573C888.808,201.982 890.448,202.734 891.857,203.829C893.266,204.923 894.437,206.284 895.37,207.911C896.303,209.538 896.99,211.301 897.43,213.197C897.89,215.179 898.038,217.155 897.873,219.125C897.708,221.096 897.189,222.927 896.316,224.618C895.442,226.309 894.186,227.789 892.548,229.057C890.91,230.326 888.826,231.254 886.297,231.841C884.822,232.183 883.273,232.354 881.651,232.353C880.03,232.352 878.488,232.076 877.028,231.527C875.568,230.977 874.263,230.092 873.113,228.87C871.963,227.649 871.139,225.963 870.64,223.813C870.082,221.41 870.154,219.517 870.854,218.133C871.555,216.748 872.622,215.89 874.055,215.557C874.982,215.342 875.929,215.4 876.894,215.731C877.859,216.063 878.722,216.717 879.483,217.696C876.717,218.604 875.637,220.365 876.244,222.979C876.488,224.033 876.904,224.914 877.49,225.622C878.077,226.33 878.763,226.893 879.548,227.31C880.334,227.727 881.193,227.983 882.125,228.078C883.058,228.172 883.988,228.112 884.915,227.897C886.349,227.564 887.495,226.954 888.355,226.066C889.215,225.177 889.842,224.144 890.234,222.964C890.627,221.784 890.824,220.528 890.826,219.195C890.827,217.862 890.681,216.563 890.388,215.298C889.615,211.968 888.117,209.628 885.893,208.278C883.67,206.929 881.103,206.591 878.195,207.266C876.298,207.707 874.619,208.418 873.159,209.401C871.699,210.384 870.568,211.346 869.764,212.288L868.511,186.79C870.561,186.625 872.293,186.479 873.707,186.351C875.121,186.222 876.608,185.977 878.168,185.615C879.854,185.224 881.327,184.727 882.586,184.123C883.845,183.52 885.204,182.627 886.662,181.445Z" style="fill:white;fill-rule:nonzero;"/>
            </g>
            <g id="Laag_3">
                <path d="M28.9,136.1L27.4,160.1C27.3,161.5 28.4,162.8 29.8,162.9C54.7,165.2 252.1,182 265.8,151.7L28.9,136.1Z" style="fill:rgb(236,240,241);fill-rule:nonzero;"/>
                <path d="M28.9,136.3L30.5,112C30.6,110.7 31.7,109.8 32.9,109.8C56.5,110.8 256.1,119.9 265.7,151.9L28.9,136.3Z" style="fill:rgb(189,195,199);fill-rule:nonzero;"/>
                <g>
                    <path d="M39.1,136.8L28.9,136.1L27.3,160.8C27.2,161.9 28,162.8 29.1,162.9C30.8,163.1 33.6,163.3 37.3,163.6L39.1,136.8Z" style="fill:rgb(231,76,60);fill-rule:nonzero;"/>
                    <path d="M40.8,110.1C37.1,109.9 34.3,109.8 32.6,109.7C31.5,109.7 30.6,110.5 30.5,111.6L28.9,136.3L39.1,137L40.8,110.1Z" style="fill:rgb(192,57,43);fill-rule:nonzero;"/>
                </g>
                <g>
                    <path d="M0,134.2C0.2,138 9.7,142.8 12.3,144.3C15.4,146.1 22.2,150 24.6,145.3C25.1,144.4 26,139.6 25.7,135.9L0,134.2Z" style="fill:rgb(195,130,0);fill-rule:nonzero;"/>
                    <path d="M0,134.2C0.2,138 9.7,142.8 12.3,144.3C15.4,146.1 22.2,150 24.6,145.3C25.1,144.4 26,139.6 25.7,135.9L0,134.2Z" style="fill:rgb(231,76,60);fill-rule:nonzero;"/>
                    <path d="M0,134.4C0.7,130.6 10.8,127.1 13.5,126C16.8,124.6 24.1,121.7 25.8,126.6C26.1,127.6 26.5,132.4 25.7,136.1L0,134.4Z" style="fill:rgb(192,57,43);fill-rule:nonzero;"/>
                </g>
                <path d="M133.7,123.9C144.3,124.6 152.3,133.7 151.6,144.3C150.9,154.9 141.8,162.9 131.2,162.2C120.6,161.5 112.6,152.4 113.3,141.8C114,131.2 123.1,123.2 133.7,123.9Z" style="fill:rgb(44,62,80);fill-rule:nonzero;"/>
                <g>
                    <path d="M18.7,144.4L18.4,215C18.4,216.7 17,218 15.3,217.9L11.1,217.6C7,217.3 4,213.7 4.5,209.6L12.9,143.9C13.1,142.4 14.4,141.3 16,141.4C17.5,141.5 18.7,142.8 18.7,144.4Z" style="fill:rgb(231,76,60);fill-rule:nonzero;"/>
                    <path d="M19.5,130.7L28.7,57.9C29,55.6 27.3,53.5 24.9,53.3L19.4,53C16.7,52.8 14.4,54.9 14.4,57.6L14,130.3L19.5,130.7Z" style="fill:rgb(192,57,43);fill-rule:nonzero;"/>
                </g>
                <path d="M122.5,1.9C129,2.3 133.9,7.9 133.5,14.4L116.6,270.7C116.2,277.2 110.6,282.1 104.1,281.7L76,279.8C69.5,279.4 64.6,273.8 65,267.3L81.9,11C82.3,4.5 87.9,-0.4 94.4,0L122.5,1.9Z" style="fill:rgb(231,76,60);fill-rule:nonzero;"/>
                <g>
                    <g transform="matrix(0.0657007,-0.9978,0.9978,0.0657007,70.2819,162.788)">
                        <rect x="99.4" y="34.5" width="45.4" height="18.8" style="fill:rgb(231,76,60);"/>
                    </g>
                    <g transform="matrix(0.0657007,-0.9978,0.9978,0.0657007,-137.489,333.193)">
                        <rect x="86.5" y="230.6" width="45.4" height="18.8" style="fill:rgb(231,76,60);"/>
                    </g>
                </g>
                <g>
                    <path d="M237.6,92.1C243.1,92.5 247.3,97.2 246.9,102.8L240.6,198.1C240.2,203.6 235.5,207.8 229.9,207.4L209.2,206C203.7,205.6 199.5,200.9 199.9,195.3L206.2,100C206.6,94.5 211.3,90.3 216.9,90.7L237.6,92.1Z" style="fill:rgb(192,57,43);fill-rule:nonzero;"/>
                    <path d="M207.5,147.8C207.4,149.5 212.5,151.2 218.9,151.6L262.6,154.5C269,154.9 274.3,153.9 274.4,152.2C274.5,150.5 269.4,148.8 263,148.4L219.3,145.5C212.9,145.1 207.6,146.1 207.5,147.8Z" style="fill:rgb(231,76,60);fill-rule:nonzero;"/>
                </g>
            </g>
        </g>
    </g>
</svg>
