<?xml version="1.0" encoding="UTF-8" standalone="no"?>
<!DOCTYPE svg PUBLIC "-//W3C//DTD SVG 1.1//EN" "http://www.w3.org/Graphics/SVG/1.1/DTD/svg11.dtd">
<svg width="100%" height="100%" viewBox="0 0 612 792" version="1.1" xmlns="http://www.w3.org/2000/svg" xmlns:xlink="http://www.w3.org/1999/xlink" xml:space="preserve" xmlns:serif="http://www.serif.com/" style="fill-rule:evenodd;clip-rule:evenodd;stroke-linejoin:round;stroke-miterlimit:2;">
    <path d="M479.8,507.2C481.5,506.9 483.3,506.4 484.9,505.6C486.6,504.8 487.9,503.7 489.1,502.3C490.2,500.8 491,499.1 491.5,497C492,494.9 492,492.4 491.6,489.6C491.2,487.5 490.9,485.5 490.4,483.6C489.9,481.6 489.3,479.3 488.6,476.6C487.9,473.9 487,470.6 485.9,466.6C485.5,465.3 485.2,463.8 484.8,462.2C484.1,465.8 483.4,469.3 482.5,472.8C481.3,477.7 479.7,482.6 478.1,487.7C478.3,488.2 478.5,488.8 478.6,489.5C478.6,489.6 478.6,489.8 478.7,489.9C479.4,490.3 480.1,490.7 480.7,491.2C481.6,492 482.2,493.2 482.4,494.5C482.7,496.5 482.4,498.4 481.3,500.3C480.3,502.2 478.7,503.3 476.4,503.7C475.5,503.8 474.7,503.8 473.8,503.7C472.9,503.6 472.2,503.1 471.6,502.3C471.8,503.7 472.2,505 472.5,506.1C474.3,507.4 476.8,507.7 479.8,507.2Z" style="fill:none;fill-rule:nonzero;"/>
    <path d="M393.6,355.2C391.5,355.6 389.7,356.9 388,359.2C386.3,361.5 385,364.4 383.7,367.9C382.5,371.4 381.5,375.2 380.7,379.3C380.3,381.3 380,383.1 379.8,385C381.3,384.3 382.8,383.5 384.2,382.4C386.8,380.4 389.1,378 390.9,375.3C392.7,372.5 394,369.5 394.8,366.2C395.6,362.9 395.7,359.5 395.2,356.2C395.1,355.8 395.1,355.5 395,355.3C394.5,355.2 394.1,355.2 393.6,355.2Z" style="fill:none;fill-rule:nonzero;"/>
    <path d="M105.3,404.6L107,367.4C104,370.7 101.1,375.1 98.4,380.6C95.1,387.2 92.2,394.4 89.5,402.4C91.3,402.5 93.1,402.7 94.9,402.8C98.5,403.2 102,403.8 105.3,404.6Z" style="fill:none;fill-rule:nonzero;"/>
    <path d="M440.2,455.7C438.1,456.1 436.3,457.4 434.6,459.6C432.9,461.8 431.5,464.7 430.2,468.1C429,471.5 428,475.3 427.3,479.4C426.9,481.4 426.6,483.4 426.4,485.3C428,484.6 429.4,483.7 430.9,482.6C433.5,480.6 435.8,478.2 437.6,475.5C439.4,472.7 440.6,469.7 441.4,466.4C442.1,463.1 442.3,459.8 441.7,456.5C441.6,456.1 441.6,455.8 441.5,455.6C441.2,455.6 440.7,455.6 440.2,455.7Z" style="fill:none;fill-rule:nonzero;"/>
    <path d="M138.3,327.2L143.9,326.3C175.4,272 234.2,235.3 301.3,235.3C368.4,235.3 404,259 437.3,296.6C403.9,256.4 353.6,230.6 297.6,230.6C241.6,230.6 172.9,265.4 140.5,321.4L140.4,321.4C140.4,321.5 128.4,323.4 128.4,323.4L128.3,323.4L132.7,328L138.3,327.2Z" style="fill:rgb(241,196,17);fill-rule:nonzero;"/>
    <path d="M146.5,512.6C142.5,506.1 139,499.5 135.8,492.6L132.3,487.2L132.3,487.4C136.5,496.2 141.3,504.7 146.5,512.6Z" style="fill:rgb(241,196,17);fill-rule:nonzero;"/>
    <path d="M436.7,542.7C435.1,544.4 433.7,545.8 432.4,547.1C396.4,583.1 348.4,603 297.5,603C246.6,603 198.6,583.1 162.6,547C158.8,543.2 155.1,539.2 151.7,535.1C156.3,540.9 161.3,546.5 166.6,551.8C202.6,587.8 250.4,607.6 301.3,607.6C352.2,607.6 400,587.9 436,551.8C437.5,550.3 438.8,548.9 440.2,547.4L437.5,541.8L436.7,542.7Z" style="fill:rgb(241,196,17);fill-rule:nonzero;"/>
    <path d="M459.6,311.1C477.8,340.2 487.9,373.8 488.4,408.9L488.4,409.2L478.9,410.7L483,415.3L491.7,414C491.1,376.8 480,341.3 459.6,311.1Z" style="fill:rgb(241,196,17);fill-rule:nonzero;"/>
    <path d="M55.2,491.9C55.2,491.967 55.2,491.967 55.2,491.9Z" style="fill:rgb(241,196,17);fill-rule:nonzero;"/>
    <path d="M107,367.4L107.4,358.6C102.9,362 98.7,367.7 94.8,375.6C90.9,383.5 87.4,392.4 84.3,402.3C86,402.4 87.8,402.4 89.5,402.5C92.2,394.5 95.2,387.2 98.4,380.7C101.2,375 104.1,370.7 107,367.4Z" style="fill:rgb(241,196,17);fill-rule:nonzero;"/>
    <path d="M52.9,417.1C49.9,418.9 48,421.3 47.3,424.3C47.7,424.2 48.3,424.7 49,425.7C49.7,426.7 50.1,427.8 50.3,429C50.6,431 50,432.6 48.3,434.1C46.7,435.6 44.6,436.5 42.1,436.9C40,437.3 38,437.1 36.2,436.5L36,439C36.6,439.7 37.3,440.3 38.1,440.7C40.3,441.9 42.9,442.4 45.7,441.9C48.2,441.5 50.3,440.5 51.9,439.1C53.5,437.6 54.1,436 53.9,434C53.7,432.8 53.2,431.7 52.6,430.7C51.9,429.7 51.4,429.2 50.9,429.3C51.6,426.3 53.4,423.9 56.5,422.1C58.2,421.1 60.3,420.2 62.7,419.3C63.5,417.1 64.3,414.8 65.2,412.5C60.1,413.8 56.1,415.3 52.9,417.1Z" style="fill:rgb(241,196,17);fill-rule:nonzero;"/>
    <path d="M135.3,350C135.3,350 135.2,350 135.3,350L131.7,344.9L125.9,469.8L102.3,473.7L105.9,478.8L129.5,474.9L135.3,350Z" style="fill:rgb(241,196,17);fill-rule:nonzero;"/>
    <path d="M93,409.9C89.4,409.6 85.8,409.6 82.1,409.8C80.1,417 78.4,424.3 77,431.8C75.5,439.3 74.4,446.4 73.7,453.3C72.9,460.2 72.5,466.6 72.3,472.5C72.3,478.4 72.3,483.4 73.1,487.6C73.6,490.8 74.3,493 75,494.2C75.7,495.4 76.4,496.4 77.1,497C74.9,497.4 72.5,497.7 69.9,497.9C67.3,498.1 64.8,497.8 62.4,497.1C60,496.4 57.9,494.9 56,492.8C55.8,492.5 55.6,492.3 55.3,492L58.8,496.9C58.8,497 59,497.2 59.1,497.3L59.1,497.5C59.3,497.6 59.4,497.9 59.6,498C61.5,500.1 63.6,501.6 66,502.3C68.4,503 70.9,503.3 73.5,503.1C76.1,502.9 78.5,502.6 80.7,502.2C80,501.5 79.3,500.6 78.6,499.4C77.9,498.2 77.3,496 76.7,492.8C76,488.7 75.8,483.6 75.9,477.7C76,471.8 76.5,465.4 77.3,458.5C78.1,451.6 79.2,444.4 80.6,437C82.1,429.5 83.8,422.2 85.7,415C89.4,414.7 93,414.8 96.6,415.1C99.1,415.3 101.9,415.8 104.9,416.4L105.1,412.3C100.6,410.9 96.6,410.2 93,409.9Z" style="fill:rgb(241,196,17);fill-rule:nonzero;"/>
    <path d="M164.8,388.3C162.3,388.7 160.2,389.2 158.5,389.8C156.8,390.4 156,391.3 156.3,392.5C156.4,392.7 156.4,392.9 156.6,392.9C156.8,392.9 157,393 157.3,393.1C157.6,393.2 157.9,393.5 158.1,393.8C158.3,394.2 158.5,394.8 158.7,395.8C159.2,398.8 158.6,401.2 157,402.9C155.3,404.6 153.4,405.6 151.3,405.9C149.4,406.2 147.6,405.9 145.9,405C145.2,404.6 144.6,404.1 144.1,403.5L147.6,408.4C148.1,409.1 148.8,409.6 149.5,410C151.3,410.9 153.1,411.2 154.9,410.9C157.1,410.5 159,409.5 160.6,407.9C162.2,406.3 162.8,403.8 162.3,400.8C162.2,399.8 161.9,399.1 161.7,398.8C161.5,398.5 161.2,398.2 160.9,398.1C160.6,398 160.4,397.9 160.2,397.9C160,397.9 159.9,397.8 159.9,397.5C159.7,396.3 160.5,395.4 162.1,394.8C163.8,394.2 165.9,393.7 168.4,393.3L171.7,392.7L173.9,386.7L164.8,388.3Z" style="fill:rgb(241,196,17);fill-rule:nonzero;"/>
    <path d="M204.5,444.9C204,447.1 203,449.3 201.5,451.3C200,453.3 198.2,455.1 195.9,456.6C193.7,458.1 190.9,459.1 187.7,459.6L144.3,466.8L147.9,471.9L191.3,464.7C194.5,464.2 197.2,463.2 199.5,461.7C201.7,460.2 203.6,458.4 205.1,456.4C206.6,454.4 207.6,452.3 208.1,450C208.6,447.8 208.8,445.7 208.5,443.9C208.3,442.4 207.7,441.1 207,439.9L207,439.7C206.9,439.7 206.8,439.6 206.8,439.6L203.3,434.7C204.1,435.9 204.6,437.2 204.9,438.8C205.1,440.7 205,442.7 204.5,444.9Z" style="fill:rgb(241,196,17);fill-rule:nonzero;"/>
    <path d="M177.9,448.9L204.6,378.3L201,373.2L172.3,449.2C173.6,449.2 175.5,449 177.9,448.9Z" style="fill:rgb(241,196,17);fill-rule:nonzero;"/>
    <path d="M203,434.4C203,434.4 203,434.5 203,434.4Z" style="fill:rgb(241,196,17);fill-rule:nonzero;"/>
    <path d="M201.4,432.9C201.4,432.9 201.5,432.9 201.4,432.9Z" style="fill:rgb(241,196,17);fill-rule:nonzero;"/>
    <path d="M321.1,379.2C323,376.9 324.7,374.9 326.4,373.5C328.1,372 330,371 332,370.7C332.2,370.7 332.4,370.6 332.5,370.6C332.4,370.5 332.4,370.4 332.3,370.2C331.8,369 331.3,367.9 330.8,366.8C330.4,365.8 329.5,365.3 328.3,365.5C326.2,365.9 324.4,366.8 322.7,368.3C321,369.8 319.3,371.7 317.4,374L314.6,438.5L291,442.4L291.4,432.9C289.9,435.2 288.4,437.2 286.8,438.8C284.1,441.4 281.4,443.3 278.8,444.5C276,445.7 273.6,446.4 271.4,446.7C266.7,447.5 262.8,446.8 259.5,444.6C258.9,444.2 258.3,443.7 257.8,443.2C259.2,446 260.9,448.1 263.1,449.7C266.3,451.9 270.3,452.5 275,451.8C277.2,451.4 279.6,450.7 282.4,449.6C285.2,448.4 287.8,446.6 290.4,443.9C290.7,443.6 291.1,443.2 291.3,442.9L294.6,447.5L316.2,443.9C316.8,442.2 317.5,440.6 318.4,438.9L321.1,379.2Z" style="fill:rgb(241,196,17);fill-rule:nonzero;"/>
    <path d="M233.3,429.9C233.6,431.8 234.2,433.3 235.2,434.5C235.7,435.2 236.4,435.6 237.2,435.8C237.1,435.5 237.1,435.3 237.1,435C236.9,433.5 236.8,432 236.8,430.4L239.4,372.7L235.8,367.6L233.2,425.3C233,426.9 233.2,428.4 233.3,429.9Z" style="fill:rgb(241,196,17);fill-rule:nonzero;"/>
    <path d="M273.8,423.8C274.2,426.1 275,427.6 276.2,428.3C276.6,428.5 276.9,428.7 277.4,428.7C277.2,427.1 277.1,425.4 277.2,423.5L279.8,365.8L276.2,360.7L273.6,418.4C273.4,420.4 273.6,422.2 273.8,423.8Z" style="fill:rgb(241,196,17);fill-rule:nonzero;"/>
    <path d="M349.4,364.8C349.1,366.3 348.6,367.7 347.8,369C347,370.3 345.9,371.5 344.5,372.4C343.1,373.3 341.5,374 339.5,374.3C337.7,374.6 336.3,374.4 335.3,373.9C335.5,374.3 335.7,374.8 335.9,375.2C336.4,376.4 337.2,377.5 338.2,378.5C339.2,379.5 340.9,379.7 343.1,379.4C345.1,379.1 346.7,378.5 348.1,377.5C349.5,376.6 350.6,375.4 351.4,374.1C352.2,372.8 352.7,371.4 353,369.9C353.3,368.4 353.3,366.9 353,365.5C352.5,362.3 351,359.6 348.7,357.5L348.5,357.3C348.9,358.3 349.2,359.3 349.4,360.5C349.7,361.8 349.6,363.3 349.4,364.8Z" style="fill:rgb(241,196,17);fill-rule:nonzero;"/>
    <path d="M322,359.4L322,358.9L318.4,353.8L317.8,364.5C319.2,362.6 320.6,361 322,359.4Z" style="fill:rgb(241,196,17);fill-rule:nonzero;"/>
    <path d="M247.6,443.1C245.8,445.5 244,447.4 242.1,448.8C240.2,450.3 238.3,451.3 236.4,452C234.5,452.7 232.7,453.2 230.9,453.5C226,454.3 221.5,453.4 217.6,450.9C217,450.5 216.4,450.1 215.9,449.6C217.2,452.4 218.9,454.5 221.2,456C225.1,458.5 229.5,459.4 234.5,458.6C236.2,458.3 238.1,457.8 240,457.1C241.9,456.4 243.8,455.3 245.7,453.9C247.6,452.4 249.5,450.6 251.2,448.2C252.7,446.2 254.2,443.7 255.5,440.7C254.3,438.9 253.3,436.6 252.6,434C251,437.6 249.4,440.7 247.6,443.1Z" style="fill:rgb(241,196,17);fill-rule:nonzero;"/>
    <path d="M338.2,432.2C335.7,433.7 333.8,435.9 332.3,438.7C330.8,441.5 329.8,445 329.4,449.3C329,453.6 329.3,458.9 330.3,465C330.7,467.2 331,469 331.5,470.4C331.9,471.8 332.3,472.9 332.7,473.8C333.1,474.7 333.4,475.4 333.8,475.9C334.2,476.4 334.5,476.8 334.8,477.3C328.9,478.2 324.4,477.8 321.1,475.8C319.6,474.9 318.3,473.6 317.3,471.8C317.3,471.9 321.6,477.9 321.6,477.9C322.5,479.1 323.5,480.1 324.7,480.8C328,482.8 332.5,483.2 338.4,482.3C338.1,481.9 337.7,481.4 337.4,480.9C337,480.4 336.7,479.7 336.3,478.8C335.9,477.9 335.6,476.8 335.1,475.4C334.7,474 334.3,472.2 333.9,470C332.9,463.8 332.6,458.5 333,454.3C333.4,450 334.4,446.5 335.9,443.7C337.4,440.9 339.4,438.8 341.8,437.2C343.1,436.4 344.5,435.7 345.9,435.2L346.2,429C343.3,429.6 340.7,430.7 338.2,432.2Z" style="fill:rgb(241,196,17);fill-rule:nonzero;"/>
    <path d="M404,384.8C407,381.2 409.1,377.3 410.6,372.9C412,368.5 412.3,364.1 411.5,359.3C411.1,357.2 410.6,355.3 409.8,353.5C409.6,353 409.3,352.5 408.9,352L408.2,356.1L408.1,356.1C408.5,360.2 408.1,364 406.9,367.8C405.5,372.2 403.3,376.1 400.3,379.7C397.3,383.3 393.7,386.4 389.5,388.9C385.3,391.4 380.7,393.3 375.9,394.4C376,395.3 376,396.1 376,397C376.1,397.8 376.2,398.7 376.4,399.5C376.7,401.2 377.1,402.8 377.6,404.3C378.1,405.8 378.9,407.2 379.8,408.4C380.2,409 380.8,409.4 381.3,409.9C381.2,409.8 381.2,409.6 381.1,409.4C380.6,407.9 380.2,406.3 379.9,404.6C379.8,403.7 379.6,402.9 379.5,402.1C379.4,401.3 379.4,400.4 379.4,399.5C384.3,398.3 388.8,396.5 393,394C397.4,391.4 400.9,388.4 404,384.8Z" style="fill:rgb(241,196,17);fill-rule:nonzero;"/>
    <path d="M380.8,379.4C381.6,375.3 382.5,371.4 383.8,368C385,364.6 386.5,361.7 388.1,359.3C389.8,357 391.6,355.6 393.7,355.3C394.2,355.2 394.6,355.2 395.1,355.3C394.7,353.7 394.2,352.4 393.6,351.5C392.8,350.4 391.6,350 390.1,350.3C388,350.7 386.2,352 384.5,354.3C382.8,356.6 381.5,359.5 380.2,363C379,366.5 378,370.3 377.2,374.4C376.4,378.5 375.9,382.6 375.7,386.6C377.2,386.3 378.6,385.9 380,385.3C380.1,383.2 380.4,381.3 380.8,379.4Z" style="fill:rgb(241,196,17);fill-rule:nonzero;"/>
    <path d="M367.5,474.7L364.4,538.6L340.8,542.5L344.4,547.6L368,543.7L371.1,479.8L395,475.9L395.7,463.3L392.1,458.2L391.4,470.8L367.5,474.7Z" style="fill:rgb(241,196,17);fill-rule:nonzero;"/>
    <path d="M399.3,420.4C397.1,422.6 394.5,424.5 391.6,425.7C388.7,427 385.6,427.9 382.2,428.5C377.9,429.2 374.1,429.2 370.5,428.5C370.2,428.5 369.9,428.6 369.6,428.5L368.1,462.1L372,461.4L373.2,433.5L374.1,433.5C377.7,434.2 381.5,434.2 385.8,433.5C389.1,433 392.2,432 395.2,430.7C398.1,429.4 400.7,427.7 402.9,425.4C405.1,423.2 406.9,420.3 408.1,416.8C409.4,413.4 410.1,409.3 410.2,404.4L408.4,402L406.6,399.3C406.5,404.2 405.8,408.3 404.5,411.7C403.2,415.3 401.4,418.2 399.3,420.4Z" style="fill:rgb(241,196,17);fill-rule:nonzero;"/>
    <path d="M461.2,506.9C459.3,509.7 457.2,512.4 454.9,514.9C451.6,518.4 447.9,521.4 443.7,523.8C439.5,526.3 434.7,528 429.2,528.9C421.4,530.2 414.8,529.2 409.5,525.9C408.3,525.2 407.3,524.3 406.3,523.4C408,526.8 410.4,529.3 413.1,531C418.5,534.3 425,535.3 432.8,534C438.2,533.1 443.1,531.4 447.3,528.9C451.5,526.4 455.2,523.5 458.5,520C460.7,517.6 462.7,515.1 464.5,512.5C463.8,511.6 463,510.7 462.5,509.7C462,508.7 461.5,507.7 461.2,506.9Z" style="fill:rgb(241,196,17);fill-rule:nonzero;"/>
    <path d="M427.4,479.5C428.1,475.4 429.1,471.6 430.3,468.2C431.5,464.8 433,462 434.7,459.7C436.4,457.5 438.2,456.1 440.3,455.8C440.8,455.7 441.2,455.7 441.7,455.8C441.3,454.2 440.8,452.9 440.2,452C439.4,450.9 438.2,450.5 436.7,450.8C434.6,451.2 432.8,452.5 431.1,454.7C429.4,456.9 428,459.8 426.7,463.2C425.5,466.6 424.5,470.4 423.8,474.5C423.1,478.6 422.6,482.8 422.4,487C423.9,486.6 425.2,486.2 426.5,485.5C426.8,483.4 427.1,481.4 427.4,479.5Z" style="fill:rgb(241,196,17);fill-rule:nonzero;"/>
    <path d="M555.2,505.2C553.8,506.6 552.4,507.6 551,508.2C549.5,508.8 548.1,509.2 546.6,509.4C540.8,510.3 536.3,509.3 533.2,506.1C534.2,508 535.4,509.7 536.9,511.1C540.1,514.2 544.5,515.3 550.3,514.4C551.8,514.2 553.2,513.7 554.7,513.2C556.2,512.6 557.6,511.6 558.9,510.2C560.2,508.8 561.4,506.9 562.5,504.5C563.6,502.1 564.4,499.1 565,495.4L561.4,490.3C560.7,494 559.9,497 558.9,499.4C557.8,501.9 556.6,503.8 555.3,505.2L555.2,505.2Z" style="fill:rgb(241,196,17);fill-rule:nonzero;"/>
    <path d="M484.7,462.2C483.9,459 483,455.4 482,451.2C481.3,456.9 480.2,462.4 478.7,467.7C477.3,473.1 475.7,478.6 473.8,484.4C475,484.8 476,485.3 476.8,486.1C477.2,486.5 477.6,487 477.9,487.7C479.5,482.6 481,477.6 482.3,472.8C483.4,469.3 484.1,465.8 484.7,462.2Z" style="fill:rgb(241,196,17);fill-rule:nonzero;"/>
    <path d="M526.7,489.7C525.2,491.6 523.7,493.3 522.2,494.9C518.4,498.9 514.8,502.3 511.3,505.1C509.8,507.3 508.2,509.1 506.3,510.6C504.4,512.1 502.4,513.5 500.2,514.7C498,515.9 495.8,516.9 493.6,517.5C491.4,518.2 489.2,518.7 487.1,519.1C483,519.8 479.3,519.8 476.1,519.1C472.9,518.4 470.2,517.1 467.8,515.5C466.9,514.8 466.1,514.2 465.4,513.5C465.6,513.9 465.8,514.2 466,514.6C467.4,517 469.2,519 471.4,520.6C473.7,522.3 476.5,523.4 479.7,524.2C482.9,524.9 486.6,525 490.7,524.2C492.8,523.8 494.9,523.3 497.2,522.6C499.4,521.9 501.6,520.9 503.8,519.8C506,518.6 508,517.3 509.9,515.7C511.8,514.2 513.5,512.3 514.9,510.2C518.4,507.4 522,504 525.8,500C526.5,499.2 527.3,498.4 528,497.5C527.6,496.3 527.3,495 527.1,493.6C526.9,492.3 526.8,491 526.7,489.7Z" style="fill:rgb(241,196,17);fill-rule:nonzero;"/>
    <path d="M473.7,503.8C474.6,503.9 475.4,503.9 476.3,503.8C478.5,503.4 480.1,502.3 481.2,500.4C482.2,498.5 482.6,496.6 482.3,494.6C482.1,493.1 481.5,492.1 480.6,491.3C480,490.8 479.4,490.4 478.6,490C478.8,491.8 478.5,493.6 477.5,495.4C476.5,497.3 474.9,498.4 472.6,498.8C471.7,498.9 470.9,498.9 470,498.8C469.1,498.7 468.4,498.2 467.8,497.4C468.5,501.2 469.7,504 471.5,505.6C471.8,505.8 472.1,506 472.4,506.3C472,505.2 471.7,503.9 471.5,502.5C472.1,503.2 472.8,503.7 473.7,503.8Z" style="fill:rgb(241,196,17);fill-rule:nonzero;"/>
    <path d="M553.3,412.5C553.3,415.8 553,419.3 552.9,423.2L556.7,422.5C556.7,420.8 556.7,419.1 556.9,417.5C556.9,414.2 557.2,411.4 557.3,409C557.3,406.2 557.5,403.6 557.7,401.3L554.1,396.2C553.9,398.4 553.8,401.1 553.7,403.9C553.6,406.4 553.4,409.2 553.3,412.5Z" style="fill:rgb(241,196,17);fill-rule:nonzero;"/>
    <path d="M511.2,467.7C512.2,471.8 513,475 513.7,477.6C514.4,480.1 514.9,482.7 515.4,485.5C515.8,487.9 515.9,490 515.8,491.8C516.8,490.9 517.8,490.1 518.8,489.2C518.4,487 517.9,484.7 517.4,482.6C516.7,480.1 515.9,476.8 514.9,472.7C513.9,468.6 512.7,463.4 511.1,456.9C509.6,450.4 507.7,441.9 505.5,431.4L501.9,426.3C504.1,436.8 506,445.4 507.5,451.8C509,458.4 510.2,463.7 511.2,467.7Z" style="fill:rgb(241,196,17);fill-rule:nonzero;"/>
    <path d="M453.6,468.2C452.2,472.6 450,476.5 447,480.2C444,483.8 440.4,486.9 436.2,489.4C432,491.9 427.4,493.8 422.6,494.9C422.7,496.1 422.8,497.3 422.9,498.4C423,499.5 423.2,500.6 423.3,501.5C424.2,507.1 425.8,510.6 428.1,512.1L428.4,512.1C427.8,510.5 427.4,508.7 427,506.4C426.9,505.4 426.7,504.4 426.6,503.3C426.5,502.2 426.4,501.1 426.3,499.8C431.2,498.6 435.7,496.8 439.9,494.3C444.1,491.8 447.7,488.7 450.7,485.1C453.7,481.5 455.8,477.6 457.3,473.1C458.7,468.7 459,464.3 458.2,459.6C457.8,457.5 457.3,455.6 456.5,453.8C455.8,452.1 454.6,450.8 453.2,449.5C453.9,451 454.3,452.7 454.6,454.4C455.2,459.2 454.9,463.7 453.6,468.1L453.6,468.2Z" style="fill:rgb(241,196,17);fill-rule:nonzero;"/>
    <path d="M523.6,434.7L527.2,439.8L528.7,439.5L529,433.8L523.6,434.7Z" style="fill:rgb(241,196,17);fill-rule:nonzero;"/>
    <path d="M556.3,435L566.2,433.4L566.4,426.7L562.8,421.6L562.6,428.3L552.7,429.9L550.3,480.8C550.1,483 550.3,485 550.3,486.7C550.6,488.4 551.2,489.8 552.3,490.8C552.7,491.2 553.3,491.5 554,491.7C553.8,490.1 553.7,488.1 554,486L556.3,435Z" style="fill:rgb(241,196,17);fill-rule:nonzero;"/>
    <path d="M406.4,349.4C407.3,350.2 408.2,351.1 408.9,352.1L404.7,346.2C405.3,346.9 405.8,347.7 406.2,348.6C406.3,348.8 406.4,349.1 406.4,349.4Z" style="fill:rgb(241,196,17);fill-rule:nonzero;"/>
    <path d="M406.4,349.4C407.1,350.9 407.5,352.6 407.8,354.3C407.9,355 408,355.5 408,356.2L408.1,356.2L408.8,352.1C408.2,351 407.4,350.2 406.4,349.4Z" style="fill:rgb(241,196,17);fill-rule:nonzero;"/>
    <path d="M488.4,408.9C487.8,373.8 477.8,340.2 459.6,311.1C452,298.9 442.9,287.5 432.6,277.1C396.6,241.1 348.6,221.2 297.7,221.2C246.8,221.2 198.8,241.1 162.8,277.1C126.8,313.1 137.9,306 128.9,322.8L128.6,323.4C128.6,323.5 140.6,321.6 140.6,321.6L140.7,321.6C173.1,265.5 233.4,230.7 297.8,230.7C362.2,230.7 404.1,256.4 437.5,296.7C463.2,327.7 478.8,367.3 479.3,410.4L479.3,410.8L488.8,409.3L488.4,408.9Z" style="fill:rgb(236,240,241);fill-rule:nonzero;"/>
    <path d="M437.5,541.9L421.6,544.4L421.5,544.4C387.7,576.1 343.7,593.6 297.6,593.6C251.5,593.6 180,562.6 146.6,512.7C141.3,504.7 136.5,496.3 132.5,487.5L132.5,487.3C132.4,487.3 132.4,487.2 132.4,487.2L122.7,488.7L122.9,489.1C130.3,505.8 139.9,521.2 151.8,535.2C155.3,539.3 158.9,543.2 162.7,547.1C198.7,583.1 246.7,603 297.6,603C348.5,603 396.5,583.1 432.5,547.1C468.5,511.1 435.1,544.4 436.8,542.7L437.5,541.9Z" style="fill:rgb(236,240,241);fill-rule:nonzero;"/>
    <path d="M32.2,433.4L35.8,438.4C35.2,437.6 34.9,436.7 34.5,435.6C33.6,435 32.8,434.3 32.2,433.4Z" style="fill:rgb(241,196,17);fill-rule:nonzero;"/>
    <path d="M36.2,439C36.2,438.9 36.1,438.9 36.2,439Z" style="fill:rgb(236,240,241);fill-rule:nonzero;"/>
    <path d="M34.7,435.7L34.7,435.6C35,436.7 35.4,437.6 36,438.4L36.4,439L36.6,436.5C35.9,436.2 35.3,436 34.8,435.7L34.7,435.7Z" style="fill:rgb(241,196,17);fill-rule:nonzero;"/>
    <path d="M450.4,454.5L455.6,452.5L451.6,446.9L450.4,446.9L450.4,454.5Z" style="fill:rgb(241,196,17);fill-rule:nonzero;"/>
    <path d="M481.3,492L477.2,492.8L477.2,488.3L478.1,487.7L481.3,492Z" style="fill:rgb(241,196,17);fill-rule:nonzero;"/>
    <path d="M407.9,526.1L403.9,520.4L401.6,515.8L413.6,515.8L407.9,526.1Z" style="fill:rgb(241,196,17);fill-rule:nonzero;"/>
    <path d="M344.3,358L347.9,359.1L351,360.3L347.1,354.8L344.3,358Z" style="fill:rgb(241,196,17);fill-rule:nonzero;"/>
    <path d="M538.8,509.6L535,509.2L530.6,503.1L535.6,504.8L538.8,509.6Z" style="fill:rgb(241,196,17);fill-rule:nonzero;"/>
    <path d="M124.8,344.2L131.7,344.9C129.6,344.4 127.3,344.1 124.8,344.2Z" style="fill:rgb(236,240,241);fill-rule:nonzero;"/>
    <path d="M202.2,433.5C202,433.3 201.8,433.1 201.5,433L203,434.5C202.7,434.1 202.5,433.8 202.2,433.5Z" style="fill:rgb(236,240,241);fill-rule:nonzero;"/>
    <path d="M295.1,438.1C294.7,438.6 294.4,439.1 294.1,439.6L295,439.6L295,438.1L295.1,438.1Z" style="fill:rgb(236,240,241);fill-rule:nonzero;"/>
    <path d="M332.5,370.6C333,371.6 333.7,372.6 334.6,373.4C334.8,373.6 335,373.8 335.3,373.9C335,373.2 334.6,372.5 334.4,371.9C334.1,371.1 333.4,370.6 332.5,370.6Z" style="fill:rgb(236,240,241);fill-rule:nonzero;"/>
    <g>
        <path d="M124.7,344.2C122.3,344.3 120.3,344.4 118.8,344.7C113.9,345.5 109.1,347.6 104.5,351C99.9,354.4 95.5,358.7 91.3,363.9C87.1,369.1 83.2,375.1 79.5,381.7C75.8,388.3 72.5,395.2 69.3,402.4C65.7,402.6 62.8,403 60.4,403.3C55.7,404.1 51.4,405.3 47.6,407C43.8,408.7 40.5,410.8 37.8,413.1C35.2,415.4 33.2,418 31.9,420.7C30.6,423.5 30.2,426.2 30.7,428.9C31,430.6 31.6,432.1 32.4,433.3C33,434.2 33.8,434.9 34.7,435.5L34.7,435.6C35.3,435.9 35.9,436.2 36.4,436.4C38.2,437 40.1,437.1 42.3,436.8C44.8,436.4 46.9,435.4 48.5,434C50.1,432.5 50.7,430.9 50.5,428.9C50.3,427.7 49.8,426.6 49.2,425.6C48.5,424.6 48,424.1 47.5,424.2C48.2,421.2 50,418.8 53.1,417C56.1,415.2 60.3,413.7 65.4,412.6C64.5,414.8 63.7,417.1 62.9,419.4C61.3,424 59.9,428.6 58.6,433.2C56.7,440.1 55.2,446.6 54,452.9C52.8,459.2 52.1,464.8 51.8,470C51.5,475.2 51.8,479.7 52.2,483.4C52.8,487 53.8,489.9 55.2,492L55.2,492.1C55.4,492.5 55.6,492.8 55.9,493C57.8,495.1 59.9,496.6 62.3,497.3C64.7,498 67.2,498.3 69.8,498.1C72.4,497.9 74.8,497.6 77,497.2C76.3,496.5 75.6,495.6 74.9,494.4C74.2,493.2 73.6,491 73,487.8C72.3,483.7 72.1,478.6 72.2,472.7C72.3,466.8 72.8,460.4 73.6,453.5C74.4,446.6 75.5,439.4 76.9,432C78.4,424.5 80.1,417.2 82,410C85.7,409.7 89.3,409.8 92.9,410.1C96.5,410.4 100.5,411.1 105,412.3L104.8,416.4L102.2,473.8L125.8,469.9L131.6,345L124.6,344.2L124.7,344.2ZM84.3,402.2C87.3,392.3 90.9,383.4 94.8,375.5C98.7,367.6 102.9,362 107.4,358.5L107,367.3L105.3,404.5C101.9,403.7 98.4,403.1 94.9,402.8C93.1,402.6 91.3,402.4 89.5,402.4C87.8,402.2 86.1,402.2 84.3,402.2Z" style="fill:rgb(236,240,241);fill-rule:nonzero;"/>
        <path d="M203.3,434.7L203.3,434.5C203.2,434.4 203.1,434.4 203.1,434.4L201.6,432.9C200.3,432 198.6,431.7 196.5,432.1C193.5,432.6 191.3,433.8 190,435.7C188.7,437.5 188.3,439.3 188.5,440.8C188.6,441.7 189,442.4 189.6,443C190.2,443.6 191.1,443.8 192.1,443.7L192.1,444.3C191.9,445.4 191.2,446.2 190.1,446.8C188.7,447.5 187,448 185,448.3C182.8,448.7 180.5,448.9 178.1,449L178,449C175.6,449.1 173.7,449.2 172.3,449.4L200.9,373.3L158.8,380.3C155.8,380.8 153.3,381.8 151.1,383.3C148.9,384.8 147.2,386.5 145.8,388.4C144.4,390.3 143.5,392.3 142.9,394.4C142.3,396.5 142.2,398.4 142.5,400.1C142.7,401.6 143.2,402.7 144,403.7C144.5,404.3 145.1,404.8 145.8,405.2C147.6,406.1 149.4,406.4 151.2,406.1C153.4,405.7 155.3,404.7 156.9,403.1C158.5,401.5 159.1,399 158.6,396C158.5,395 158.2,394.3 158,394C157.8,393.6 157.5,393.4 157.2,393.3C156.9,393.2 156.7,393.1 156.5,393.1C156.3,393.1 156.2,393 156.2,392.7C156,391.5 156.8,390.6 158.4,390C160.1,389.4 162.2,388.9 164.7,388.5L173.9,387L171.7,393L144.2,467L187.6,459.8C190.8,459.3 193.5,458.3 195.8,456.8C198,455.3 199.9,453.5 201.4,451.5C202.9,449.5 203.9,447.4 204.4,445.1C204.9,442.9 205.1,440.8 204.8,439C204.6,437.2 204,435.9 203.3,434.7Z" style="fill:rgb(236,240,241);fill-rule:nonzero;"/>
        <path d="M349.4,360.5C349.2,359.3 348.9,358.3 348.5,357.3C347.8,355.5 346.6,353.8 345.1,352.4C342.8,350.2 339.7,349.4 336,350C332.7,350.5 329.5,352.2 326.4,354.9C324.9,356.3 323.4,357.7 322,359.3C320.5,360.9 319.2,362.6 317.8,364.4L318.4,353.7L294.8,357.6L292.3,412.2C291.8,416.5 290.6,420.2 288.9,423.3C287.1,426.4 284.6,428.2 281.4,428.7C279.7,429 278.4,429 277.3,428.7C276.9,428.6 276.5,428.4 276.1,428.3C274.9,427.6 274.1,426.1 273.7,423.8C273.4,422.1 273.3,420.4 273.5,418.4L276.1,360.7L252.5,364.6L250,419.1C249.5,423.5 248.3,427.1 246.6,430.3C244.9,433.5 242.4,435.2 239.3,435.7C238.4,435.8 237.7,435.8 237.1,435.6C236.3,435.4 235.6,434.9 235.1,434.3C234.2,433.1 233.6,431.5 233.2,429.7C233,428.2 232.9,426.7 232.9,425.1L235.5,367.4L211.9,371.3L209.4,425.8C209.2,430.1 209.3,433.7 209.8,436.7C210.7,442.6 212.8,446.9 215.7,449.5C216.2,450 216.8,450.4 217.4,450.8C221.3,453.3 225.7,454.2 230.7,453.4C232.4,453.1 234.3,452.6 236.2,451.9C238.1,451.2 240,450.1 241.9,448.7C243.8,447.2 245.7,445.4 247.4,443C249.2,440.6 250.9,437.6 252.4,433.9C253.1,436.5 254.1,438.8 255.3,440.6C256,441.6 256.8,442.6 257.6,443.4C258.4,444.2 258.7,444.3 259.3,444.8C262.5,447 266.5,447.6 271.2,446.9C273.4,446.5 275.8,445.8 278.6,444.7C281.4,443.6 284,441.7 286.6,439C288.2,437.4 289.8,435.4 291.2,433.1L290.8,442.6L314.4,438.7L317.2,374.2C319.1,371.9 320.8,369.9 322.5,368.5C324.2,367 326.1,366 328.1,365.7C329.3,365.5 330.1,365.9 330.6,367C331,368 331.5,369.2 332.1,370.4C332.2,370.5 332.2,370.7 332.3,370.8C333.2,370.8 333.9,371.2 334.3,372.1C334.6,372.8 334.9,373.5 335.2,374.1C336.2,374.6 337.6,374.8 339.4,374.5C341.4,374.2 343,373.6 344.4,372.6C345.8,371.7 346.9,370.5 347.7,369.2C348.5,367.9 349,366.5 349.3,365C349.6,363.3 349.7,361.8 349.4,360.5Z" style="fill:rgb(236,240,241);fill-rule:nonzero;"/>
    </g>
    <path d="M400.3,379.8C403.3,376.2 405.4,372.3 406.9,367.9C408.1,364.1 408.5,360.3 408.1,356.2C408,355.5 408,355 407.9,354.3C407.6,352.6 407.2,350.9 406.5,349.4C406.4,349.1 406.3,348.8 406.1,348.6C405.7,347.7 405.2,346.9 404.6,346.2C404,345.4 403.3,344.7 402.4,344C400.8,342.8 398.7,341.9 396.2,341.4C393.7,340.9 390.7,341 387.1,341.5C381.5,342.4 376.7,344.3 372.7,346.9C368.6,349.6 365.2,352.8 362.5,356.7C359.7,360.5 357.6,364.7 356,369.2C354.4,373.7 353.2,378.2 352.6,382.7C351.9,387.2 351.6,391.5 351.7,395.7C351.7,399.8 352,403.5 352.5,406.7C352.9,409.5 353.6,412 354.4,414.2C348.1,415.7 342.6,417.8 337.9,420.4C331.6,424 326.5,428 322.8,432.7C321.1,434.8 319.7,437 318.5,439.2C317.6,440.8 316.9,442.5 316.3,444.2C315.9,445.4 315.5,446.6 315.2,447.8C313.9,453.2 313.7,458.5 314.6,463.8C315.2,467.2 316.1,469.9 317.3,472.1C318.3,473.9 319.5,475.2 321.1,476.1C324.4,478.1 328.9,478.5 334.8,477.6C334.5,477.2 334.1,476.7 333.8,476.2C333.5,475.7 333.1,475 332.7,474.1C332.3,473.2 332,472.1 331.5,470.7C331.1,469.3 330.7,467.5 330.3,465.3C329.3,459.1 329,453.8 329.4,449.6C329.8,445.3 330.8,441.8 332.3,439C333.8,436.2 335.8,434.1 338.2,432.5C340.7,431 343.3,429.9 346.2,429.3L345.9,435.5L340.5,542.7L364.1,538.8L367.2,474.9L391.1,470.9L391.8,458.4L371.7,461.7L367.8,462.4L369.3,428.8L370.2,428.8C373.8,429.5 377.6,429.5 381.9,428.8C385.2,428.3 388.3,427.3 391.3,426C394.2,424.7 396.8,423 399,420.7C401.2,418.5 403,415.6 404.2,412.1C405.5,408.7 406.2,404.6 406.3,399.7C404.1,402.5 401.4,405 398.1,407.3C394.8,409.6 391.6,411.1 388.5,411.6C386.5,412 384.7,411.8 383.3,411.3C382.6,411 381.8,410.6 381.2,410.1C380.6,409.7 380.1,409.2 379.7,408.6C378.8,407.4 378,406.1 377.5,404.5C377,403 376.6,401.4 376.3,399.7C376.2,398.8 376,398 375.9,397.2C375.8,396.4 375.8,395.5 375.8,394.6C380.7,393.4 385.2,391.6 389.4,389.1C393.7,386.4 397.3,383.3 400.3,379.8ZM384.3,382.5C382.9,383.6 381.4,384.5 379.9,385.1C378.5,385.7 377.1,386.1 375.6,386.4C375.8,382.4 376.3,378.4 377.1,374.2C377.9,370.1 378.8,366.2 380.1,362.8C381.3,359.4 382.8,356.5 384.4,354.1C386.1,351.8 387.9,350.4 390,350.1C391.5,349.9 392.7,350.2 393.5,351.3C394.2,352.2 394.7,353.5 395,355.1C395.1,355.4 395.1,355.8 395.2,356C395.8,359.4 395.6,362.7 394.8,366C394,369.3 392.7,372.4 390.9,375.1C389.2,378.1 386.9,380.5 384.3,382.5Z" style="fill:rgb(236,240,241);fill-rule:nonzero;"/>
    <path d="M552.7,429.9L562.6,428.3L562.8,421.6L556.8,422.6L553,423.3C553,419.5 553.3,415.9 553.4,412.6C553.5,409.3 553.7,406.5 553.8,404.1C553.8,401.3 554,398.7 554.2,396.4L530.5,403.7L529.3,427.1L523.9,428L523.7,434.7L529.1,433.8L528.8,439.5L526.8,481.5L526.1,481.5C524.1,484.1 521.6,486.6 518.6,489.1C517.7,490 516.6,490.8 515.6,491.7C515.6,489.9 515.6,487.8 515.2,485.4C514.8,482.6 514.2,480 513.5,477.5C512.8,475 512,471.7 511,467.6C510,463.5 508.8,458.3 507.2,451.8C505.7,445.3 503.8,436.8 501.6,426.3L477.9,433.6C476.7,442.1 475.2,450.6 473.4,459.2C471.6,467.8 469,476.5 465.8,485.4C463.7,486.9 462,489.1 460.7,492C459.9,493.8 459.5,495.8 459.4,498C459,498.4 458.7,498.9 458.4,499.4C456.7,501.8 454.8,503.9 452.7,505.7C450.7,507.6 448.3,509.1 445.9,510.4C443.4,511.7 440.5,512.6 437.3,513.2C433.5,513.9 430.5,513.5 428.2,512.1L427.9,512.1C425.7,510.6 424.1,507.1 423.1,501.5C423,500.5 422.8,499.5 422.7,498.4C422.6,497.3 422.5,496.2 422.4,494.9C427.3,493.7 431.8,491.9 436,489.4C440.2,486.9 443.8,483.8 446.8,480.2C449.8,476.6 451.9,472.7 453.4,468.2C454.8,463.8 455.1,459.4 454.3,454.7C454,453 453.6,451.3 452.9,449.8C452.8,449.5 452.7,449.2 452.5,449C451.7,447.3 450.5,445.7 448.9,444.4C447.3,443.2 445.2,442.3 442.7,441.8C440.2,441.3 437.2,441.4 433.6,441.9C428,442.8 423.2,444.7 419.2,447.3C415.1,450 411.7,453.2 409,457.1C406.2,460.9 404.1,465.1 402.5,469.6C400.9,474.1 399.7,478.6 399.1,483.1C398.4,487.6 398.1,491.9 398.2,496.1C398.2,500.2 398.5,503.9 399,507.1C400.2,514.4 402.6,519.8 406.1,523.3C409.6,526.8 408.1,525.2 409.3,525.8C414.7,529.1 421.2,530.1 429,528.8C434.4,527.9 439.3,526.2 443.5,523.7C447.7,521.2 451.4,518.3 454.7,514.8C457,512.3 459.1,509.7 461,506.8C461.4,507.7 461.8,508.6 462.3,509.5C462.9,510.5 463.5,511.5 464.3,512.3C464.7,512.7 465,513 465.3,513.4C466,514.1 466.8,514.9 467.7,515.4C470,517.1 472.8,518.2 476,519C479.2,519.7 482.9,519.8 487,519C489.1,518.6 491.2,518.1 493.5,517.4C495.7,516.7 497.9,515.7 500.1,514.6C502.3,513.4 504.3,512.1 506.2,510.5C508.1,509 509.8,507.1 511.2,505C514.7,502.2 518.3,498.8 522.1,494.8C523.6,493.2 525.1,491.5 526.6,489.6C526.6,490.9 526.8,492.2 527,493.5C527.2,494.9 527.5,496.2 527.9,497.4C529,500.8 530.7,503.6 532.9,506C536.1,509.2 540.5,510.3 546.3,509.4C547.8,509.2 549.2,508.7 550.7,508.2C552.2,507.6 553.6,506.6 554.9,505.2C556.2,503.8 557.4,501.9 558.5,499.5C559.6,497.1 560.4,494.1 561,490.4C560.3,490.8 559.7,491 558.8,491.2C558,491.4 557.3,491.6 556.8,491.6C555.6,491.8 554.6,491.8 553.7,491.6C553,491.5 552.5,491.2 552,490.7C551,489.8 550.3,488.4 550,486.6C549.7,484.9 549.7,483 550,480.7L552.7,429.9ZM423.8,474.4C424.5,470.3 425.5,466.5 426.7,463.1C427.9,459.7 429.4,456.9 431.1,454.6C432.8,452.4 434.6,451 436.7,450.7C438.2,450.5 439.4,450.8 440.2,451.9C440.9,452.8 441.4,454.1 441.7,455.7C441.8,456 441.8,456.4 441.9,456.6C442.4,459.9 442.3,463.1 441.6,466.5C440.9,469.8 439.6,472.8 437.8,475.6C436,478.4 433.8,480.7 431.1,482.7C429.6,483.8 428.2,484.7 426.6,485.4C425.3,486 423.8,486.5 422.5,486.9C422.6,482.7 423.1,478.5 423.8,474.4ZM491.6,496.9C491.1,499 490.3,500.7 489.2,502.2C488.1,503.7 486.7,504.7 485,505.5C483.3,506.3 481.6,506.8 479.9,507.1C476.8,507.6 474.4,507.3 472.6,506.2C472.3,506 472,505.8 471.7,505.5C469.9,503.8 468.6,501.1 468,497.3C468.6,498.1 469.3,498.6 470.2,498.7C471.1,498.8 471.9,498.8 472.8,498.7C475,498.3 476.6,497.2 477.7,495.3C478.6,493.6 479,491.7 478.8,489.9C478.8,489.8 478.8,489.6 478.7,489.5C478.6,488.8 478.4,488.3 478.2,487.7C477.9,487.1 477.5,486.5 477.1,486.1C476.2,485.3 475.2,484.7 474.1,484.4C476,478.7 477.6,473.2 479,467.7C480.4,462.3 481.5,456.8 482.3,451.2C483.3,455.4 484.2,459 485,462.2C485.4,463.8 485.8,465.2 486.1,466.6C487.1,470.6 488.1,473.9 488.8,476.6C489.5,479.3 490.1,481.6 490.6,483.6C491.1,485.6 491.5,487.5 491.8,489.6C492.1,492.4 492.1,494.8 491.6,496.9Z" style="fill:rgb(236,240,241);fill-rule:nonzero;"/>
    <g id="Layer2" transform="matrix(0.566825,0,0,0.566825,34.0844,536.687)">
        <path d="M363.7,203.7C364.5,203.7 365.3,203.3 365.7,202.5C366.2,201.4 365.8,200.1 364.7,199.6L267.7,150.4L360.7,92.6C361.7,92 362,90.6 361.4,89.6C360.8,88.6 359.4,88.3 358.4,88.9L262.1,148.7C261.4,149.1 261,149.9 261.1,150.6C261.1,151.4 261.6,152.1 262.3,152.5L362.7,203.5C363,203.7 363.3,203.7 363.7,203.7Z" style="fill:white;fill-rule:nonzero;"/>
        <path d="M354.9,85.8L354.9,209.8C354.9,209.8 502.1,164.5 669.6,226.9C837.1,289.3 970.3,210.4 970.3,210.4L920.8,177.3L965.5,99C965.5,99 837.5,144 733.1,112.4C656.6,89.1 469.8,17.1 354.9,85.8Z" style="fill:rgb(52,152,219);fill-rule:nonzero;"/>
        <path d="M669.6,217.1C684.971,222.825 700.052,227.361 714.767,230.877C837.05,260.095 934.073,218.914 962.1,204.9L970.3,210.4C970.3,210.4 837.1,289.3 669.6,226.9C502.1,164.5 354.9,209.8 354.9,209.8L354.9,200C354.9,199.923 443.058,172.835 560.559,189.51C594.89,194.382 631.726,202.991 669.6,217.1Z" style="fill:rgb(41,128,185);fill-rule:nonzero;"/>
        <g transform="matrix(1,0,0,1,-12.2367,-32.4467)">
            <path d="M419.768,148.193C419.986,149.886 419.806,151.243 419.228,152.264C418.65,153.285 417.79,153.869 416.647,154.016C416.055,154.093 415.544,154.051 415.115,153.891C414.685,153.732 414.229,153.446 413.746,153.035C414.284,152.536 414.66,151.864 414.873,151.019C415.087,150.174 415.137,149.307 415.022,148.418C414.929,147.699 414.72,146.995 414.395,146.305C414.069,145.616 413.616,145.018 413.034,144.512C412.453,144.007 411.758,143.623 410.95,143.362C410.142,143.1 409.209,143.038 408.151,143.174C407.051,143.316 406.093,143.644 405.277,144.158C404.461,144.671 403.813,145.314 403.332,146.086C402.85,146.858 402.522,147.729 402.346,148.698C402.169,149.667 402.15,150.68 402.286,151.738C402.548,153.77 403.255,155.335 404.408,156.434C405.561,157.532 406.932,158.41 408.522,159.065C410.112,159.72 411.835,160.316 413.689,160.851C415.543,161.386 417.283,162.119 418.909,163.049C420.535,163.98 421.955,165.238 423.171,166.823C424.386,168.409 425.177,170.619 425.542,173.454C425.87,175.993 425.726,178.217 425.112,180.124C424.497,182.032 423.573,183.624 422.34,184.902C421.107,186.18 419.634,187.187 417.922,187.924C416.21,188.661 414.424,189.149 412.562,189.389C410.911,189.602 409.258,189.622 407.6,189.448C405.943,189.275 404.427,188.857 403.051,188.196C401.675,187.534 400.512,186.609 399.563,185.419C398.614,184.229 398.022,182.725 397.787,180.905C397.651,179.847 397.66,178.749 397.814,177.611C397.968,176.472 398.274,175.422 398.731,174.46C399.187,173.497 399.813,172.675 400.606,171.991C401.4,171.308 402.368,170.893 403.511,170.746C404.442,170.626 405.268,170.777 405.989,171.201C406.711,171.624 407.415,172.501 408.103,173.832C407.093,174.005 406.285,174.324 405.678,174.79C405.071,175.255 404.613,175.788 404.303,176.387C403.993,176.986 403.805,177.613 403.739,178.266C403.672,178.92 403.675,179.522 403.746,180.072C403.893,181.215 404.275,182.177 404.892,182.957C405.509,183.738 406.246,184.364 407.102,184.834C407.959,185.304 408.86,185.619 409.805,185.776C410.75,185.934 411.646,185.958 412.492,185.849C414.439,185.598 415.951,184.65 417.03,183.006C418.108,181.361 418.468,179.142 418.107,176.349C417.802,173.979 417.105,172.165 416.018,170.908C414.931,169.65 413.629,168.645 412.113,167.894C410.596,167.143 409.001,166.532 407.327,166.059C405.653,165.587 404.057,164.975 402.541,164.224C401.024,163.473 399.717,162.427 398.619,161.084C397.521,159.741 396.814,157.843 396.497,155.389C396.224,153.273 396.344,151.365 396.856,149.664C397.368,147.963 398.136,146.498 399.161,145.269C400.185,144.04 401.436,143.061 402.912,142.333C404.389,141.605 405.952,141.134 407.602,140.922C408.322,140.829 409.316,140.787 410.587,140.795C411.857,140.803 413.133,141.026 414.415,141.463C415.698,141.9 416.848,142.644 417.865,143.696C418.883,144.748 419.517,146.247 419.768,148.193Z" style="fill:white;fill-rule:nonzero;"/>
            <path d="M449.417,161.022C449.63,164.001 448.585,166.578 446.281,168.753C443.977,170.928 440.671,172.405 436.363,173.183C436.655,174.873 437.063,176.235 437.586,177.267C438.108,178.299 438.711,179.1 439.394,179.672C440.076,180.243 440.841,180.616 441.687,180.791C442.534,180.966 443.404,181.021 444.298,180.957C446.341,180.811 448.218,180.142 449.929,178.951C451.64,177.759 452.96,175.868 453.887,173.278L455.929,173.132C455.489,174.746 454.83,176.301 453.953,177.797C453.076,179.293 452.017,180.63 450.775,181.81C449.533,182.989 448.169,183.953 446.683,184.701C445.196,185.449 443.645,185.88 442.027,185.996C440.538,186.103 439.083,185.95 437.664,185.538C436.244,185.126 434.96,184.373 433.813,183.279C432.665,182.185 431.694,180.725 430.901,178.899C430.107,177.074 429.613,174.799 429.419,172.076C429.291,170.288 429.355,168.337 429.61,166.223C429.865,164.109 430.408,162.124 431.237,160.268C432.067,158.412 433.216,156.833 434.684,155.53C436.152,154.227 438.036,153.494 440.334,153.33C441.398,153.254 442.438,153.297 443.455,153.459C444.472,153.622 445.407,153.983 446.259,154.542C447.112,155.102 447.821,155.896 448.387,156.925C448.952,157.954 449.296,159.319 449.417,161.022ZM436.121,170.698C439.11,170.014 441.427,168.779 443.075,166.993C444.722,165.207 445.46,163.101 445.286,160.675C445.171,159.058 444.811,157.918 444.208,157.255C443.604,156.593 442.792,156.298 441.77,156.371C440.664,156.45 439.726,156.945 438.957,157.855C438.188,158.766 437.575,159.911 437.117,161.291C436.66,162.671 436.351,164.191 436.192,165.849C436.032,167.507 436.009,169.124 436.121,170.698Z" style="fill:white;fill-rule:nonzero;"/>
            <path d="M460.021,150.149L460.169,155.075C460.954,154.198 461.882,153.476 462.953,152.91C464.025,152.344 465.286,152.04 466.736,151.996C468.228,151.951 469.624,152.229 470.923,152.83C472.221,153.431 473.37,154.368 474.369,155.64C475.367,156.912 476.174,158.531 476.788,160.497C477.402,162.464 477.75,164.812 477.833,167.541C477.993,172.872 477.115,177.039 475.2,180.042C473.284,183.045 470.663,184.597 467.336,184.697C465.929,184.739 464.716,184.509 463.698,184.006C462.679,183.503 461.772,182.773 460.975,181.815L461.489,198.895L455.076,200.689L453.56,150.344L460.021,150.149ZM464.622,156.221C463.684,156.25 462.849,156.542 462.119,157.097C461.389,157.653 460.782,158.429 460.3,159.425L460.878,178.616C461.498,179.366 462.187,179.9 462.943,180.219C463.7,180.538 464.441,180.686 465.166,180.664C466.232,180.632 467.16,180.263 467.95,179.556C468.739,178.849 469.405,177.901 469.945,176.711C470.485,175.52 470.881,174.132 471.132,172.545C471.383,170.958 471.482,169.269 471.428,167.478C471.361,165.26 471.103,163.422 470.653,161.963C470.204,160.503 469.646,159.346 468.98,158.491C468.314,157.636 467.592,157.039 466.813,156.7C466.035,156.36 465.304,156.201 464.622,156.221Z" style="fill:white;fill-rule:nonzero;"/>
            <path d="M488.577,142.38L488.47,152.108L493.398,152.162L493.373,154.402L488.445,154.347L488.231,173.866C488.225,174.378 488.24,174.965 488.275,175.627C488.311,176.289 488.421,176.919 488.606,177.519C488.792,178.118 489.085,178.623 489.486,179.032C489.887,179.442 490.45,179.651 491.175,179.659C492.327,179.672 493.432,179.108 494.49,177.967C495.548,176.827 496.388,175.087 497.011,172.747L499.379,172.773C498.624,175.453 497.822,177.567 496.973,179.115C496.124,180.663 495.247,181.837 494.342,182.638C493.438,183.439 492.547,183.952 491.669,184.177C490.792,184.402 489.991,184.51 489.266,184.502C487.73,184.485 486.474,184.184 485.499,183.597C484.524,183.01 483.765,182.266 483.22,181.364C482.675,180.462 482.302,179.465 482.101,178.375C481.899,177.285 481.804,176.206 481.816,175.14L482.046,154.277L479.87,154.253L479.894,152.013L482.07,152.037L482.167,143.206L488.577,142.38Z" style="fill:white;fill-rule:nonzero;"/>
            <path d="M517.931,161.072C517.791,164.056 516.449,166.492 513.905,168.38C511.361,170.269 507.904,171.346 503.535,171.611C503.625,173.324 503.87,174.723 504.267,175.81C504.665,176.896 505.169,177.763 505.779,178.411C506.39,179.059 507.105,179.52 507.925,179.793C508.745,180.066 509.603,180.224 510.498,180.266C512.544,180.362 514.486,179.919 516.326,178.937C518.166,177.955 519.699,176.233 520.925,173.77L522.971,173.866C522.343,175.417 521.505,176.883 520.458,178.265C519.411,179.647 518.202,180.851 516.83,181.876C515.457,182.901 513.989,183.697 512.425,184.264C510.861,184.832 509.269,185.078 507.649,185.002C506.158,184.932 504.731,184.609 503.37,184.033C502.009,183.457 500.823,182.558 499.812,181.336C498.802,180.114 498.01,178.55 497.437,176.644C496.864,174.737 496.641,172.421 496.769,169.693C496.853,167.903 497.146,165.973 497.648,163.904C498.151,161.834 498.924,159.927 499.966,158.182C501.009,156.436 502.336,155.004 503.947,153.883C505.559,152.762 507.515,152.256 509.817,152.364C510.882,152.413 511.91,152.579 512.901,152.86C513.892,153.142 514.777,153.61 515.558,154.266C516.339,154.922 516.95,155.794 517.39,156.882C517.83,157.971 518.011,159.367 517.931,161.072ZM503.587,169.115C506.635,168.788 509.083,167.834 510.929,166.255C512.776,164.675 513.756,162.671 513.869,160.242C513.945,158.622 513.722,157.448 513.201,156.718C512.68,155.989 511.908,155.601 510.885,155.553C509.777,155.501 508.787,155.882 507.916,156.696C507.045,157.509 506.302,158.574 505.685,159.891C505.068,161.207 504.582,162.68 504.229,164.308C503.875,165.935 503.661,167.538 503.587,169.115Z" style="fill:white;fill-rule:nonzero;"/>
            <path d="M530.172,153.712L529.691,158.102C531.017,156.187 532.325,155.021 533.615,154.605C534.906,154.188 536.102,154.041 537.205,154.161C538.308,154.282 539.256,154.537 540.051,154.924C540.845,155.312 541.512,155.793 542.05,156.367C542.587,156.941 543.021,157.589 543.349,158.312C543.678,159.035 543.925,159.813 544.091,160.647C544.825,159.439 545.55,158.499 546.267,157.827C546.985,157.154 547.684,156.652 548.364,156.319C549.045,155.985 549.698,155.799 550.325,155.761C550.951,155.722 551.519,155.731 552.028,155.787C553.937,155.996 555.435,156.525 556.522,157.374C557.609,158.223 558.388,159.242 558.859,160.431C559.329,161.62 559.587,162.893 559.631,164.25C559.676,165.607 559.63,166.9 559.495,168.13C559.412,168.893 559.299,169.729 559.156,170.636C559.014,171.543 558.869,172.472 558.722,173.421C558.575,174.371 558.428,175.32 558.281,176.27C558.134,177.22 558.016,178.097 557.928,178.903C557.891,179.243 557.86,179.722 557.835,180.342C557.81,180.961 557.849,181.577 557.954,182.19C558.059,182.802 558.277,183.352 558.61,183.839C558.943,184.326 559.47,184.609 560.191,184.688C561.167,184.795 562.107,184.34 563.013,183.324C563.918,182.307 564.758,180.618 565.532,178.256L567.886,178.514C567.126,181.135 566.301,183.18 565.41,184.649C564.52,186.118 563.627,187.211 562.733,187.929C561.839,188.646 560.976,189.077 560.145,189.222C559.313,189.367 558.558,189.402 557.88,189.328C556.522,189.179 555.406,188.789 554.531,188.156C553.656,187.524 552.971,186.73 552.475,185.774C551.979,184.818 551.658,183.731 551.512,182.514C551.367,181.296 551.364,180.051 551.503,178.778C551.545,178.397 551.634,177.687 551.769,176.651C551.904,175.614 552.047,174.503 552.199,173.318C552.35,172.132 552.494,171.011 552.632,169.953C552.769,168.895 552.861,168.154 552.908,167.73C553.057,166.372 553.074,165.237 552.959,164.323C552.845,163.409 552.625,162.677 552.299,162.126C551.973,161.575 551.578,161.167 551.113,160.901C550.649,160.636 550.141,160.473 549.59,160.412C548.275,160.268 547.146,160.681 546.202,161.651C545.259,162.62 544.481,164.338 543.867,166.803L541.635,187.161L535.273,186.463L537.603,165.215C537.686,164.451 537.736,163.706 537.751,162.978C537.767,162.25 537.679,161.585 537.487,160.985C537.295,160.384 536.985,159.889 536.555,159.499C536.126,159.108 535.509,158.869 534.703,158.78C533.346,158.632 532.255,159.081 531.432,160.128C530.609,161.175 529.771,162.854 528.917,165.164L526.685,185.522L520.323,184.824L523.81,153.015L530.172,153.712Z" style="fill:white;fill-rule:nonzero;"/>
            <path d="M571.834,146.673L578.293,146.871L575.731,161.821C576.568,161.229 577.51,160.784 578.556,160.487C579.603,160.19 580.799,160.157 582.145,160.388C583.28,160.583 584.424,160.984 585.575,161.593C586.726,162.201 587.74,163.1 588.619,164.29C589.497,165.479 590.121,167.015 590.491,168.896C590.862,170.778 590.812,173.085 590.344,175.819C589.933,178.216 589.253,180.48 588.303,182.612C587.353,184.743 586.154,186.561 584.706,188.066C583.257,189.571 581.585,190.681 579.688,191.394C577.79,192.108 575.685,192.267 573.372,191.87C572.069,191.647 570.894,191.24 569.848,190.649C568.802,190.059 567.957,189.243 567.313,188.202C566.669,187.161 566.244,185.854 566.037,184.282C565.83,182.71 565.914,180.83 566.289,178.644L571.834,146.673ZM584.481,176.307C584.762,174.667 584.878,173.107 584.829,171.627C584.779,170.147 584.563,168.822 584.179,167.652C583.795,166.482 583.245,165.522 582.53,164.772C581.814,164.022 580.931,163.556 579.879,163.376C579.038,163.232 578.226,163.298 577.443,163.575C576.659,163.852 575.919,164.256 575.222,164.786L572.379,181.376C571.73,185.161 572.646,187.266 575.128,187.691C576.305,187.893 577.405,187.724 578.428,187.185C579.452,186.646 580.369,185.84 581.18,184.767C581.992,183.694 582.675,182.426 583.229,180.963C583.783,179.499 584.2,177.947 584.481,176.307Z" style="fill:white;fill-rule:nonzero;"/>
            <path d="M615.557,175.524C614.9,178.437 613.154,180.602 610.319,182.018C607.484,183.434 603.893,183.892 599.544,183.392C599.335,185.094 599.332,186.515 599.534,187.654C599.736,188.793 600.081,189.735 600.569,190.479C601.057,191.224 601.681,191.802 602.441,192.214C603.201,192.626 604.018,192.931 604.892,193.128C606.89,193.579 608.88,193.481 610.863,192.835C612.846,192.189 614.656,190.76 616.292,188.549L618.29,189C617.401,190.418 616.321,191.716 615.049,192.894C613.777,194.072 612.376,195.046 610.846,195.817C609.317,196.587 607.732,197.115 606.093,197.401C604.454,197.687 602.843,197.652 601.262,197.295C599.805,196.966 598.457,196.4 597.217,195.595C595.977,194.79 594.966,193.698 594.184,192.319C593.401,190.939 592.894,189.261 592.663,187.285C592.431,185.308 592.615,182.987 593.216,180.324C593.611,178.576 594.236,176.727 595.092,174.776C595.947,172.826 597.04,171.083 598.371,169.546C599.702,168.009 601.259,166.83 603.041,166.007C604.823,165.185 606.838,165.027 609.085,165.534C610.126,165.769 611.109,166.111 612.036,166.561C612.962,167.01 613.753,167.626 614.407,168.408C615.062,169.19 615.511,170.155 615.755,171.304C615.999,172.452 615.933,173.859 615.557,175.524ZM600.031,180.943C603.09,181.152 605.666,180.64 607.759,179.406C609.853,178.173 611.167,176.37 611.702,173.998C612.059,172.416 612.045,171.221 611.659,170.412C611.273,169.603 610.58,169.086 609.581,168.861C608.499,168.617 607.458,168.819 606.459,169.468C605.459,170.118 604.541,171.037 603.704,172.226C602.867,173.415 602.133,174.78 601.501,176.321C600.869,177.862 600.379,179.403 600.031,180.943Z" style="fill:white;fill-rule:nonzero;"/>
            <path d="M628.195,170.493L626.81,175.688C627.502,175.077 628.174,174.506 628.824,173.973C629.474,173.439 630.153,173.003 630.862,172.662C631.572,172.321 632.318,172.089 633.101,171.967C633.884,171.845 634.709,171.899 635.575,172.13C636.976,172.504 637.911,173.14 638.378,174.037C638.845,174.934 638.941,175.898 638.666,176.929C638.501,177.547 638.261,178.035 637.945,178.393C637.629,178.75 637.293,179.014 636.939,179.184C636.584,179.354 636.228,179.447 635.871,179.462C635.514,179.477 635.211,179.452 634.964,179.386C634.593,179.287 634.316,179.125 634.133,178.899C633.951,178.674 633.771,178.438 633.593,178.192C633.416,177.946 633.205,177.702 632.961,177.461C632.716,177.219 632.367,177.037 631.914,176.916C630.965,176.663 629.97,176.751 628.929,177.18C627.887,177.609 626.917,178.101 626.018,178.656L619.948,201.412L613.765,199.763L622.011,168.844L628.195,170.493Z" style="fill:white;fill-rule:nonzero;"/>
            <path d="M655.834,205.659C657.565,206.266 659.363,207.101 661.229,208.162C663.095,209.224 665.034,210.108 667.047,210.815C668.134,211.196 669.088,211.441 669.91,211.548C670.731,211.655 671.473,211.633 672.137,211.482C672.801,211.33 673.426,211.064 674.012,210.682C674.598,210.3 675.24,209.824 675.937,209.255C675.979,210.038 675.953,210.82 675.86,211.601C675.766,212.383 675.6,213.115 675.359,213.8C675.006,214.806 674.542,215.582 673.967,216.126C673.391,216.67 672.751,217.044 672.046,217.249C671.341,217.454 670.568,217.499 669.726,217.385C668.885,217.27 668.021,217.058 667.135,216.747C665.968,216.337 664.775,215.805 663.558,215.152C662.34,214.499 661.17,213.839 660.047,213.174C658.924,212.508 657.874,211.891 656.898,211.323C655.922,210.754 655.072,210.342 654.347,210.088C653.34,209.735 652.305,209.496 651.241,209.371C650.177,209.247 649.043,209.289 647.839,209.5C647.788,209.256 647.758,208.827 647.748,208.213C647.737,207.599 647.929,206.728 648.325,205.601C649.017,203.628 650.086,201.968 651.531,200.622C652.976,199.275 654.614,198.052 656.447,196.954C658.279,195.857 660.205,194.814 662.224,193.827C664.244,192.84 666.191,191.737 668.065,190.519C669.94,189.3 671.642,187.897 673.172,186.308C674.701,184.72 675.876,182.758 676.695,180.423C677.472,178.209 677.642,176.245 677.203,174.531C676.765,172.817 675.519,171.6 673.465,170.879C671.573,170.215 669.953,170.257 668.606,171.005C667.258,171.753 666.337,172.831 665.842,174.24C665.616,174.884 665.485,175.709 665.449,176.714C665.413,177.718 665.699,178.644 666.306,179.49C665.625,179.884 664.974,180.097 664.353,180.127C663.732,180.158 663.179,180.088 662.696,179.919C661.972,179.665 661.408,179.274 661.004,178.749C660.601,178.223 660.331,177.608 660.194,176.904C660.056,176.2 660.024,175.454 660.097,174.666C660.17,173.878 660.334,173.121 660.588,172.396C661.507,169.78 663.24,168.093 665.789,167.337C668.338,166.581 671.424,166.839 675.047,168.111C677.544,168.987 679.467,170.046 680.817,171.288C682.167,172.531 683.114,173.858 683.658,175.27C684.203,176.682 684.42,178.126 684.309,179.602C684.198,181.078 683.909,182.48 683.443,183.808C682.581,186.264 681.338,188.292 679.714,189.893C678.089,191.493 676.29,192.851 674.316,193.967C672.342,195.083 670.283,196.022 668.138,196.785C665.994,197.547 663.955,198.301 662.02,199.046C660.086,199.792 658.365,200.635 656.859,201.576C655.354,202.517 654.259,203.704 653.575,205.137C654.235,205.188 654.988,205.362 655.834,205.659Z" style="fill:white;fill-rule:nonzero;"/>
            <path d="M692.023,207.49C690.244,207.034 688.895,207.211 687.977,208.023C687.059,208.835 686.399,209.894 685.999,211.199C685.586,212.545 685.48,213.729 685.681,214.75C685.881,215.771 686.253,216.632 686.796,217.334C687.339,218.036 688.008,218.621 688.802,219.087C689.596,219.554 690.381,219.906 691.156,220.143C692.665,220.606 694.035,220.725 695.264,220.499C696.494,220.274 697.583,219.815 698.531,219.124C699.479,218.433 700.278,217.573 700.928,216.545C701.578,215.517 702.071,214.453 702.409,213.351C702.847,211.924 703.033,210.441 702.969,208.904C702.905,207.367 702.558,205.877 701.929,204.435C701.3,202.993 700.347,201.663 699.069,200.446C697.791,199.228 696.163,198.205 694.186,197.376C696.065,197.505 697.787,197.386 699.35,197.017C700.913,196.649 702.291,196.123 703.482,195.439C704.673,194.756 705.646,193.949 706.399,193.02C707.153,192.091 707.692,191.096 708.017,190.035C708.28,189.178 708.39,188.309 708.349,187.426C708.307,186.543 708.094,185.708 707.711,184.921C707.327,184.134 706.784,183.432 706.08,182.814C705.377,182.197 704.495,181.726 703.435,181.401C701.68,180.863 700.217,180.905 699.045,181.528C697.872,182.15 697.104,183.053 696.742,184.236C696.479,185.092 696.475,186.017 696.728,187.009C696.982,188.002 697.526,189.028 698.362,190.087C696.873,191.014 695.435,191.265 694.048,190.84C692.742,190.44 691.786,189.555 691.179,188.187C690.573,186.818 690.55,185.216 691.113,183.38C691.538,181.993 692.22,180.863 693.157,179.99C694.094,179.117 695.175,178.501 696.401,178.14C697.627,177.78 698.967,177.632 700.419,177.698C701.872,177.764 703.312,178.016 704.74,178.454C706.249,178.917 707.689,179.57 709.059,180.414C710.429,181.258 711.577,182.246 712.502,183.377C713.427,184.508 714.058,185.796 714.397,187.238C714.736,188.681 714.655,190.218 714.155,191.85C713.83,192.91 713.338,193.931 712.681,194.912C712.023,195.893 711.254,196.762 710.375,197.519C709.496,198.276 708.52,198.914 707.446,199.432C706.372,199.951 705.25,200.299 704.08,200.476C707.122,202.926 709.114,205.344 710.056,207.73C710.998,210.116 711.063,212.635 710.25,215.286C709.675,217.163 708.71,218.819 707.354,220.256C705.999,221.693 704.401,222.831 702.559,223.672C700.716,224.513 698.718,225.028 696.563,225.215C694.408,225.402 692.229,225.158 690.027,224.483C688.966,224.158 687.732,223.634 686.324,222.913C684.917,222.191 683.654,221.213 682.538,219.978C681.422,218.743 680.611,217.201 680.108,215.351C679.604,213.5 679.746,211.29 680.534,208.72C681.246,206.395 682.286,204.75 683.653,203.786C685.02,202.821 686.58,202.608 688.334,203.146C688.701,203.258 689.09,203.411 689.499,203.603C689.909,203.796 690.293,204.07 690.653,204.426C691.012,204.781 691.316,205.209 691.565,205.709C691.813,206.209 691.966,206.803 692.023,207.49Z" style="fill:white;fill-rule:nonzero;"/>
            <path d="M723.997,200.187L722.816,205.432C723.484,204.795 724.132,204.197 724.761,203.639C725.39,203.081 726.052,202.618 726.747,202.249C727.442,201.881 728.179,201.62 728.956,201.468C729.734,201.315 730.56,201.337 731.434,201.533C732.85,201.852 733.808,202.451 734.31,203.329C734.812,204.207 734.946,205.167 734.712,206.207C734.571,206.832 734.35,207.329 734.048,207.698C733.746,208.068 733.422,208.344 733.074,208.528C732.727,208.713 732.375,208.819 732.018,208.848C731.662,208.877 731.359,208.864 731.109,208.808C730.734,208.723 730.451,208.572 730.26,208.354C730.068,208.136 729.879,207.908 729.692,207.669C729.506,207.43 729.285,207.194 729.031,206.962C728.778,206.73 728.422,206.563 727.964,206.459C727.006,206.244 726.016,206.371 724.992,206.84C723.968,207.309 723.017,207.839 722.141,208.429L716.968,231.406L710.724,230L717.753,198.781L723.997,200.187Z" style="fill:white;fill-rule:nonzero;"/>
            <path d="M761.763,194.039L756.565,228.206C756.488,228.712 756.421,229.295 756.363,229.956C756.306,230.616 756.327,231.256 756.427,231.875C756.527,232.495 756.747,233.035 757.087,233.497C757.427,233.959 757.976,234.247 758.735,234.363C759.073,234.414 759.448,234.428 759.862,234.405C760.275,234.381 760.615,234.347 760.881,234.301C760.891,234.518 760.894,234.713 760.889,234.885C760.885,235.057 760.866,235.248 760.834,235.459C760.642,236.724 760.006,237.642 758.927,238.211C757.847,238.781 756.696,238.972 755.473,238.786C754.165,238.587 753.053,237.954 752.137,236.887C751.22,235.819 750.736,234.181 750.683,231.972C749.8,233.521 748.553,234.766 746.943,235.708C745.332,236.65 743.514,236.967 741.49,236.659C740.224,236.466 738.988,236.008 737.782,235.285C736.576,234.562 735.553,233.555 734.714,232.262C733.875,230.969 733.267,229.366 732.889,227.452C732.511,225.539 732.518,223.296 732.909,220.723C733.211,218.74 733.745,216.718 734.512,214.655C735.279,212.592 736.27,210.758 737.486,209.152C738.701,207.545 740.155,206.288 741.847,205.381C743.538,204.473 745.439,204.179 747.548,204.5C748.645,204.667 749.738,205.071 750.827,205.711C751.916,206.352 752.657,207.371 753.048,208.768L755.301,193.962L761.763,194.039ZM743.55,232.052C744.352,232.174 745.14,232.1 745.915,231.829C746.689,231.559 747.389,231.147 748.012,230.595C748.636,230.042 749.158,229.377 749.578,228.6C749.998,227.822 750.279,226.969 750.42,226.041L752.615,211.615C752.429,210.853 752.082,210.153 751.575,209.515C751.068,208.877 750.266,208.474 749.17,208.307C747.82,208.102 746.612,208.382 745.546,209.148C744.48,209.914 743.546,210.948 742.744,212.25C741.941,213.552 741.273,215.036 740.739,216.703C740.205,218.369 739.819,219.983 739.582,221.544C739.062,224.96 739.214,227.508 740.037,229.187C740.861,230.866 742.032,231.821 743.55,232.052Z" style="fill:white;fill-rule:nonzero;"/>
            <path d="M763.15,234.723C763.201,234.171 763.376,233.673 763.675,233.229C763.973,232.786 764.339,232.423 764.772,232.142C765.205,231.861 765.675,231.648 766.181,231.502C766.687,231.356 767.174,231.305 767.642,231.348C769.256,231.498 770.368,232.094 770.978,233.136C771.589,234.179 771.827,235.422 771.693,236.866C771.598,237.886 771.339,238.944 770.916,240.04C770.493,241.136 769.967,242.18 769.339,243.172C768.712,244.163 768.009,245.041 767.231,245.804C766.453,246.567 765.643,247.103 764.8,247.41C764.437,247.162 764.216,246.895 764.135,246.609C764.055,246.323 764.026,246.053 764.05,245.798C764.089,245.373 764.204,244.945 764.394,244.512C764.584,244.08 764.784,243.659 764.993,243.25C765.203,242.841 765.402,242.431 765.59,242.02C765.778,241.609 765.89,241.212 765.925,240.83C765.984,240.193 765.942,239.728 765.798,239.436C765.653,239.144 765.471,238.913 765.251,238.743C765.032,238.572 764.776,238.442 764.484,238.35C764.193,238.259 763.941,238.086 763.729,237.83C763.517,237.575 763.347,237.216 763.219,236.754C763.09,236.292 763.067,235.615 763.15,234.723Z" style="fill:white;fill-rule:nonzero;"/>
            <path d="M797.129,235.013C798.964,234.999 800.939,235.177 803.053,235.545C805.168,235.914 807.292,236.091 809.425,236.075C810.577,236.067 811.558,235.974 812.367,235.798C813.177,235.621 813.868,235.349 814.442,234.983C815.015,234.616 815.513,234.153 815.936,233.596C816.358,233.038 816.801,232.373 817.265,231.602C817.569,232.325 817.809,233.07 817.985,233.837C818.162,234.603 818.252,235.35 818.258,236.075C818.265,237.141 818.09,238.028 817.733,238.735C817.375,239.441 816.9,240.01 816.305,240.441C815.711,240.872 814.999,241.176 814.168,241.353C813.337,241.529 812.452,241.621 811.514,241.628C810.277,241.637 808.974,241.54 807.608,241.336C806.241,241.133 804.916,240.908 803.635,240.661C802.353,240.415 801.156,240.189 800.046,239.983C798.935,239.778 797.995,239.678 797.227,239.684C796.161,239.692 795.106,239.817 794.062,240.059C793.018,240.301 791.965,240.725 790.903,241.33C790.774,241.118 790.6,240.724 790.383,240.15C790.165,239.575 790.052,238.691 790.043,237.496C790.028,235.406 790.473,233.482 791.377,231.726C792.282,229.97 793.411,228.266 794.764,226.614C796.117,224.961 797.578,223.329 799.145,221.718C800.712,220.106 802.171,218.41 803.524,216.63C804.876,214.849 806.004,212.953 806.906,210.941C807.809,208.929 808.251,206.686 808.233,204.211C808.216,201.864 807.712,199.959 806.72,198.494C805.728,197.029 804.144,196.304 801.968,196.32C799.963,196.335 798.452,196.922 797.437,198.081C796.421,199.241 795.919,200.567 795.93,202.06C795.934,202.743 796.09,203.563 796.395,204.521C796.701,205.479 797.283,206.253 798.14,206.844C797.633,207.445 797.092,207.865 796.518,208.104C795.943,208.343 795.4,208.464 794.888,208.468C794.12,208.474 793.457,208.297 792.9,207.939C792.343,207.58 791.881,207.093 791.514,206.477C791.146,205.861 790.864,205.169 790.666,204.403C790.469,203.636 790.367,202.869 790.362,202.101C790.341,199.328 791.403,197.155 793.546,195.582C795.69,194.009 798.681,193.208 802.521,193.18C805.166,193.161 807.334,193.508 809.025,194.221C810.715,194.934 812.056,195.863 813.045,197.008C814.035,198.153 814.727,199.438 815.121,200.865C815.516,202.291 815.718,203.708 815.728,205.116C815.747,207.719 815.263,210.048 814.275,212.103C813.287,214.158 812.053,216.045 810.572,217.762C809.091,219.48 807.471,221.06 805.711,222.502C803.95,223.944 802.286,225.343 800.717,226.698C799.148,228.054 797.814,229.429 796.715,230.823C795.616,232.218 794.986,233.705 794.827,235.285C795.466,235.11 796.233,235.019 797.129,235.013Z" style="fill:white;fill-rule:nonzero;"/>
            <path d="M834.698,191.421C837.543,191.137 839.985,191.547 842.025,192.651C844.065,193.755 845.785,195.309 847.186,197.313C848.587,199.317 849.68,201.673 850.465,204.382C851.25,207.09 851.789,209.909 852.082,212.839C852.388,215.895 852.415,218.959 852.164,222.028C851.914,225.097 851.282,227.894 850.269,230.418C849.256,232.942 847.804,235.038 845.913,236.706C844.021,238.375 841.59,239.357 838.618,239.654C836.368,239.879 834.251,239.619 832.269,238.874C830.286,238.129 828.51,236.87 826.939,235.097C825.368,233.325 824.044,231.013 822.966,228.162C821.887,225.311 821.149,221.89 820.75,217.899C820.381,214.206 820.394,210.796 820.789,207.669C821.184,204.542 821.962,201.816 823.123,199.492C824.285,197.168 825.835,195.308 827.776,193.914C829.716,192.519 832.024,191.688 834.698,191.421ZM828.691,216.913C828.916,219.163 829.278,221.389 829.777,223.59C830.275,225.791 830.943,227.751 831.779,229.468C832.615,231.185 833.619,232.543 834.791,233.541C835.963,234.538 837.334,234.959 838.905,234.802C840.476,234.645 841.755,233.927 842.742,232.65C843.729,231.372 844.464,229.712 844.946,227.67C845.428,225.628 845.689,223.308 845.729,220.709C845.77,218.111 845.65,215.411 845.37,212.609C844.997,208.873 844.454,205.808 843.744,203.413C843.033,201.019 842.235,199.147 841.349,197.799C840.464,196.451 839.527,195.548 838.538,195.089C837.549,194.631 836.608,194.446 835.717,194.535C834.231,194.684 832.975,195.42 831.95,196.745C830.925,198.069 830.13,199.767 829.565,201.839C829,203.911 828.644,206.251 828.498,208.86C828.351,211.469 828.416,214.153 828.691,216.913Z" style="fill:white;fill-rule:nonzero;"/>
            <path d="M865.725,229.411C867.526,229.06 869.499,228.871 871.646,228.844C873.792,228.816 875.912,228.598 878.006,228.19C879.137,227.969 880.084,227.698 880.847,227.375C881.61,227.052 882.239,226.658 882.735,226.192C883.231,225.726 883.636,225.179 883.948,224.553C884.261,223.927 884.574,223.192 884.887,222.349C885.319,223.004 885.693,223.691 886.007,224.413C886.322,225.134 886.548,225.85 886.687,226.562C886.891,227.609 886.883,228.513 886.662,229.273C886.441,230.034 886.078,230.68 885.573,231.213C885.068,231.747 884.424,232.177 883.64,232.503C882.856,232.83 882.004,233.083 881.082,233.263C879.868,233.5 878.57,233.644 877.189,233.696C875.808,233.748 874.465,233.771 873.16,233.765C871.855,233.759 870.637,233.757 869.507,233.76C868.378,233.763 867.436,233.838 866.682,233.985C865.635,234.189 864.621,234.506 863.64,234.937C862.659,235.367 861.702,235.978 860.77,236.768C860.603,236.583 860.36,236.228 860.04,235.704C859.721,235.179 859.447,234.331 859.218,233.158C858.818,231.106 858.9,229.134 859.466,227.241C860.031,225.349 860.827,223.466 861.853,221.592C862.878,219.718 864.013,217.845 865.256,215.973C866.499,214.1 867.621,212.164 868.622,210.165C869.624,208.166 870.382,206.094 870.899,203.95C871.415,201.806 871.437,199.52 870.963,197.091C870.514,194.788 869.667,193.008 868.422,191.751C867.177,190.494 865.487,190.074 863.351,190.49C861.383,190.874 860.006,191.729 859.222,193.056C858.437,194.383 858.188,195.779 858.474,197.245C858.604,197.915 858.908,198.692 859.385,199.577C859.862,200.462 860.576,201.116 861.528,201.539C861.14,202.224 860.686,202.736 860.165,203.077C859.645,203.417 859.133,203.637 858.631,203.735C857.877,203.882 857.193,203.83 856.579,203.58C855.966,203.331 855.421,202.937 854.947,202.399C854.473,201.861 854.068,201.234 853.732,200.517C853.397,199.8 853.156,199.064 853.009,198.311C852.478,195.588 853.121,193.257 854.937,191.316C856.754,189.375 859.547,188.037 863.316,187.302C865.912,186.796 868.107,186.737 869.9,187.126C871.693,187.516 873.181,188.182 874.365,189.125C875.549,190.067 876.466,191.204 877.116,192.533C877.767,193.862 878.227,195.218 878.496,196.6C878.995,199.155 878.948,201.533 878.356,203.735C877.764,205.937 876.898,208.018 875.759,209.979C874.62,211.94 873.318,213.792 871.854,215.534C870.39,217.275 869.011,218.957 867.719,220.578C866.427,222.2 865.369,223.797 864.546,225.37C863.722,226.944 863.378,228.522 863.513,230.104C864.108,229.814 864.846,229.583 865.725,229.411Z" style="fill:white;fill-rule:nonzero;"/>
            <path d="M896.432,207.128C895.657,206.597 895.157,205.942 894.932,205.163C894.742,204.507 894.73,203.811 894.895,203.075C895.06,202.339 895.397,201.62 895.905,200.918C896.413,200.217 897.094,199.576 897.948,198.996C898.802,198.417 899.823,197.955 901.012,197.612C902.734,197.115 904.406,196.987 906.031,197.229C907.655,197.47 909.155,198.014 910.532,198.86C911.908,199.706 913.125,200.843 914.181,202.27C915.237,203.697 916.037,205.353 916.581,207.239C917.114,209.083 917.357,211.001 917.309,212.991C917.262,214.98 916.851,216.864 916.077,218.642C915.302,220.42 914.14,222.01 912.591,223.412C911.042,224.814 909.058,225.865 906.64,226.563C904.59,227.155 902.567,227.339 900.571,227.116C898.575,226.893 896.697,226.158 894.938,224.912C893.18,223.666 891.562,221.868 890.084,219.519C888.606,217.17 887.341,214.171 886.288,210.523C885.293,207.08 884.699,203.676 884.505,200.313C884.311,196.949 884.58,193.841 885.31,190.988C886.041,188.134 887.275,185.68 889.013,183.623C890.75,181.567 893.075,180.119 895.985,179.279C897.379,178.876 898.687,178.676 899.909,178.679C901.131,178.681 902.211,178.847 903.15,179.175C904.088,179.504 904.863,179.957 905.474,180.536C906.085,181.114 906.497,181.773 906.71,182.51C906.817,182.879 906.871,183.297 906.872,183.763C906.873,184.229 906.804,184.682 906.665,185.122C906.526,185.562 906.283,185.953 905.939,186.297C905.594,186.641 905.134,186.896 904.56,187.061C904.274,187.144 904.011,187.198 903.774,187.222C903.537,187.246 903.263,187.258 902.952,187.259C903.208,186.608 903.206,185.832 902.946,184.93C902.626,183.823 901.912,182.963 900.802,182.351C899.693,181.739 898.441,181.634 897.048,182.036C895.367,182.522 894.049,183.646 893.092,185.41C892.136,187.174 891.509,189.309 891.211,191.815C890.913,194.321 890.915,197.096 891.217,200.14C891.518,203.184 892.101,206.202 892.965,209.195C893.557,211.244 894.249,213.143 895.042,214.89C895.836,216.637 896.745,218.095 897.771,219.265C898.797,220.434 899.979,221.258 901.316,221.738C902.654,222.218 904.163,222.215 905.844,221.73C907.442,221.268 908.667,220.549 909.517,219.57C910.367,218.592 910.959,217.489 911.292,216.26C911.626,215.031 911.748,213.764 911.66,212.457C911.571,211.15 911.361,209.923 911.03,208.775C910.284,206.193 909.071,204.222 907.391,202.864C905.711,201.506 903.683,201.171 901.305,201.857C900.116,202.2 899.117,202.778 898.308,203.589C897.498,204.4 896.873,205.579 896.432,207.128Z" style="fill:white;fill-rule:nonzero;"/>
        </g>
        <g id="Laag_3">
            <path d="M28.9,136.1L27.4,160.1C27.3,161.5 28.4,162.8 29.8,162.9C54.7,165.2 252.1,182 265.8,151.7L28.9,136.1Z" style="fill:rgb(236,240,241);fill-rule:nonzero;"/>
            <path d="M28.9,136.3L30.5,112C30.6,110.7 31.7,109.8 32.9,109.8C56.5,110.8 256.1,119.9 265.7,151.9L28.9,136.3Z" style="fill:rgb(189,195,199);fill-rule:nonzero;"/>
            <g>
                <path d="M39.1,136.8L28.9,136.1L27.3,160.8C27.2,161.9 28,162.8 29.1,162.9C30.8,163.1 33.6,163.3 37.3,163.6L39.1,136.8Z" style="fill:rgb(231,76,60);fill-rule:nonzero;"/>
                <path d="M40.8,110.1C37.1,109.9 34.3,109.8 32.6,109.7C31.5,109.7 30.6,110.5 30.5,111.6L28.9,136.3L39.1,137L40.8,110.1Z" style="fill:rgb(192,57,43);fill-rule:nonzero;"/>
            </g>
            <g>
                <path d="M0,134.2C0.2,138 9.7,142.8 12.3,144.3C15.4,146.1 22.2,150 24.6,145.3C25.1,144.4 26,139.6 25.7,135.9L0,134.2Z" style="fill:rgb(195,130,0);fill-rule:nonzero;"/>
                <path d="M0,134.2C0.2,138 9.7,142.8 12.3,144.3C15.4,146.1 22.2,150 24.6,145.3C25.1,144.4 26,139.6 25.7,135.9L0,134.2Z" style="fill:rgb(231,76,60);fill-rule:nonzero;"/>
                <path d="M0,134.4C0.7,130.6 10.8,127.1 13.5,126C16.8,124.6 24.1,121.7 25.8,126.6C26.1,127.6 26.5,132.4 25.7,136.1L0,134.4Z" style="fill:rgb(192,57,43);fill-rule:nonzero;"/>
            </g>
            <path d="M133.7,123.9C144.3,124.6 152.3,133.7 151.6,144.3C150.9,154.9 141.8,162.9 131.2,162.2C120.6,161.5 112.6,152.4 113.3,141.8C114,131.2 123.1,123.2 133.7,123.9Z" style="fill:rgb(44,62,80);fill-rule:nonzero;"/>
            <g>
                <path d="M18.7,144.4L18.4,215C18.4,216.7 17,218 15.3,217.9L11.1,217.6C7,217.3 4,213.7 4.5,209.6L12.9,143.9C13.1,142.4 14.4,141.3 16,141.4C17.5,141.5 18.7,142.8 18.7,144.4Z" style="fill:rgb(231,76,60);fill-rule:nonzero;"/>
                <path d="M19.5,130.7L28.7,57.9C29,55.6 27.3,53.5 24.9,53.3L19.4,53C16.7,52.8 14.4,54.9 14.4,57.6L14,130.3L19.5,130.7Z" style="fill:rgb(192,57,43);fill-rule:nonzero;"/>
            </g>
            <path d="M122.5,1.9C129,2.3 133.9,7.9 133.5,14.4L116.6,270.7C116.2,277.2 110.6,282.1 104.1,281.7L76,279.8C69.5,279.4 64.6,273.8 65,267.3L81.9,11C82.3,4.5 87.9,-0.4 94.4,0L122.5,1.9Z" style="fill:rgb(231,76,60);fill-rule:nonzero;"/>
            <g>
                <g transform="matrix(0.0657007,-0.9978,0.9978,0.0657007,70.2819,162.788)">
                    <rect x="99.4" y="34.5" width="45.4" height="18.8" style="fill:rgb(231,76,60);"/>
                </g>
                <g transform="matrix(0.0657007,-0.9978,0.9978,0.0657007,-137.489,333.193)">
                    <rect x="86.5" y="230.6" width="45.4" height="18.8" style="fill:rgb(231,76,60);"/>
                </g>
            </g>
            <g>
                <path d="M237.6,92.1C243.1,92.5 247.3,97.2 246.9,102.8L240.6,198.1C240.2,203.6 235.5,207.8 229.9,207.4L209.2,206C203.7,205.6 199.5,200.9 199.9,195.3L206.2,100C206.6,94.5 211.3,90.3 216.9,90.7L237.6,92.1Z" style="fill:rgb(192,57,43);fill-rule:nonzero;"/>
                <path d="M207.5,147.8C207.4,149.5 212.5,151.2 218.9,151.6L262.6,154.5C269,154.9 274.3,153.9 274.4,152.2C274.5,150.5 269.4,148.8 263,148.4L219.3,145.5C212.9,145.1 207.6,146.1 207.5,147.8Z" style="fill:rgb(231,76,60);fill-rule:nonzero;"/>
            </g>
        </g>
    </g>
</svg>
